<?xml version="1.0" encoding="utf-8"?>
<!-- Generator: Adobe Illustrator 19.0.0, SVG Export Plug-In . SVG Version: 6.00 Build 0)  -->
<svg version="1.1" id="图层_1" xmlns="http://www.w3.org/2000/svg" xmlns:xlink="http://www.w3.org/1999/xlink" x="0px" y="0px"
	 viewBox="-9 -12.5 66 66" style="enable-background:new -9 -12.5 66 66;" xml:space="preserve">
<style type="text/css">
	.st0{fill:#DDDDDD;}
	.st1{fill:#FFFFFF;}
	.st2{filter:url(#Adobe_OpacityMaskFilter);}
	.st3{mask:url(#mask-2);}
	.st4{fill:#EEEEEE;}
</style>
<circle id="Oval" class="st0" cx="24" cy="20.5" r="33"/>
<circle id="Oval_1_" class="st1" cx="24" cy="20.5" r="31"/>
<g id="Bitmap" transform="translate(2.000000, 2.000000)">
	<g id="Mask">
		<circle id="path-1_1_" class="st1" cx="22" cy="18.5" r="31"/>
	</g>
	<defs>
		<filter id="Adobe_OpacityMaskFilter" filterUnits="userSpaceOnUse" x="-10" y="-7.8" width="63" height="92.3">
			<feColorMatrix  type="matrix" values="1 0 0 0 0  0 1 0 0 0  0 0 1 0 0  0 0 0 1 0"/>
		</filter>
	</defs>
	<mask maskUnits="userSpaceOnUse" x="-10" y="-7.8" width="63" height="92.3" id="mask-2">
		<g class="st2">
			<circle id="path-1" class="st1" cx="22" cy="18.5" r="31"/>
		</g>
	</mask>
	<g id="Group" class="st3">
		<g transform="translate(0.000000, 5.000000)">
			<g>
				<ellipse id="Oval-4_1_" class="st4" cx="21.5" cy="51" rx="30.5" ry="27.5"/>
				<path class="st0" d="M21.5,79.5C4.1,79.5-10,66.7-10,51S4.1,22.5,21.5,22.5S53,35.3,53,51S38.9,79.5,21.5,79.5z M21.5,24.5
					C5.2,24.5-8,36.4-8,51S5.2,77.5,21.5,77.5S51,65.6,51,51S37.8,24.5,21.5,24.5z"/>
			</g>
			<path class="st0" d="M10.3,13.3c-0.4,0-0.8-0.1-1.2-0.3c-1-0.5-1.9-1.7-2.3-3.1C6,7.5,6.6,5.3,8.2,4.8C8.8,4.6,9.4,4.7,10.1,5
				c1,0.5,1.9,1.7,2.4,3.1c0.8,2.4,0.2,4.6-1.4,5.1C10.8,13.2,10.5,13.3,10.3,13.3z M8.9,6.7C8.9,6.7,8.9,6.7,8.9,6.7L8.9,6.7
				C8.6,6.8,8.2,7.8,8.7,9.3C9,10.4,9.6,11,10,11.2c0.1,0.1,0.2,0.1,0.3,0.1c0.3-0.1,0.7-1.1,0.2-2.6c-0.4-1.1-1-1.7-1.4-1.9
				C9.1,6.7,9,6.7,8.9,6.7z"/>
			<g>
				<path id="Fill-9_1_" class="st4" d="M15.9,14.1v8.9v4.4c3.2,3.8,8.5,3.9,11.7,0v-4.4v-8.9C27.6,6.9,15.9,6.9,15.9,14.1"/>
				<path class="st0" d="M21.8,31.4c-2.5,0-4.9-1.2-6.7-3.3l-0.2-0.3V14.1c0-4.2,3.4-6.4,6.8-6.4c3.4,0,6.8,2.2,6.8,6.4v13.7
					l-0.2,0.3C26.7,30.2,24.4,31.4,21.8,31.4C21.9,31.4,21.8,31.4,21.8,31.4z M16.9,27.1c1.4,1.5,3.1,2.3,4.9,2.3
					c1.8,0,3.4-0.8,4.7-2.3v-13c0-1.4-0.5-2.5-1.5-3.3c-0.9-0.7-2.1-1.1-3.4-1.1c-2.3,0-4.8,1.4-4.8,4.4V27.1z"/>
			</g>
			<path class="st0" d="M33.8,13.3c-0.2,0-0.5,0-0.7-0.1c-1.6-0.5-2.2-2.7-1.4-5.1C32.1,6.6,33,5.5,34,5c0.6-0.3,1.2-0.4,1.8-0.2
				c1.6,0.5,2.2,2.7,1.4,5.1c-0.5,1.4-1.3,2.6-2.3,3.1C34.5,13.2,34.1,13.3,33.8,13.3z M35.1,6.7c-0.1,0-0.2,0-0.2,0.1
				c-0.4,0.2-1,0.8-1.4,1.9c-0.5,1.5-0.1,2.5,0.2,2.6c0.1,0,0.2,0,0.3-0.1c0.4-0.2,1-0.8,1.3-1.9C35.8,7.8,35.5,6.8,35.1,6.7
				L35.1,6.7C35.2,6.7,35.2,6.7,35.1,6.7z"/>
			<g>
				<path id="Fill-18_1_" class="st1" d="M15.9,23.1l-0.5,2c-0.3,1-0.3,2.5,0,4.5c0.3,2,0.7,3.9,1.4,5.9l4.9-5L15.9,23.1z"/>
				<path class="st0" d="M16.4,37.3l-0.5-1.5c-0.7-2-1.2-4.1-1.5-6.1c-0.3-2.1-0.3-3.7,0-4.9l1-3.9l7.7,9.6L16.4,37.3z M16.4,25.3
					L16.4,25.3c-0.3,0.9-0.2,2.3,0,4.1c0.2,1.4,0.5,2.8,0.9,4.2l3.2-3.2L16.4,25.3z"/>
			</g>
			<g>
				<path id="Fill-22_1_" class="st1" d="M21.8-9.9c-17.9,0-11.1,24.7-9.9,26.6c1.3,2.1,7,6.3,9.9,6.3c2.9,0,8.6-4.3,9.9-6.3
					C32.8,14.8,39.7-9.9,21.8-9.9"/>
				<path class="st0" d="M21.8,24c-3.4,0-9.4-4.6-10.7-6.8C10.2,15.9,6.2,2.9,10.6-5c2.2-3.9,5.9-5.8,11.1-5.8c5.2,0,9,2,11.1,5.9
					c4.4,7.9,0.4,20.9-0.4,22.2C31.2,19.4,25.2,24,21.8,24z M21.8-8.9c-4.4,0-7.6,1.6-9.4,4.8C8.5,2.9,12,15.1,12.7,16.2
					c1.2,1.9,6.6,5.9,9,5.9c2.4,0,7.8-3.9,9-5.9C31.5,15.1,35,2.9,31.1-4C29.4-7.2,26.2-8.9,21.8-8.9z"/>
			</g>
			<g>
				<path id="Fill-24_1_" class="st4" d="M9.8-6.3C7-2.3,9.5,5.3,10.3,11c0,0,0,0.1,0,0.2c0,0,0.1,0.2,0.1,0.2c0,0.1,0-2.3,0-2.3
					c-0.1-0.8,0.3-5.4,2.2-9c0.2-0.3,1.3-1.5,1.5-1.6c3.3-1.2,4.4,0.8,7.5,2.1C22.9,1,24.7,1,26,1c0.8,0,1.6-0.3,2.3-0.9l0,0
					c0.9-0.7,2.1-0.5,2.8,0.4c0.1,0.1,0.1,0.2,0.2,0.3l0.2,0.3c0.8,1.4,1.3,2.9,1.7,4.5c0.2,4.3,0.1,5.4,0.1,5.7
					c0,0,0.2,0.2,0.2,0.1c0,0,0.1-0.2,0.1-0.2c0.1-0.2,0.1-0.4,0.1-0.6c0-0.3,0.1-0.6,0.1-0.9c0.7-2.7,2.3-11.3,0-15.9
					c-0.7-1.5-2.3-2.7-3.8-3C23.9-14.7,12.6-10.2,9.8-6.3z"/>
				<path class="st0" d="M10,12.6l-0.4-0.7c-0.1-0.1-0.2-0.2-0.2-0.4l-0.1-0.3C9.2,10,8.9,8.6,8.6,7.2C7.7,2.3,6.5-3.4,9-6.8
					c2-2.8,7-5.3,11.7-5.9c3.9-0.5,7.3,0.4,9.8,2.5c1.8,0.5,3.4,1.8,4.2,3.5c2.8,5.6,0.3,15.6,0.1,16.6c0,0.2,0,0.3-0.1,0.5
					l-0.1,0.4c0,0.1,0,0.4-0.1,0.7c-0.1,0.2-0.2,0.4-0.2,0.5c-0.2,0.4-0.7,0.6-1.1,0.5c-0.3-0.1-0.9-0.4-1-1c0-0.1,0-0.2,0-0.5
					c0-0.6,0.1-2-0.1-5.2c-0.4-1.4-0.9-2.8-1.6-4.1l-0.2-0.3c0,0-0.1-0.1-0.1-0.1c-0.2-0.2-0.4-0.3-0.7-0.4c-0.3,0-0.5,0-0.7,0.2
					C28,1.7,27,2,26,2c-1.7,0-3.4-0.1-4.6-0.6c-1-0.4-1.8-0.9-2.5-1.3c-1.5-0.9-2.4-1.4-4.1-0.8c-0.3,0.3-1,1-1.1,1.2
					c-1.8,3.3-2.2,7.7-2.1,8.4c0.3,3.1-0.3,3.2-0.7,3.4L10,12.6z M22.7-10.8c-0.6,0-1.2,0-1.7,0.1c-4.6,0.5-8.9,3-10.3,5
					C9-3.4,9.4,0.5,10.1,4.4c0.4-1.5,0.9-3.2,1.8-4.8c0.3-0.5,1.6-1.8,1.7-1.9l0.3-0.1c2.7-1,4.3-0.1,6,0.9c0.7,0.4,1.4,0.8,2.2,1.2
					C23.2,0,25,0,26,0c0.6,0,1.1-0.2,1.7-0.7c0.6-0.5,1.4-0.7,2.2-0.6c0.8,0.1,1.5,0.5,2,1.1C32,0,32.1,0.2,32.2,0.3l0.2,0.3
					c0.6,1.1,1.1,2.3,1.5,3.6c0.4-3.4,0.4-7.4-0.9-10C32.4-7,31.1-8,29.8-8.3l-0.2-0.1l-0.2-0.2C27.4-10.3,24.8-10.8,22.7-10.8z"/>
			</g>
			<g>
				<path id="Fill-26_1_" class="st1" d="M27.6,23.1l0.4,2c0.3,1.2,0.3,2.8,0,4.8c-0.3,2-0.7,3.9-1.3,5.7l-4.9-5.1L27.6,23.1z"/>
				<path class="st0" d="M27,37.4l-6.6-7l7.7-9.7l0.8,4.1c0.3,1.3,0.3,3,0,5.1c-0.3,2.1-0.7,4.1-1.4,5.9L27,37.4z M23.1,30.3
					l3.1,3.3c0.4-1.3,0.6-2.6,0.8-3.9c0.2-1.8,0.2-3.3,0-4.3L23.1,30.3z"/>
			</g>
			<path id="Path-7" class="st0" d="M21.5,37.5c-1.8,0-3.5,16.4-3.5,24.8c0,5.6,1.2,10.4,3.5,14.2c2.3-2.1,3.5-6.8,3.5-14.2
				C25,51.3,23.2,37.5,21.5,37.5z"/>
			<circle id="Oval-3" class="st0" cx="21.5" cy="35" r="1.5"/>
		</g>
	</g>
</g>
</svg>
