<?xml version="1.0" encoding="utf-8"?>
<!-- Generator: Adobe Illustrator 19.0.0, SVG Export Plug-In . SVG Version: 6.00 Build 0)  -->
<svg version="1.1" id="图层_1" xmlns="http://www.w3.org/2000/svg" xmlns:xlink="http://www.w3.org/1999/xlink" x="0px" y="0px"
	 viewBox="-9 -12.5 66 66" style="enable-background:new -9 -12.5 66 66;" xml:space="preserve">
<style type="text/css">
	.st0{fill:#DDDDDD;}
	.st1{fill:#FFFFFF;}
	.st2{filter:url(#Adobe_OpacityMaskFilter);}
	.st3{mask:url(#mask-2);}
	.st4{fill:url(#Oval-4_1_);}
	.st5{fill:#F6D9C7;}
	.st6{fill:url(#Fill-9_1_);}
	.st7{fill:url(#Fill-22_1_);}
	.st8{fill:url(#Fill-24_1_);}
	.st9{fill:#00344E;}
</style>
<g id="icon_login">
	<circle id="Oval" class="st0" cx="24" cy="20.5" r="33"/>
	<circle id="Oval_1_" class="st1" cx="24" cy="20.5" r="31"/>
	<g id="Bitmap" transform="translate(2.000000, 2.000000)">
		<g id="Mask">
			<circle id="path-1_1_" class="st1" cx="22" cy="18.5" r="31"/>
		</g>
		<defs>
			<filter id="Adobe_OpacityMaskFilter" filterUnits="userSpaceOnUse" x="-9" y="-6.8" width="61" height="90.3">
				<feColorMatrix  type="matrix" values="1 0 0 0 0  0 1 0 0 0  0 0 1 0 0  0 0 0 1 0"/>
			</filter>
		</defs>
		<mask maskUnits="userSpaceOnUse" x="-9" y="-6.8" width="61" height="90.3" id="mask-2">
			<g class="st2">
				<circle id="path-1" class="st1" cx="22" cy="18.5" r="31"/>
			</g>
		</mask>
		<g id="Group" class="st3">
			<g transform="translate(0.000000, 5.000000)">
				
					<linearGradient id="Oval-4_1_" gradientUnits="userSpaceOnUse" x1="-19.6604" y1="34.0753" x2="-19.3598" y2="33.748" gradientTransform="matrix(61 0 0 -55 1202 1906.72)">
					<stop  offset="0" style="stop-color:#00B0FF"/>
					<stop  offset="1" style="stop-color:#006FA8"/>
				</linearGradient>
				<ellipse id="Oval-4" class="st4" cx="21.5" cy="51" rx="30.5" ry="27.5"/>
				<path id="Fill-1" class="st5" d="M9.6,5.7c1-0.3,2.3,0.8,2.9,2.6c0.6,1.8,0.2,3.5-0.8,3.8c-1,0.3-2.3-0.8-2.9-2.6
					C8.2,7.8,8.6,6.1,9.6,5.7"/>
				
					<linearGradient id="Fill-9_1_" gradientUnits="userSpaceOnUse" x1="-19.208" y1="34.2814" x2="-18.3377" y2="33.8477" gradientTransform="matrix(11.665 0 0 -21.6761 240.2209 757.5807)">
					<stop  offset="0" style="stop-color:#FAD8C1"/>
					<stop  offset="1" style="stop-color:#DDB195"/>
				</linearGradient>
				<path id="Fill-9" class="st6" d="M15.9,14.1v8.9v4.4c3.2,3.8,8.5,3.9,11.7,0v-4.4v-8.9C27.6,6.9,15.9,6.9,15.9,14.1"/>
				<path id="Fill-11" class="st5" d="M33.9,5.7c-1-0.3-2.3,0.8-2.9,2.6c-0.6,1.8-0.2,3.5,0.8,3.8c1,0.3,2.3-0.8,2.9-2.6
					C35.3,7.8,34.9,6.1,33.9,5.7"/>
				<path id="Fill-18" class="st1" d="M15.9,23.1l-0.5,2c-0.3,1-0.3,2.5,0,4.5c0.3,2,0.7,3.9,1.4,5.9l4.9-5L15.9,23.1z"/>
				
					<linearGradient id="Fill-22_1_" gradientUnits="userSpaceOnUse" x1="-18.8415" y1="33.5638" x2="-19.2397" y2="34.026" gradientTransform="matrix(24.3258 0 0 -32.888 487.1179 1120.6573)">
					<stop  offset="0" style="stop-color:#FFD5BC"/>
					<stop  offset="1" style="stop-color:#FFE7DD"/>
				</linearGradient>
				<path id="Fill-22" class="st7" d="M21.8-9.9c-17.9,0-11.1,24.7-9.9,26.6c1.3,2.1,7,6.3,9.9,6.3c2.9,0,8.6-4.3,9.9-6.3
					C32.8,14.8,39.7-9.9,21.8-9.9"/>
				
					<linearGradient id="Fill-24_1_" gradientUnits="userSpaceOnUse" x1="-19.4291" y1="34.3915" x2="-19.0217" y2="33.6784" gradientTransform="matrix(26.5438 0 0 -23.2349 530.3794 790.1066)">
					<stop  offset="0" style="stop-color:#F8E193"/>
					<stop  offset="1" style="stop-color:#EFC05A"/>
				</linearGradient>
				<path id="Fill-24" class="st8" d="M9.8-6.3C7-2.3,9.5,5.3,10.3,11c0,0,0,0.1,0,0.2c0,0,0.1,0.2,0.1,0.2c0,0.1,0.2,0,0.3,0
					c0,0,0,0,0-0.1c0-0.5,0-1.5,0-1.5c-0.1-0.8-0.1-6.1,1.9-9.7c0.2-0.3,1.3-1.5,1.5-1.6c3.3-1.2,4.4,0.8,7.5,2.1
					C22.9,1,24.7,1,26,1c0.8,0,1.6-0.3,2.3-0.9l0,0c0.9-0.7,2.1-0.5,2.8,0.4c0.1,0.1,0.1,0.2,0.2,0.3L31.4,1c0.8,1.4,1.3,3,1.6,4.6
					c0.3,3.2,0.2,3.8,0.1,4.1c0,0,0,1,0,1.5c0,0,0,0.1,0,0.1c0.1,0,0.3,0.1,0.3,0c0,0,0.1-0.2,0.1-0.2c0.1-0.2,0.1-0.4,0.1-0.6
					c0-0.3,0.1-0.6,0.1-0.9c0.7-2.7,2.3-11.3,0-15.9c-0.7-1.5-2.3-2.7-3.8-3C23.9-14.7,12.6-10.2,9.8-6.3z"/>
				<path id="Fill-26" class="st1" d="M27.6,23.1l0.4,2c0.3,1.2,0.3,2.8,0,4.8c-0.3,2-0.7,3.9-1.3,5.7l-4.9-5.1L27.6,23.1z"/>
				<path id="Path-7" class="st9" d="M21.5,37.5c-1.8,0-3.5,16.4-3.5,24.8c0,5.6,1.2,10.4,3.5,14.2c2.3-2.1,3.5-6.8,3.5-14.2
					C25,51.3,23.2,37.5,21.5,37.5z"/>
				<circle id="Oval-3" class="st9" cx="21.5" cy="35" r="1.5"/>
			</g>
		</g>
	</g>
</g>
</svg>
