<?xml version="1.0" encoding="utf-8"?>
<!-- Generator: Adobe Illustrator 22.0.1, SVG Export Plug-In . SVG Version: 6.00 Build 0)  -->
<svg version="1.1" id="图层_1" xmlns="http://www.w3.org/2000/svg" xmlns:xlink="http://www.w3.org/1999/xlink" x="0px" y="0px"
	 viewBox="0 0 48 48" style="enable-background:new 0 0 48 48;" xml:space="preserve">
<style type="text/css">
	.st0{fill:url(#Fill-1_1_);}
	.st1{fill:url(#Fill-4_1_);}
	.st2{fill:url(#Fill-6_1_);}
</style>
<linearGradient id="Fill-1_1_" gradientUnits="userSpaceOnUse" x1="-600.1397" y1="525.2144" x2="-599.5658" y2="524.4965" gradientTransform="matrix(41.959 0 0 -41.959 25192.7676 22047.0098)">
	<stop  offset="0" style="stop-color:#00CDF4"/>
	<stop  offset="1" style="stop-color:#009EE5"/>
</linearGradient>
<path id="Fill-1" class="st0" d="M44.8,20.1L44.8,20.1c0-0.5-0.3-1-0.7-1.2c-0.5-0.3-1-0.3-1.5,0c-0.5,0.3-0.7,0.8-0.7,1.3
	c0,0.1,0,0.1,0,0.2l0,0c0.1,0.9,0.2,1.8,0.2,2.7c0,10-8.1,18-18,18C14,41,6,33,6,23C6,13.1,14,5,24,5c1,0,2,0.1,3,0.2
	c0.4,0.1,0.8,0,1.1-0.2c0.5-0.3,0.7-0.8,0.7-1.3c0-0.5-0.3-1-0.7-1.3c-0.1-0.1-0.3-0.1-0.4-0.2l0,0c-0.3-0.1-0.7-0.1-1-0.2
	C25.7,2.1,24.9,2,24,2C12.4,2,3,11.4,3,23c0,11.6,9.4,21,21,21c11.6,0,21-9.4,21-21C45,22,44.9,21.1,44.8,20.1"/>
<linearGradient id="Fill-4_1_" gradientUnits="userSpaceOnUse" x1="-567.4641" y1="496.2577" x2="-566.8902" y2="495.5399" gradientTransform="matrix(13 0 0 -12 7411.001 5961)">
	<stop  offset="0" style="stop-color:#00CDF4"/>
	<stop  offset="1" style="stop-color:#009EE5"/>
</linearGradient>
<path id="Fill-4" class="st1" d="M36,15.7c0.6,0.6,1,0.4,1-0.4v-3.8h5.5c0.8,0,1.5-0.7,1.5-1.5s-0.7-1.5-1.5-1.5h-5.5V4.8
	c0-0.8-0.5-1-1-0.4L31.4,9c-0.6,0.6-0.6,1.5,0,2.1L36,15.7z"/>
<linearGradient id="Fill-6_1_" gradientUnits="userSpaceOnUse" x1="-570.7753" y1="514.759" x2="-570.2014" y2="514.0411" gradientTransform="matrix(14 0 0 -22 8012 11341)">
	<stop  offset="0" style="stop-color:#00CDF4"/>
	<stop  offset="1" style="stop-color:#009EE5"/>
</linearGradient>
<path id="Fill-6" class="st2" d="M27.9,14.4L24,18.3l-3.9-3.9c-0.6-0.6-1.6-0.6-2.2,0c-0.6,0.6-0.6,1.5,0,2.1l4.1,4h-3.4
	c-0.8,0-1.5,0.7-1.5,1.5c0,0.8,0.7,1.5,1.5,1.5h3.9V26h-3.9c-0.8,0-1.5,0.7-1.5,1.5c0,0.8,0.7,1.5,1.5,1.5h3.9v5.6
	c0,0.8,0.7,1.5,1.5,1.5c0.8,0,1.5-0.7,1.5-1.5v-5.6h3.9c0.8,0,1.5-0.7,1.5-1.5c0-0.8-0.7-1.5-1.5-1.5h-3.9v-2.6h3.9
	c0.8,0,1.5-0.7,1.5-1.5c0-0.8-0.7-1.5-1.5-1.5H26l4.1-4c0.6-0.6,0.6-1.5,0-2.1C29.5,13.9,28.5,13.9,27.9,14.4"/>
</svg>
