<?xml version="1.0" encoding="utf-8"?>
<!-- Generator: Adobe Illustrator 22.0.1, SVG Export Plug-In . SVG Version: 6.00 Build 0)  -->
<svg version="1.1" id="图层_1" xmlns="http://www.w3.org/2000/svg" xmlns:xlink="http://www.w3.org/1999/xlink" x="0px" y="0px"
	 viewBox="0 0 20 17.2" style="enable-background:new 0 0 20 17.2;" xml:space="preserve">
<style type="text/css">
	.st0{fill:#C6C6C6;}
</style>
<title>camera@2x</title>
<desc>Created with Sketch.</desc>
<g id="页面">
	<g id="_x36_-0-1-7我的资料-实名绑卡验证-填写完成样式" transform="translate(-334.000000, -213.000000)">
		<g id="银行卡号" transform="translate(-1.000000, 195.000000)">
			<g id="camera" transform="translate(335.000000, 18.000000)">
				<path id="Fill-1" class="st0" d="M10,14.8c-3.1,0-5.6-2.5-5.6-5.5S6.9,3.7,10,3.7s5.6,2.5,5.6,5.5S13.1,14.8,10,14.8 M18.1,2.5
					h-3.6l-1.1-1.8c-0.1-0.4-0.6-0.6-1-0.6H7.6c-0.4,0-0.9,0.2-1,0.6L5.5,2.5H1.9C0.9,2.5,0,3.3,0,4.3v11.1c0,1,0.9,1.8,1.9,1.8
					h16.2c1,0,1.9-0.9,1.9-1.8V4.3C20,3.3,19.1,2.5,18.1,2.5"/>
				<path id="Fill-4" class="st0" d="M6.2,9.2c0,2,1.7,3.7,3.7,3.7c2.1,0,3.7-1.7,3.7-3.7S12.1,5.5,10,5.5C7.9,5.5,6.2,7.2,6.2,9.2"
					/>
			</g>
		</g>
	</g>
</g>
</svg>
