<?xml version="1.0" encoding="utf-8"?>
<!-- Generator: Adobe Illustrator 22.0.1, SVG Export Plug-In . SVG Version: 6.00 Build 0)  -->
<svg version="1.1" id="图层_1" xmlns="http://www.w3.org/2000/svg" xmlns:xlink="http://www.w3.org/1999/xlink" x="0px" y="0px"
	 viewBox="0 0 11.9 11.8" style="enable-background:new 0 0 11.9 11.8;" xml:space="preserve">
<style type="text/css">
	.st0{fill:#E70012;}
	.st1{fill:#FFFFFF;}
</style>
<title>login_icon_succeed@2x</title>
<desc>Created with Sketch.</desc>
<g id="页面">
	<g id="_x36_-0-1-18我的资料-身份证信息" transform="translate(-114.000000, -549.000000)">
		<g id="Group-2-Copy" transform="translate(110.000000, 498.000000)">
			<g id="Group" transform="translate(4.000000, 48.000000)">
				<g id="login_icon_succeed" transform="translate(0.000000, 3.000000)">
					<g id="Group-3">
						<path id="Fill-1" class="st0" d="M5.9,0C2.7,0,0,2.7,0,5.9c0,3.3,2.7,5.9,5.9,5.9c3.3,0,5.9-2.7,5.9-5.9C11.9,2.7,9.2,0,5.9,0
							"/>
					</g>
					<path id="Combined-Shape" class="st1" d="M6,5.3L4.1,3.3c-0.1-0.1-0.4-0.1-0.5,0c-0.1,0.1-0.1,0.4,0,0.5l1.9,1.9L3.4,7.9
						C3.3,8,3.3,8.2,3.4,8.4l0,0c0.1,0.1,0.4,0.1,0.5,0l0,0L6,6.3l2,2c0.1,0.1,0.4,0.1,0.5,0l0,0c0.1-0.1,0.1-0.4,0-0.5l0,0l-2-2
						l1.9-1.9c0.1-0.1,0.1-0.4,0-0.5C8.2,3.3,8,3.3,7.9,3.4L6,5.3z"/>
				</g>
			</g>
		</g>
	</g>
</g>
</svg>
