<?xml version="1.0" encoding="utf-8"?>
<!-- Generator: Adobe Illustrator 22.0.1, SVG Export Plug-In . SVG Version: 6.00 Build 0)  -->
<svg version="1.1" id="图层_1" xmlns="http://www.w3.org/2000/svg" xmlns:xlink="http://www.w3.org/1999/xlink" x="0px" y="0px"
	 viewBox="0 0 11.9 11.8" style="enable-background:new 0 0 11.9 11.8;" xml:space="preserve">
<style type="text/css">
	.st0{fill:#7ED321;}
	.st1{fill:#FFFFFF;}
</style>
<title>login_icon_succeed@2x</title>
<desc>Created with Sketch.</desc>
<g id="页面">
	<g id="_x36_-0-1-18我的资料-身份证信息" transform="translate(-28.000000, -549.000000)">
		<g id="正确示例" transform="translate(24.000000, 498.000000)">
			<g id="Group" transform="translate(4.000000, 48.000000)">
				<g id="login_icon_succeed" transform="translate(0.000000, 3.000000)">
					<g id="Group-3">
						<path id="Fill-1" class="st0" d="M5.9,0C2.7,0,0,2.7,0,5.9c0,3.3,2.7,5.9,5.9,5.9c3.3,0,5.9-2.7,5.9-5.9C11.9,2.7,9.2,0,5.9,0
							"/>
					</g>
					<path id="Fill-4" class="st1" d="M8.1,4.4l-3,3L3.6,5.9C3.4,5.7,3.2,5.7,3,5.9C2.9,6,2.8,6.3,3,6.4l1.8,1.7
						c0.2,0.2,0.4,0.2,0.6,0l3.3-3.3c0.2-0.2,0.2-0.4,0-0.6C8.6,4.2,8.3,4.2,8.1,4.4"/>
				</g>
			</g>
		</g>
	</g>
</g>
</svg>
