<?xml version="1.0" encoding="utf-8"?>
<!-- Generator: Adobe Illustrator 22.0.1, SVG Export Plug-In . SVG Version: 6.00 Build 0)  -->
<svg version="1.1" id="图层_1" xmlns="http://www.w3.org/2000/svg" xmlns:xlink="http://www.w3.org/1999/xlink" x="0px" y="0px"
	 viewBox="0 0 17 17" style="enable-background:new 0 0 17 17;" xml:space="preserve">
<style type="text/css">
	.st0{fill:#CB0C2F;}
</style>
<title>Group 9@2x</title>
<desc>Created with Sketch.</desc>
<g id="页面">
	<g id="_x36_-1-2我的银行卡-工商银行样式" transform="translate(-26.000000, -343.000000)">
		<g id="Group-5" transform="translate(-1.000000, 323.000000)">
			<g id="Group-9" transform="translate(27.000000, 20.000000)">
				<path id="Combined-Shape" class="st0" d="M8.5,0C13.2,0,17,3.8,17,8.5c0,4.7-3.8,8.5-8.5,8.5C3.8,17,0,13.2,0,8.5
					C0,3.8,3.8,0,8.5,0z M8.5,16c4.1,0,7.5-3.4,7.5-7.5S12.6,1,8.5,1C4.4,1,1,4.4,1,8.5S4.4,16,8.5,16z"/>
				<polygon id="Fill-43" class="st0" points="4.1,7.8 7,7.8 7,9.3 4,9.3 4,13 7.8,13 7.8,12 5,12 5,10.3 7.9,10.3 7.9,6.8 5.1,6.8 
					5.1,5 8,5 8,4 4.1,4 				"/>
				<polygon id="Fill-44" class="st0" points="10,7.8 12.9,7.8 12.9,4 9,4 9,5 11.9,5 11.9,6.8 9.1,6.8 9.1,10.3 12,10.3 12,12 
					9.2,12 9.2,13 13,13 13,9.3 10,9.3 				"/>
			</g>
		</g>
	</g>
</g>
</svg>
