<?xml version="1.0" encoding="utf-8"?>
<!-- Generator: Adobe Illustrator 22.0.1, SVG Export Plug-In . SVG Version: 6.00 Build 0)  -->
<svg version="1.1" id="图层_1" xmlns="http://www.w3.org/2000/svg" xmlns:xlink="http://www.w3.org/1999/xlink" x="0px" y="0px"
	 viewBox="0 0 17 16.7" style="enable-background:new 0 0 17 16.7;" xml:space="preserve">
<style type="text/css">
	.st0{filter:url(#Adobe_OpacityMaskFilter);}
	.st1{fill:#FFFFFF;}
	.st2{mask:url(#mask-2_1_);fill:#CB0C2F;}
	.st3{filter:url(#Adobe_OpacityMaskFilter_1_);}
	.st4{mask:url(#mask-4_1_);fill:#CB0C2F;}
	.st5{fill:#CB0C2F;}
</style>
<title>Group 8@2x</title>
<desc>Created with Sketch.</desc>
<g id="页面">
	<g id="_x36_-0-1-7我的资料-实名绑卡验证-填写完成样式" transform="translate(-259.000000, -269.000000)">
		<g id="开户银行" transform="translate(-1.000000, 250.000000)">
			<g id="Group-8" transform="translate(260.000000, 19.000000)">
				<g id="Group-4">
					<g id="Clip-3">
					</g>
					<defs>
						<filter id="Adobe_OpacityMaskFilter" filterUnits="userSpaceOnUse" x="0" y="0" width="16.4" height="16.7">
							<feColorMatrix  type="matrix" values="1 0 0 0 0  0 1 0 0 0  0 0 1 0 0  0 0 0 1 0"/>
						</filter>
					</defs>
					<mask maskUnits="userSpaceOnUse" x="0" y="0" width="16.4" height="16.7" id="mask-2_1_">
						<g class="st0">
							<polygon id="path-1_1_" class="st1" points="0,0 0,16.7 16.4,16.7 16.4,0 							"/>
						</g>
					</mask>
					<path id="Fill-2" class="st2" d="M15.2,11.6l-1.8,2.6H3.5l-1.9-2.4l4.3-11l2.4,5.8l2.3-5.8l2.2,5.2h3.6c-1-3.4-4.2-5.9-8-5.9
						C3.7,0,0,3.7,0,8.4c0,4.6,3.7,8.4,8.4,8.4c3.6,0,6.7-2.3,7.9-5.5h-1.2L15.2,11.6z"/>
				</g>
				<g id="Group-7" transform="translate(13.000000, 7.000000)">
					<g id="Clip-6">
					</g>
					<defs>
						<filter id="Adobe_OpacityMaskFilter_1_" filterUnits="userSpaceOnUse" x="0.1" y="0" width="3.2" height="3.4">
							<feColorMatrix  type="matrix" values="1 0 0 0 0  0 1 0 0 0  0 0 1 0 0  0 0 0 1 0"/>
						</filter>
					</defs>
					<mask maskUnits="userSpaceOnUse" x="0.1" y="0" width="3.2" height="3.4" id="mask-4_1_">
						<g class="st3">
							<polygon id="path-3_1_" class="st1" points="3.3,3.4 3.3,0 0.1,0 0.1,3.4 							"/>
						</g>
					</mask>
					<path id="Fill-5" class="st4" d="M1.4,3.1l0.1,0.3H3L3,3.1H1.4z M0.2,0.4h3l0,0l0-0.2l0-0.1H0.1L0.2,0.4z M1.2,2.6h1.9l0-0.1
						l0-0.2H1.1L1.2,2.6z M0.7,1.6l0.1,0.3h2.4l0-0.3H0.7z"/>
				</g>
				<path id="Fill-1" class="st5" d="M7.8,11.9h4.7l-2.4-6L7.8,11.9z M3,11.9h4.7l-2.4-6L3,11.9z M13.2,6.3l0.2,0.4h3.5l0-0.2l0-0.2
					l0-0.1H13.2z M17,8h-3.1l0.1,0.4H17L17,8L17,8z"/>
			</g>
		</g>
	</g>
</g>
</svg>
