<?xml version="1.0" encoding="utf-8"?>
<!-- Generator: Adobe Illustrator 22.0.1, SVG Export Plug-In . SVG Version: 6.00 Build 0)  -->
<svg version="1.1" id="图层_1" xmlns="http://www.w3.org/2000/svg" xmlns:xlink="http://www.w3.org/1999/xlink" x="0px" y="0px"
	 viewBox="0 0 46 46" style="enable-background:new 0 0 46 46;" xml:space="preserve">
<style type="text/css">
	.st0{fill:url(#Combined-Shape_1_);}
	.st1{fill:#FFFFFF;}
</style>
<title>角标</title>
<desc>Created with Sketch.</desc>
<linearGradient id="Combined-Shape_1_" gradientUnits="userSpaceOnUse" x1="-476.5016" y1="535.5" x2="-477.212" y2="535.5" gradientTransform="matrix(45.9619 45.9619 14.1421 -14.1421 14375.4189 29507.5312)">
	<stop  offset="0" style="stop-color:#4285F4"/>
	<stop  offset="1" style="stop-color:#40C3F4"/>
</linearGradient>
<polygon id="Combined-Shape" class="st0" points="46,17.7 46,46 46,46 0,0.1 28.3,0.1 "/>
<path id="灵活" class="st1" d="M25.9,7l4.8,4.8l0.8-0.8L26.5,6l0.6-0.6l5.7,5.7l-3.2,3.2l-5.8-5.8L24.3,8l5.2,5.2l0.8-0.8
	l-4.8-4.8L25.9,7z M24.1,10.1l0.3,0.8c-0.9,0.3-1.8,0.5-2.7,0.6l-0.1-0.8C22.3,10.6,23.2,10.4,24.1,10.1z M26.8,12.2
	c-0.3,0.3-0.7,0.6-1,0.9c-0.7,1.7-0.3,3.7,1.2,6.1l-0.8,0.3c-1.5-2.3-1.9-4.3-1.4-5.9c-1.5,0.5-3.4,0.1-5.7-1.2l0.3-0.8
	c2.2,1.4,4,1.7,5.4,1.1c0.4-0.2,0.8-0.5,1.3-1L26.8,12.2z M28.7,14.7l0.3,0.8c-0.9,0.3-1.8,0.5-2.6,0.5l-0.1-0.8
	C27,15.1,27.9,14.9,28.7,14.7z M34.7,17.3l2.4,2.4l1.3-1.3c-0.7-0.6-1.4-1.2-2.2-2l0.4-0.7c1.8,1.8,3.6,3.2,5.2,4l-0.2,0.8
	c-0.8-0.4-1.6-0.9-2.5-1.6l-1.4,1.4l2.4,2.4l-0.6,0.6l-2.4-2.4l-1.3,1.3l1.9,1.9l-3.4,3.4L33.7,27l0.4-0.4L31,23.3l-0.5,0.5
	l-0.6-0.6l3.4-3.4l1.9,1.9l1.3-1.3l-2.4-2.4L34.7,17.3z M31.6,22.8l3.2,3.2l1.8-1.8L33.4,21L31.6,22.8z M35.5,13.4
	c0.2,0.9,0.3,1.8,0.3,2.6L35,16c0-0.7-0.1-1.6-0.3-2.6L35.5,13.4z M33.3,15.3c0.2,1,0.2,1.9,0.2,2.7h-0.8c0-0.8,0-1.7-0.2-2.7
	L33.3,15.3z M32,18.5l0.3,0.8c-1.5,0.7-2.9,1.3-4.3,1.8l-0.3-0.9C29.2,19.7,30.6,19.2,32,18.5z"/>
</svg>
