<?xml version="1.0" encoding="utf-8"?>
<!-- Generator: Adobe Illustrator 22.0.1, SVG Export Plug-In . SVG Version: 6.00 Build 0)  -->
<svg version="1.1" id="图层_1" xmlns="http://www.w3.org/2000/svg" xmlns:xlink="http://www.w3.org/1999/xlink" x="0px" y="0px"
	 viewBox="0 0 46 47" style="enable-background:new 0 0 46 47;" xml:space="preserve">
<style type="text/css">
	.st0{fill:url(#Combined-Shape_1_);}
	.st1{fill:#FFFFFF;}
</style>
<linearGradient id="Combined-Shape_1_" gradientUnits="userSpaceOnUse" x1="-476.5164" y1="535.5" x2="-477.2048" y2="535.5" gradientTransform="matrix(45.9619 45.9619 14.1421 -14.1421 14375.3848 29507.6113)">
	<stop  offset="0" style="stop-color:#DD4600"/>
	<stop  offset="1" style="stop-color:#D76A31"/>
</linearGradient>
<polygon id="Combined-Shape" class="st0" points="46,17.8 46,46.1 46,46.1 0,0.1 28.3,0.1 "/>
<path id="稳定" class="st1" d="M25.3,5.7L25.8,5c1.1,0.9,2.1,1.6,3.2,2l-0.3,0.8c-0.4-0.2-0.9-0.5-1.3-0.7l-1.3,1.3l1,1L26.4,10
	l-1-1l-0.4,0.4c0,0.7,0,1.5-0.1,2.4L23.9,12c0.2-0.8,0.3-1.5,0.4-2l-3.9,3.9l-0.6-0.6l3.8-3.8c-1,0.5-2.1,0.8-3.2,1L21,9.5
	c1.3-0.1,2.6-0.5,3.8-1.2l-1.2-1.2l0.6-0.6l1.2,1.2l1.2-1.2C26.1,6.3,25.7,6,25.3,5.7z M28.5,16.3l-3.8-3.8l0.5-0.5l3.2,3.2l0.6-0.6
	L26,11.5l0.5-0.5l3.1,3.1l0.6-0.6l-3.1-3.1l0.5-0.5c-0.2,0-0.3,0-0.5-0.1l0.1-0.8c1.4,0.3,2.6,0.2,3.6-0.3l0.5,0.7
	c-0.3,0.1-0.5,0.2-0.8,0.3l1.9,1.9L32,11.9c-0.7,0.2-1.3,0.3-1.9,0.3l1.2,1.2L28.5,16.3z M29.7,9.7c-0.6,0.1-1.3,0.1-2,0l1.8,1.8
	c0.5,0,1.1-0.1,1.8-0.3L29.7,9.7z M28,16.6c-0.2,0.8-0.5,1.7-0.9,2.5l-0.7-0.3c0.4-0.9,0.7-1.8,0.9-2.6L28,16.6z M24,12.9l0.4,0.6
	c-0.8,0.5-1.6,0.9-2.4,1.2l-0.2-0.8C22.6,13.7,23.3,13.3,24,12.9z M24.5,17.7l-1.1-1.1c-0.5-0.5-0.4-1,0.1-1.5l1.5-1.5l0.6,0.6
	l-1.4,1.4c-0.2,0.2-0.2,0.5,0,0.7l0.8,0.8c0.1,0.1,0.3,0.2,0.4,0.2c0.2,0,0.4-0.2,0.8-0.5l0.4,0.7c-0.6,0.5-1,0.7-1.3,0.7
	C25,18.1,24.8,18,24.5,17.7z M26.4,14.7c-0.1,0.7-0.2,1.3-0.3,1.7l-0.7-0.1c0.1-0.5,0.2-1.1,0.3-1.8L26.4,14.7z M33.7,16.6l5,5
	l-0.6,0.6L36,20l-1.5,1.5L37,24l-0.6,0.6l-2.5-2.5l-1.8,1.8c0.5,0.7,1.2,1.4,2,2.3c0.4,0.4,0.9,0.9,1.4,1.3l-0.7,0.5l-1-1
	c-1.7-1.7-2.8-3.1-3.2-4.2c-0.3-0.8-0.3-1.7-0.1-2.6c-1.1,0.4-2.1,0.6-3.1,0.6l0.1-0.9c1.7-0.1,3.4-0.7,5.1-1.8l0.5,0.7
	c-0.6,0.4-1.2,0.8-1.8,1.1C31,21,31.1,22,31.5,22.8c0.1,0.1,0.1,0.2,0.2,0.3l3.7-3.7l-2.2-2.2L33.7,16.6z M41.4,20.9l-1.8,1.8
	L39,22.1l1.2-1.2l-5.8-5.8l-1.3,1.3l-0.6-0.6l1.8-1.8l3.2,3.2c0.2-0.4,0.3-0.9,0.4-1.3l0.8,0.6c-0.1,0.4-0.3,0.9-0.6,1.3L41.4,20.9z
	"/>
</svg>
