<?xml version="1.0" standalone="no"?><!DOCTYPE svg PUBLIC "-//W3C//DTD SVG 1.1//EN" "http://www.w3.org/Graphics/SVG/1.1/DTD/svg11.dtd"><svg t="1531121180503" class="icon" style="" viewBox="0 0 1024 1024" version="1.1" xmlns="http://www.w3.org/2000/svg" p-id="2389" xmlns:xlink="http://www.w3.org/1999/xlink" width="200" height="200"><defs><style type="text/css"></style></defs><path d="M765.44 222.72h-97.28v-23.04c0-12.8-10.24-23.04-25.6-23.04H588.8C578.56 148.48 550.4 128 519.68 128s-58.88 17.92-69.12 46.08h-53.76c-12.8 0-25.6 10.24-25.6 23.04v23.04h-97.28c-28.16 0-48.64 20.48-48.64 48.64V844.8c0 28.16 20.48 48.64 48.64 48.64h491.52c28.16 0 48.64-20.48 48.64-48.64V271.36c0-28.16-20.48-48.64-48.64-48.64z m-343.04 0h48.64c12.8 0 25.6-10.24 25.6-23.04s10.24-23.04 25.6-23.04 25.6 10.24 25.6 23.04 10.24 23.04 25.6 23.04h48.64v48.64h-197.12V222.72z m343.04 624.64H276.48V271.36h97.28v23.04c0 12.8 10.24 23.04 25.6 23.04h245.76c12.8 0 25.6-10.24 25.6-23.04v-23.04H768v576z m-71.68-432.64H348.16c-12.8 0-25.6 10.24-25.6 23.04s10.24 23.04 25.6 23.04H691.2c12.8 0 25.6-10.24 25.6-23.04s-10.24-23.04-23.04-23.04z m-197.12 94.72h-145.92c-12.8 0-25.6 10.24-25.6 23.04s10.24 23.04 25.6 23.04h145.92c12.8 0 25.6-10.24 25.6-23.04s-12.8-23.04-25.6-23.04z m0 97.28h-145.92c-12.8 0-25.6 10.24-25.6 23.04s10.24 23.04 25.6 23.04h145.92c12.8 0 25.6-10.24 25.6-23.04s-12.8-23.04-25.6-23.04z m0 94.72h-145.92c-12.8 0-25.6 10.24-25.6 23.04s10.24 23.04 25.6 23.04h145.92c12.8 0 25.6-10.24 25.6-23.04s-12.8-23.04-25.6-23.04z m145.92-71.68c-15.36 0-25.6-7.68-25.6-12.8s10.24-12.8 25.6-12.8c7.68 0 15.36 2.56 20.48 5.12 10.24 7.68 25.6 5.12 33.28-7.68 7.68-10.24 5.12-25.6-7.68-33.28-7.68-5.12-15.36-7.68-23.04-10.24v-28.16c0-12.8-10.24-23.04-25.6-23.04-12.8 0-25.6 10.24-25.6 23.04V563.2c-28.16 7.68-48.64 30.72-48.64 56.32 0 33.28 33.28 58.88 74.24 58.88 15.36 0 25.6 7.68 25.6 12.8s-10.24 12.8-25.6 12.8c-7.68 0-15.36-2.56-20.48-5.12-10.24-7.68-25.6-5.12-33.28 7.68-7.68 10.24-5.12 25.6 7.68 33.28 7.68 5.12 15.36 7.68 23.04 10.24v28.16c0 12.8 10.24 23.04 25.6 23.04 12.8 0 25.6-10.24 25.6-23.04v-28.16C696.32 737.28 716.8 716.8 716.8 691.2c0-33.28-33.28-61.44-74.24-61.44z" fill="#009EE5" p-id="2390"></path></svg>