<?xml version="1.0" standalone="no"?><!DOCTYPE svg PUBLIC "-//W3C//DTD SVG 1.1//EN" "http://www.w3.org/Graphics/SVG/1.1/DTD/svg11.dtd"><svg t="1531121197830" class="icon" style="" viewBox="0 0 1024 1024" version="1.1" xmlns="http://www.w3.org/2000/svg" p-id="2605" xmlns:xlink="http://www.w3.org/1999/xlink" width="200" height="200"><defs><style type="text/css"></style></defs><path d="M900.042105 579.368421c-10.778947-16.168421-29.642105-24.252632-48.505263-26.947368-18.863158-2.694737-37.726316 2.694737-53.894737 16.168421l-175.157894 134.736842c-16.168421 13.473684-37.726316 21.557895-59.284211 21.557895h-43.115789c32.336842-32.336842 51.2-75.452632 51.2-121.263158 0-13.473684-10.778947-24.252632-24.252632-24.252632h-269.473684v-24.252632c0-13.473684-10.778947-24.252632-24.252632-24.252631H158.989474c-13.473684 0-24.252632 10.778947-24.252632 24.252631v342.231579c0 8.084211 10.778947 18.863158 24.252632 18.863158h97.010526c13.473684 0 24.252632-10.778947 24.252632-24.252631v-24.252632h326.063157c26.947368 0 53.894737-8.084211 75.452632-26.947368l207.494737-161.684211c16.168421-10.778947 26.947368-29.642105 26.947368-48.505263 2.694737-18.863158-2.694737-37.726316-16.168421-51.2zM231.747368 867.705263H183.242105V573.978947h48.505263v293.726316z m635.957895-242.526316c0 5.389474-5.389474 13.473684-10.778947 16.168421l-207.494737 161.684211c-13.473684 10.778947-29.642105 16.168421-45.810526 16.168421h-323.368421v-194.021053h242.526315c-10.778947 56.589474-61.978947 97.010526-118.568421 97.010527-13.473684 0-24.252632 10.778947-24.252631 24.252631s10.778947 24.252632 24.252631 24.252632h161.684211c32.336842 0 64.673684-10.778947 88.926316-32.336842l175.157894-134.736842c5.389474-2.694737 10.778947-5.389474 16.168421-5.389474 5.389474 0 13.473684 5.389474 16.168421 10.778947 2.694737 5.389474 5.389474 10.778947 5.389474 16.168421z m-269.473684-245.221052c40.421053 0 72.757895 32.336842 72.757895 72.757894 0 32.336842-21.557895 59.284211-48.505263 70.063158v29.642106c0 13.473684-10.778947 24.252632-24.252632 24.252631s-24.252632-10.778947-24.252632-24.252631v-24.252632h-24.252631c-13.473684 0-24.252632-10.778947-24.252632-24.252632s10.778947-24.252632 24.252632-24.252631h48.505263c13.473684 0 24.252632-10.778947 24.252632-24.252632s-10.778947-24.252632-24.252632-24.252631c-40.421053 0-72.757895-32.336842-72.757895-72.757895 0-32.336842 21.557895-59.284211 48.505263-70.063158V256c0-13.473684 10.778947-24.252632 24.252632-24.252632s24.252632 10.778947 24.252632 24.252632v24.252632h24.252631c13.473684 0 24.252632 10.778947 24.252632 24.252631s-10.778947 24.252632-24.252632 24.252632h-48.505263c-13.473684 0-24.252632 10.778947-24.252632 24.252631s10.778947 26.947368 24.252632 26.947369z m0-245.221053c148.210526 0 269.473684 121.263158 269.473684 269.473684 0 37.726316-8.084211 72.757895-21.557895 107.789474-2.694737 8.084211-13.473684 16.168421-21.557894 16.168421-2.694737 0-5.389474 0-10.778948-2.694737-13.473684-5.389474-18.863158-18.863158-13.473684-32.336842 10.778947-26.947368 18.863158-56.589474 18.863158-88.926316 0-121.263158-99.705263-220.968421-220.968421-220.968421S377.263158 282.947368 377.263158 404.210526c0 29.642105 5.389474 59.284211 18.863158 88.926316 5.389474 13.473684 0 26.947368-13.473684 32.336842-13.473684 5.389474-26.947368 0-32.336843-13.473684-13.473684-35.031579-21.557895-70.063158-21.557894-107.789474 0-148.210526 121.263158-269.473684 269.473684-269.473684z" fill="#009EE5" p-id="2606"></path></svg>