<?xml version="1.0" standalone="no"?><!DOCTYPE svg PUBLIC "-//W3C//DTD SVG 1.1//EN" "http://www.w3.org/Graphics/SVG/1.1/DTD/svg11.dtd"><svg t="1531121194002" class="icon" style="" viewBox="0 0 1024 1024" version="1.1" xmlns="http://www.w3.org/2000/svg" p-id="2497" xmlns:xlink="http://www.w3.org/1999/xlink" width="200" height="200"><defs><style type="text/css"></style></defs><path d="M865.010526 331.452632c26.947368 0 51.2 21.557895 51.2 51.2v401.515789c0 26.947368-21.557895 51.2-51.2 51.2H158.989474c-26.947368 0-51.2-21.557895-51.2-51.2V382.652632c0-26.947368 21.557895-51.2 51.2-51.2h102.4c13.473684 0 24.252632 10.778947 24.252631 24.252631s-10.778947 24.252632-24.252631 24.252632H158.989474V781.473684h706.021052V382.652632h-202.105263c-13.473684 0-24.252632-10.778947-24.252631-24.252632s10.778947-24.252632 24.252631-24.252632h202.105263z m-126.652631 150.905263c13.473684 0 24.252632 10.778947 24.252631 24.252631s-10.778947 24.252632-24.252631 24.252632h-150.905263c-13.473684 0-24.252632-10.778947-24.252632-24.252632s10.778947-24.252632 24.252632-24.252631h150.905263z m0 150.905263c13.473684 0 24.252632 10.778947 24.252631 24.252631s-10.778947 24.252632-24.252631 24.252632h-404.210527c-13.473684 0-24.252632-10.778947-24.252631-24.252632s10.778947-24.252632 24.252631-24.252631h404.210527z m-8.084211-474.273684c10.778947 10.778947 10.778947 26.947368 0 35.031579l-70.063158 70.063158-250.610526 247.915789c-2.694737 2.694737-5.389474 5.389474-10.778947 5.389474l-107.789474 35.031579h-8.084211c-5.389474 0-13.473684-2.694737-18.863157-8.084211-8.084211-8.084211-8.084211-16.168421-5.389474-26.947368l35.031579-107.789474c0-2.694737 2.694737-8.084211 5.389473-10.778947L625.178947 88.926316c10.778947-10.778947 26.947368-10.778947 35.031579 0l70.063158 70.063158zM377.263158 474.273684l229.052631-226.357895-35.031578-35.031578-229.052632 226.357894-18.863158 53.894737 53.894737-18.863158z m264.08421-261.389473l35.031579-35.031579-35.031579-35.031579-35.031579 35.031579 35.031579 35.031579z" fill="#009EE5" p-id="2498"></path></svg>