<?xml version="1.0" encoding="utf-8"?>
<!-- Generator: Adobe Illustrator 22.0.1, SVG Export Plug-In . SVG Version: 6.00 Build 0)  -->
<svg version="1.1" id="图层_1" xmlns="http://www.w3.org/2000/svg" xmlns:xlink="http://www.w3.org/1999/xlink" x="0px" y="0px"
	 viewBox="0 0 100 21" style="enable-background:new 0 0 100 21;" xml:space="preserve">
<style type="text/css">
	.st0{fill:#CACACA;}
</style>
<path class="st0" d="M11.4,0c0.6,0.1,1.1,0.2,1.7,0.3c0.2,0,0.3,0.1,0.5,0.2c-1,0.1-2.1,0.4-3,0.8C7.8,2.5,5.8,4.6,4.5,7.2
	C3.6,8.9,3,10.7,2.9,12.6c-0.1,1.5,0.1,2.9,0.7,4.2c1.2,2.4,3.8,3.4,6.5,2.5c2-0.7,3.4-2.2,4.2-4.1c0.6-1.2,0.9-2.4,1-3.7
	c0-0.1,0-0.2,0.1-0.4c0.9,0,1.8,0,2.7,0s1.8,0.1,2.7-0.4c-0.1,0.8-0.2,1.7-0.4,2.5c-1.2,4.3-4.7,7.3-9.1,7.7c-0.1,0-0.1,0-0.2,0.1
	H9.6c-0.1,0-0.1-0.1-0.2-0.1c-4.3-0.4-8-3.5-9.1-7.8C0.2,12.6,0.1,12,0,11.5V9.4l0.1-0.1c0.5-4.4,3.5-7.9,7.8-9
	c0.5-0.1,1-0.2,1.5-0.3C9.4,0,11.4,0,11.4,0z M100,2.6c-0.2,0.7-0.7,0.9-1.4,0.8c-0.3,0-0.5,0-0.9,0c0.4,0.7,0.8,1.3,1.2,2
	c-0.6,0-1.2,0-1.8,0c-0.2,0-0.4-0.2-0.5-0.4c-0.3-0.4-0.5-0.8-0.8-1.2c-0.1-0.2-0.3-0.3-0.6-0.3c-0.9,0-1.9,0-2.8,0H92v-1h3
	c-0.3-0.5-0.5-0.9-0.8-1.3c0.6,0,1.2,0,1.8,0c0.2,0,0.3,0.1,0.5,0.2c0.1,0,0.1,0.1,0.1,0.2c0.3,0.8,0.8,1,1.6,0.9
	c0.6-0.1,1.2,0,1.8,0V2.6z M100,1.4c-0.1,0.5-0.5,0.7-1,0.7s-1,0-1.5,0c0-0.6,0.2-0.8,0.7-0.8c0.6,0,1.2,0,1.8,0V1.4z M21.4,6.4
	c0.3,2.2-1.1,3.8-3.3,3.8c-2.1,0-4.2,0-6.3-0.1c-0.1,0-0.3,0-0.4,0c-0.3,1.4-0.6,2.7-0.9,4c-0.1,0.4-0.2,0.8-0.3,1.2
	c-0.4,1.3-1.4,2-2.7,2.2c-0.7,0.1-1.3-0.1-2-0.1c-0.1,0-0.2-0.1-0.3-0.1C6.1,16,6.3,14.5,6.6,13c0.3-1.2,0.5-2.4,0.8-3.6
	c0.5-2,1.8-3,3.9-3c2.8,0,5.7,0.1,8.5,0.1C20.2,6.5,20.8,6.4,21.4,6.4 M59.8,4.7h-5.6c-0.1,1-0.2,2-0.3,3h5.6
	C59.6,6.7,59.7,5.7,59.8,4.7z M61.8,3.5c-0.2,2.2-0.5,4.3-0.7,6.4h1c0.1,0.7-0.3,1.1-0.9,1.1c-3.2,0-6.4,0-9.6,0c0,0-0.1,0-0.2,0
	V9.9h7.7c0-0.4,0.1-0.7,0.1-1.1h-7.5c0.2-2.2,0.5-4.3,0.7-6.5h-1v-1c3.5,0,7.1,0,10.6,0c0,0.7-0.3,1.1-1,1.1c-2.1,0-4.2,0-6.3,0
	h-0.4c0,0.4-0.1,0.8-0.1,1.2h7.6V3.5z M10.2,5.2c0.1-1.4,0.9-3.2,2.4-3.7c0.3-0.1,0.7-0.2,1-0.2c2.2,0,4.4,0,6.6,0
	c0.7,0,1.4-0.1,2.1-0.2c0,1.3-0.6,3.2-2.4,3.5c-0.3,0-0.5,0.1-0.8,0.1c-2.4,0-4.8,0-7.1,0C11.4,4.7,10.8,4.8,10.2,5.2 M66,9.3h1.3
	V7.7H66V9.3z M66,6.6h1.3V5H66V6.6z M66,3.9h1.3V2.3H66V3.9z M68.9,9.3c0.2,0,0.4,0,0.6,0c-0.1,0.4-0.1,0.7-0.5,1
	c-0.1,0-0.1,0.2-0.1,0.3s0,0.3,0,0.5h-1.5c0-0.2,0-0.4,0-0.7h-1.6h-1.6v-1c0.1,0,0.2,0,0.3-0.1v-7c-0.1,0-0.2,0-0.3-0.1v-1h5.3
	c-0.1,0.4-0.1,0.8-0.5,1c-0.1,0-0.1,0.2-0.1,0.3c0,2.2,0,4.5,0,6.7C68.9,9.2,68.9,9.2,68.9,9.3z M38.5,11.1c0.8-2.3,1.6-4.5,2.4-6.8
	c-0.7,0-1.3,0-1.9,0c-0.5,0-0.7-0.3-0.6-0.7c0.2-0.8,0.5-1.5,0.8-2.2c0-0.1,0.2-0.2,0.2-0.2c0.6,0,1.1,0,1.7,0
	c-0.3,0.7-0.5,1.4-0.8,2.2c0.3,0,0.5,0,0.7,0c0.1,0,0.2-0.1,0.2-0.2C41.6,2.6,41.8,2,42,1.4c0.1-0.2,0.1-0.3,0.4-0.3
	c0.6,0,1.2,0,1.8,0c-0.3,0.7-0.5,1.4-0.8,2.2h6.1c-0.1,0.6-0.4,0.9-1,0.9c-1.7,0-3.4,0-5.1,0h-0.3c-0.2,0.6-0.4,1.2-0.6,1.8
	c-0.5,1.3-1,2.7-1.4,4c-0.3,0.8-0.7,1-1.4,1C39.2,11.1,38.9,11.1,38.5,11.1 M33.8,2.2h3.6c0,0.5-0.3,0.8-0.7,0.9c-0.2,0-0.3,0-0.5,0
	c-2,0-4,0-6,0c-0.7,0-0.9,0.1-0.9,0.9c-0.1,1.7-0.2,3.4-0.2,5.1c0,0.1,0,0.2,0,0.3c-0.1,1-0.4,1.4-1.4,1.6c-0.3,0.1-0.7,0.1-1.1,0.2
	c0-0.9,0.1-1.7,0.1-2.5c0.1-1.8,0.1-3.5,0.2-5.3c0-0.1,0-0.2,0-0.3c0.1-0.7,0.4-1,1.1-1c1,0,2.1,0,3.1,0c0.1,0,0.2,0,0.4,0
	c-0.1-0.5-0.1-0.9-0.2-1.4c0.6,0,1.1,0,1.6,0c0.4,0,0.6,0.3,0.7,0.7C33.8,1.8,33.8,2,33.8,2.2 M71.3,7.4h-1.8v-1h1.9V4.3h-1.9v-1
	h5.4v1H73v2.1h1.9v1h-1.8c0.6,1.2,1.1,2.4,1.7,3.6c-0.4,0-0.8,0-1.2,0c-0.3,0-0.5-0.2-0.6-0.5c-0.2-0.4-0.4-0.9-0.6-1.3
	c0-0.1-0.1-0.2-0.2-0.3c-0.2,0.5-0.5,1-0.7,1.5c-0.2,0.4-0.5,0.7-1,0.6c-0.3,0-0.6,0-0.9,0C70.2,9.9,70.7,8.7,71.3,7.4 M46.4,6.3
	h-3.3c0.1-0.3,0.2-0.6,0.3-0.8c0-0.1,0.1-0.1,0.2-0.1c1.8,0,3.7,0,5.5,0c0,0,0,0,0.1,0c0,0.5,0,1-0.4,1.4c-0.6,0.6-1.3,1.2-1.9,1.8
	c0.9,0.8,1.8,1.6,2.7,2.4c-0.8,0-1.6,0.1-2.4,0c-0.3,0-0.7-0.3-1-0.5c-0.2-0.2-0.5-0.4-0.7-0.6c-1,1.3-2.4,1.2-3.9,1.2
	c0.9-0.8,1.7-1.6,2.6-2.4c-0.4-0.4-0.8-0.7-1.3-1.2c0.6,0,1.1-0.1,1.5,0c0.7,0.1,1.3-0.1,1.7-0.7C46.2,6.6,46.3,6.5,46.4,6.3
	C46.4,6.4,46.4,6.4,46.4,6.3 M51.9,17.1c0-0.5,0-1,0-1.5c0-0.4-0.1-0.6-0.5-0.6c-0.5,0-1.1,0-1.6,0c-0.4,0-0.5,0.2-0.5,0.6
	c0,1,0,2,0,3c0,0.4,0.2,0.6,0.6,0.6c0.5,0,1.1,0,1.6,0c0.4,0,0.5-0.2,0.5-0.6C51.9,18.1,51.9,17.6,51.9,17.1 M50.6,20
	c-0.6,0-1.2,0-1.9,0c-0.8,0-1.1-0.5-1.1-1.2c0-1.1,0-2.2,0-3.3c0-0.8,0.3-1.2,1.1-1.3c1.3,0,2.5,0,3.8,0c0.8,0,1.1,0.5,1.1,1.2
	c0,1.1,0,2.2,0,3.3c0,0.8-0.4,1.2-1.2,1.3c-0.1,0-0.2,0-0.3,0C51.6,20,51.1,20,50.6,20L50.6,20 M29.5,16.4c0.9,0,1.8,0,2.7,0
	c0.4,0,0.6,0.2,0.6,0.6c0,0.8,0,1.5,0,2.3c0,0.3-0.2,0.5-0.5,0.6c-0.2,0-0.3,0.1-0.5,0.1c-1.2,0-2.4,0-3.6,0c-0.9,0-1.3-0.3-1.3-1.3
	s0-2.1,0-3.1s0.4-1.4,1.4-1.4c1.5,0,3,0,4.5,0C32.7,14.8,32.6,15,32,15c-0.9,0-1.8,0-2.7,0c-0.7,0-0.8,0.2-0.8,0.9
	c0,0.9,0,1.7,0,2.6c0,0.5,0.1,0.7,0.6,0.7c0.6,0,1.1,0,1.7,0c0.3,0,0.4-0.1,0.4-0.4c0-0.4,0-0.8,0-1.1c0-0.2-0.1-0.3-0.3-0.3
	c-0.2,0-0.4,0-0.6,0C29.7,17.2,29.6,17.1,29.5,16.4 M67.1,18.5v-4.3H68V20c-0.6,0-1.2,0.1-1.7,0c-0.2,0-0.5-0.3-0.6-0.6
	c-0.6-1.1-1.2-2.3-1.8-3.4c-0.1-0.1-0.1-0.2-0.2-0.3V20h-1v-5.8c0.6,0,1.1,0,1.6,0c0.4,0,0.6,0.3,0.8,0.6c0.6,1.2,1.2,2.3,1.8,3.5
	C66.9,18.4,66.9,18.4,67.1,18.5C67,18.5,67,18.5,67.1,18.5 M80.1,11.1v-1h1v-9h2v0.4c0,2.9,0,5.7,0,8.6c0,0.2,0,0.4-0.1,0.6
	c-0.1,0.3-0.3,0.5-0.5,0.5C81.6,11.2,80.9,11.1,80.1,11.1 M91.5,9.3h-1.9c0-0.5,0-1.1,0-1.6c0-0.4,0-0.8,0-1.3
	c0-0.4,0.2-0.6,0.6-0.6c0.1,0,0.2,0,0.3,0c3,0,5.9,0,8.9,0c0.1,0,0.2,0,0.3,0v3.5h-1.9V6.9c-0.1,0-0.2,0-0.3,0c-1.9,0-3.7,0-5.6,0
	c-0.3,0-0.4,0.1-0.4,0.4C91.5,8,91.5,8.6,91.5,9.3 M57.8,15.2c-0.3,0.7-0.5,1.2-0.8,1.8h1.6C58.3,16.4,58.1,15.8,57.8,15.2 M54.6,20
	c0.6-1.4,1.2-2.8,1.8-4.2c0.2-0.4,0.3-0.7,0.5-1.1c0.2-0.4,0.5-0.6,0.9-0.6c0.3,0,0.5,0,0.8,0c0.5,0,0.8,0.2,1,0.7
	c0.6,1.5,1.3,3,1.9,4.6c0.1,0.2,0.2,0.4,0.3,0.7c-0.6,0-1.1,0-1.6-0.1c-0.2,0-0.4-0.3-0.5-0.5c-0.2-0.4-0.4-0.9-0.6-1.4
	c0-0.1-0.2-0.2-0.3-0.2c-0.5,0-1,0-1.5,0c-0.4,0-0.6,0.2-0.8,0.5c-0.2,0.5-0.4,1-0.6,1.4c0,0.1-0.2,0.2-0.3,0.2
	C55.2,20,55,20,54.6,20 M79.7,1.6c-0.1,0.9-0.2,1.8-0.3,2.6C79.1,6.1,78.8,8,78.6,10c-0.1,0.5-0.3,0.8-0.9,0.8c-0.3,0-0.6,0-0.9,0
	c0,0-0.1,0-0.2,0c0-0.4,0.1-0.8,0.1-1.2c0.3-2.4,0.6-4.9,0.9-7.3c0.1-0.4,0.2-0.6,0.6-0.6C78.7,1.6,79.2,1.6,79.7,1.6 M87.5,10.7
	c-0.4,0-0.8,0-1.2,0c-0.5,0-0.7-0.2-0.8-0.7c-0.3-1.9-0.5-3.8-0.7-5.7c-0.1-0.8-0.2-1.6-0.3-2.4c0-0.1,0-0.2,0-0.3c0.5,0,1,0,1.5,0
	c0.3,0,0.4,0.3,0.4,0.5c0.2,1.8,0.5,3.6,0.7,5.4C87.3,8.6,87.4,9.6,87.5,10.7 M89.5,11.1c0.9-0.5,1.7-1.1,2.6-1.6
	c0.4-0.3,0.8-0.5,1.2-0.8c0.2-0.1,0.3-0.3,0.3-0.5c0-0.3,0-0.5,0-0.8h2.1c0,0.3,0,0.5,0,0.8s0.1,0.4,0.3,0.6
	c1.2,0.7,2.4,1.5,3.5,2.2c0.1,0.1,0.2,0.1,0.3,0.3h-0.7c-0.6,0-1.2,0-1.9,0c-0.4,0-0.7-0.1-1-0.3c-0.5-0.3-0.9-0.6-1.4-0.9
	c-0.2-0.1-0.3-0.1-0.5,0c-0.5,0.3-1,0.7-1.5,1c-0.2,0.1-0.4,0.2-0.6,0.2C91.4,11.2,90.4,11.2,89.5,11.1L89.5,11.1 M36.1,20
	c-0.5,0-1,0-1.5,0c-0.1,0-0.2,0-0.3,0v-0.6c0-1.3,0-2.6,0-3.9c0-0.8,0.4-1.3,1.2-1.3c1.5,0,2.9,0,4.4,0c0,0.6-0.2,0.8-0.8,0.8
	c-0.7,0-1.5,0-2.2,0c-0.6,0-0.8,0.1-0.8,0.8c0,0.2,0,0.4,0,0.6H40c0,0.6-0.2,0.8-0.7,0.8c-0.8,0-1.6,0-2.4,0c-0.5,0-0.7,0.1-0.7,0.7
	C36.1,18.6,36.1,19.3,36.1,20 M46.9,20c-1.6,0-3.1,0-4.7,0c-0.6,0-0.9-0.5-0.9-1c0-1.6,0-3.1,0-4.7h1.8v0.4c0,1.3,0,2.6,0,3.9
	c0,0.5,0.1,0.7,0.7,0.7c0.8,0,1.6,0,2.4,0C46.7,19.2,46.8,19.4,46.9,20 M92.2,1.2C92.2,1.3,92.2,1.3,92.2,1.2
	c-0.7,0.9-0.7,1.9-0.6,2.8c0,0.4,0,0.9,0,1.3h-1.8V3.8h-0.9c0.3-0.5,0.5-1,0.8-1.5c0.6-1.2,0.4-1.1,1.7-1.1
	C91.7,1.2,91.9,1.2,92.2,1.2 M49.1,1.3c-0.1,0.9-0.4,1.2-1.2,1.2c-0.9,0-1.9,0-2.9,0c0.1-0.2,0.1-0.4,0.1-0.6
	c0.1-0.3,0.3-0.6,0.7-0.6C46.9,1.3,48,1.3,49.1,1.3 M69.6,1.1c0.5,0,0.9,0,1.3,0c0.2,0,0.4,0.2,0.4,0.3c0.2,0.5,0.3,1,0.5,1.5
	c-0.5,0-0.9,0-1.3,0c-0.1,0-0.3-0.2-0.3-0.3C70,2.2,69.8,1.6,69.6,1.1 M72.7,3c0.2-0.5,0.3-1,0.5-1.5c0.1-0.3,0.2-0.4,0.5-0.4
	c0.4,0,0.8,0,1.2,0c-0.2,0.5-0.3,1.1-0.6,1.5c0,0.2-0.3,0.3-0.4,0.4C73.5,3,73.1,3,72.7,3"/>
</svg>
