<?xml version="1.0" encoding="utf-8"?>
<!-- Generator: Adobe Illustrator 22.0.1, SVG Export Plug-In . SVG Version: 6.00 Build 0)  -->
<svg version="1.0" id="图层_1" xmlns="http://www.w3.org/2000/svg" xmlns:xlink="http://www.w3.org/1999/xlink" x="0px" y="0px"
	 viewBox="0 0 1024 1024" style="enable-background:new 0 0 1024 1024;" xml:space="preserve">
<g>
	<path fill="#fff" d="M511.8,63.9C264.9,63.9,64,264.2,64,510.3c0,246.1,200.9,446.4,447.8,446.4c246.9,0,447.8-200.2,447.8-446.4
		C959.6,264.2,758.7,63.9,511.8,63.9z M511.8,916.9c-225,0-408-182.4-408-406.6s183-406.6,408-406.6s408,182.4,408,406.6
		S736.8,916.9,511.8,916.9z"/>
	<ellipse fill="#fff" transform="matrix(0.7071 -0.7071 0.7071 0.7071 -344.6443 566.7609)" cx="511.8" cy="699.4" rx="46.3" ry="46.3"/>
	<path fill="#fff" d="M513.8,251.6c-28.1,0-49.5,20.7-48.3,46.2L479.1,576c1.2,25.2,16.8,46.2,34.8,46.2c18.1,0,33.5-20.7,34.8-46.2l13.5-278.2
		C563.3,272.6,541.7,251.6,513.8,251.6z"/>
</g>
<g>
</g>
<g>
</g>
<g>
</g>
<g>
</g>
<g>
</g>
</svg>
