<?xml version="1.0" standalone="no"?><!DOCTYPE svg PUBLIC "-//W3C//DTD SVG 1.1//EN" "http://www.w3.org/Graphics/SVG/1.1/DTD/svg11.dtd"><svg t="1527230830803" class="icon" style="" viewBox="0 0 1024 1024" version="1.1" xmlns="http://www.w3.org/2000/svg" p-id="2469" xmlns:xlink="http://www.w3.org/1999/xlink" width="200" height="200"><defs><style type="text/css"></style></defs><path d="M785.066667 1024h-546.133334C109.226667 1024 0 914.773333 0 785.066667v-546.133334C0 109.226667 109.226667 0 238.933333 0h546.133334C914.773333 0 1024 109.226667 1024 238.933333v546.133334c0 129.706667-109.226667 238.933333-238.933333 238.933333z" fill="#009EE5" p-id="2470"></path><path d="M95.573333 566.613333s-6.826667-6.826667 0-13.653333l34.133334-47.786667c0-6.826667 6.826667-6.826667 13.653333 0L341.333333 655.36c13.653333 6.826667 27.306667 6.826667 40.96 0l498.346667-416.426667h13.653333l27.306667 34.133334v13.653333l-552.96 546.133333c-6.826667 6.826667-20.48 6.826667-20.48 0L95.573333 566.613333z" fill="#FFFFFF" p-id="2471"></path></svg>