<?xml version="1.0" standalone="no"?><!DOCTYPE svg PUBLIC "-//W3C//DTD SVG 1.1//EN" "http://www.w3.org/Graphics/SVG/1.1/DTD/svg11.dtd"><svg t="1527230835017" class="icon" style="" viewBox="0 0 1024 1024" version="1.1" xmlns="http://www.w3.org/2000/svg" p-id="2578" xmlns:xlink="http://www.w3.org/1999/xlink" width="200" height="200"><defs><style type="text/css"></style></defs><path d="M785.066667 1024h-546.133334C109.226667 1024 0 914.773333 0 785.066667v-546.133334C0 109.226667 109.226667 0 238.933333 0h546.133334C914.773333 0 1024 109.226667 1024 238.933333v546.133334c0 129.706667-109.226667 238.933333-238.933333 238.933333z m-546.133334-955.733333C143.36 68.266667 68.266667 143.36 68.266667 238.933333v546.133334C68.266667 880.64 143.36 955.733333 238.933333 955.733333h546.133334c95.573333 0 170.666667-75.093333 170.666666-170.666666v-546.133334C955.733333 143.36 880.64 68.266667 785.066667 68.266667h-546.133334z" fill="#DFDFDF" p-id="2579"></path></svg>