<?xml version="1.0" standalone="no"?><!DOCTYPE svg PUBLIC "-//W3C//DTD SVG 1.1//EN" "http://www.w3.org/Graphics/SVG/1.1/DTD/svg11.dtd"><svg t="1525874568982" class="icon" style="" viewBox="0 0 1024 1024" version="1.1" xmlns="http://www.w3.org/2000/svg" p-id="2577" xmlns:xlink="http://www.w3.org/1999/xlink" width="200" height="200"><defs><style type="text/css"></style></defs><path d="M511.8 64C264.5 64 64 264.5 64 511.8s200.5 447.8 447.8 447.8 447.8-200.5 447.8-447.8S759.1 64 511.8 64z m179.7 567.5c16.5 16.5 16.5 43.4 0 59.9s-43.4 16.5-59.9 0L511.8 571.6 392 691.4c-16.5 16.5-43.4 16.5-59.9 0s-16.5-43.4 0-59.9l119.8-119.7L332.1 392c-16.5-16.5-16.5-43.4 0-59.9s43.4-16.5 59.9 0l119.8 119.7 119.8-119.7c16.5-16.5 43.4-16.5 59.9 0s16.5 43.4 0 59.9L571.7 511.8l119.8 119.7z" fill="#CCCCCC" p-id="2578"></path><path d="M511.8 451.8L392 332.1c-16.5-16.5-43.4-16.5-59.9 0s-16.5 43.4 0 59.9l119.8 119.8-119.8 119.7c-16.5 16.5-16.5 43.4 0 59.9s43.4 16.5 59.9 0l119.8-119.8 119.8 119.8c16.5 16.5 43.4 16.5 59.9 0s16.5-43.4 0-59.9L571.7 511.8 691.5 392c16.5-16.5 16.5-43.4 0-59.9s-43.4-16.5-59.9 0L511.8 451.8z" fill="#FFFFFF" p-id="2579"></path></svg>