<?xml version="1.0" encoding="utf-8"?>
<!-- Generator: Adobe Illustrator 22.0.1, SVG Export Plug-In . SVG Version: 6.00 Build 0)  -->
<svg version="1.1" id="图层_1" xmlns="http://www.w3.org/2000/svg" xmlns:xlink="http://www.w3.org/1999/xlink" x="0px" y="0px"
	 viewBox="0 0 8.8 16.1" style="enable-background:new 0 0 8.8 16.1;" xml:space="preserve">
<path fill="#999" d="M0.2,1.2c-0.3-0.3-0.3-0.8,0-1c0.3-0.3,0.8-0.3,1,0l7.3,7.3c0.3,0.3,0.3,0.8,0,1c-0.3,0.3-0.8,0.3-1,0L0.2,1.2z"/>
<path fill="#999" d="M7.5,7.5c0.3-0.3,0.8-0.3,1,0c0.3,0.3,0.3,0.8,0,1l-7.3,7.3c-0.3,0.3-0.8,0.3-1,0c-0.3-0.3-0.3-0.8,0-1L7.5,7.5z"/>
</svg>
