<?xml version="1.0" encoding="utf-8"?>
<!-- Generator: Adobe Illustrator 19.0.0, SVG Export Plug-In . SVG Version: 6.00 Build 0)  -->
<svg version="1.1" id="图层_1" xmlns="http://www.w3.org/2000/svg" xmlns:xlink="http://www.w3.org/1999/xlink" x="0px" y="0px"
	 viewBox="0 0 317.6 64.4" style="enable-background:new 0 0 317.6 64.4;" xml:space="preserve">
<style type="text/css">
	.st0{fill-rule:evenodd;clip-rule:evenodd;fill:none;}
	.st1{fill:none;stroke:#BB2E26;stroke-width:1.5773;}
	.st2{fill:#231815;}
	.st3{fill:#BB2E26;}
</style>
<g id="XMLID_14_">
	<rect id="XMLID_110_" x="269.2" y="45.8" class="st0" width="9" height="2.7"/>
	<rect id="XMLID_109_" x="269.2" y="40.5" class="st0" width="9" height="2.7"/>
	<g id="XMLID_15_">
		<line id="XMLID_108_" class="st1" x1="86.5" y1="44.7" x2="317.6" y2="44.7"/>
		<g id="XMLID_48_">
			<polygon id="XMLID_107_" class="st2" points="91,61.7 90.1,61.7 90.1,53.7 91.1,53.7 			"/>
			<polygon id="XMLID_106_" class="st2" points="97.2,53.7 98.2,53.8 98.1,61.7 97.1,61.7 93.6,55.3 93.6,55.3 93.5,61.7 92.6,61.7 
				92.7,53.7 93.8,53.7 97.2,60.1 97.2,60.1 			"/>
			<path id="XMLID_103_" class="st2" d="M99.7,53.8l2.8,0c1.8,0,2.9,1.6,2.9,3.9c0,1.8-0.7,4.1-3,4.1l-2.8,0L99.7,53.8 M100.6,60.8
				l1.8,0c1.2,0,2-1.1,2-3.1c0-2-0.8-3-2.1-3l-1.7,0L100.6,60.8z"/>
			<path id="XMLID_102_" class="st2" d="M112.1,53.8l0,5.1c0,1.6-0.9,3-2.8,3c-1.9,0-2.7-1.4-2.7-2.9l0-5.3l0.9,0l0,5
				c0,1.7,0.9,2.2,1.8,2.2c0.9,0,1.8-0.4,1.8-2.2l0-5L112.1,53.8z"/>
			<path id="XMLID_101_" class="st2" d="M117.7,56.1c0-1.2-0.9-1.6-1.7-1.6c-0.6,0-1.6,0.2-1.6,1.4c0,0.7,0.4,0.9,0.8,1l2,0.5
				c0.9,0.2,1.6,0.9,1.6,2.1c0,1.9-1.5,2.4-2.7,2.4c-1.3,0-1.8-0.4-2.1-0.8c-0.6-0.6-0.7-1.3-0.7-2h0.9c0,1.4,1,1.9,1.9,1.9
				c0.7,0,1.8-0.2,1.8-1.3c0-0.8-0.3-1.1-1.5-1.4l-1.4-0.4c-0.5-0.1-1.5-0.5-1.5-1.9c0-1.2,0.7-2.4,2.4-2.4c2.4,0,2.7,1.7,2.7,2.5
				L117.7,56.1z"/>
			<polygon id="XMLID_100_" class="st2" points="119.4,53.8 125,53.8 125,54.8 122.7,54.8 122.6,61.7 121.7,61.7 121.7,54.8 
				119.4,54.8 			"/>
			<path id="XMLID_97_" class="st2" d="M126.9,61.7l-0.9,0l0-7.9l3.2,0c1.1,0,2.3,0.5,2.3,2.1c0,1.2-0.5,1.6-1,1.9
				c0.4,0.2,0.8,0.4,0.8,1.5l0.1,1.4c0,0.4,0.1,0.6,0.3,0.8v0.2l-1.1,0c-0.1-0.5-0.2-1.7-0.2-2c0-0.6-0.1-1.4-1.2-1.4h-2.3
				L126.9,61.7 M126.9,57.4l2.2,0c0.7,0,1.4-0.2,1.4-1.4c0-1.2-0.8-1.3-1.2-1.3l-2.3,0L126.9,57.4z"/>
			<polygon id="XMLID_96_" class="st2" points="133.9,61.8 133,61.8 133,53.8 133.9,53.8 			"/>
			<path id="XMLID_93_" class="st2" d="M136.6,59.5l-0.7,2.3h-1l2.6-7.9h1.1l2.5,7.9h-1l-0.7-2.3L136.6,59.5 M139,58.5l-1-3.5h0
				l-1.1,3.5L139,58.5z"/>
			<polygon id="XMLID_92_" class="st2" points="142.9,60.8 146.4,60.9 146.4,61.8 141.9,61.8 141.9,53.9 142.9,53.9 			"/>
			<path id="XMLID_89_" class="st2" d="M151.1,59.5l-0.7,2.3h-1l2.6-7.9l1.1,0l2.5,7.9h-1l-0.7-2.3L151.1,59.5 M153.5,58.6l-1-3.5h0
				l-1.1,3.5L153.5,58.6z"/>
			<polygon id="XMLID_88_" class="st2" points="161,53.9 161.9,53.9 161.9,61.8 160.9,61.8 157.3,55.4 157.3,55.4 157.3,61.8 
				156.4,61.8 156.4,53.9 157.5,53.9 161,60.3 161,60.3 			"/>
			<path id="XMLID_85_" class="st2" d="M163.4,53.9l2.8,0c1.8,0,2.9,1.6,2.9,3.9c0,1.8-0.7,4.1-3,4.1l-2.8,0L163.4,53.9 M164.4,60.9
				l1.8,0c1.2,0,2-1.1,2-3.1c0-2-0.8-3-2.1-3l-1.7,0L164.4,60.9z"/>
			<path id="XMLID_84_" class="st2" d="M177.9,56.3c-0.3-1.4-1.3-1.6-1.9-1.6c-1.3,0-2.3,1-2.3,3.1c0,1.9,0.6,3.3,2.3,3.3
				c0.6,0,1.7-0.3,2-2.2h0.9c-0.4,3-2.5,3.1-3,3.1c-1.6,0-3.1-1.2-3.1-4.2c0-2.4,1.2-4.1,3.2-4.1c1.8,0,2.7,1.3,2.8,2.6H177.9z"/>
			<path id="XMLID_81_" class="st2" d="M183,62.1c-2.6,0-3.4-2.5-3.4-4.2c0-1.7,0.8-4.2,3.4-4.2c2.6,0,3.4,2.5,3.4,4.2
				C186.4,59.7,185.6,62.1,183,62.1 M183,54.7c-1.5,0-2.4,1.4-2.4,3.2c0,1.9,0.9,3.2,2.4,3.2c1.5,0,2.4-1.3,2.4-3.2
				C185.4,56.1,184.5,54.7,183,54.7z"/>
			<path id="XMLID_80_" class="st2" d="M193.2,61.9l0-4.7c0-0.2,0-1.2,0-2h0l-2,6.6h-0.9l-1.9-6.6l0,0c0,0.7,0,1.7,0,2l0,4.7h-0.9
				l0-7.9l1.3,0l2,6.7h0l2-6.7l1.3,0l0,7.9H193.2z"/>
			<path id="XMLID_79_" class="st2" d="M201.2,61.9l0-4.7c0-0.2,0-1.2,0-2h0l-2,6.6l-0.9,0l-1.9-6.6h0c0,0.7,0,1.7,0,2l0,4.7h-0.9
				l0-7.9l1.3,0l2,6.7h0l2-6.7l1.3,0l0,7.9H201.2z"/>
			<polygon id="XMLID_78_" class="st2" points="208.8,62 203.6,62 203.7,54 208.7,54 208.7,55 204.6,55 204.6,57.4 208.4,57.4 
				208.4,58.4 204.6,58.4 204.6,61 208.8,61 			"/>
			<path id="XMLID_75_" class="st2" d="M211,62h-0.9l0-7.9l3.2,0c1.1,0,2.3,0.5,2.3,2.1c0,1.2-0.5,1.6-1,1.9
				c0.4,0.2,0.8,0.4,0.8,1.5l0.1,1.4c0,0.4,0.1,0.6,0.4,0.8l0,0.2h-1.1c-0.1-0.5-0.2-1.7-0.2-2c0-0.7-0.1-1.4-1.2-1.4l-2.3,0L211,62
				 M211,57.7l2.2,0c0.7,0,1.4-0.2,1.4-1.4c0-1.2-0.8-1.3-1.2-1.3l-2.3,0L211,57.7z"/>
			<path id="XMLID_74_" class="st2" d="M221.8,56.5c-0.3-1.4-1.3-1.6-1.9-1.7c-1.3,0-2.3,1.1-2.3,3.1c0,1.9,0.6,3.3,2.3,3.3
				c0.6,0,1.7-0.3,2-2.2h0.9c-0.4,3-2.5,3.1-3,3.1c-1.6,0-3.1-1.2-3.1-4.2c0-2.4,1.2-4.1,3.2-4.1c1.8,0,2.7,1.3,2.8,2.6H221.8z"/>
			<polygon id="XMLID_73_" class="st2" points="225,62 224,62 224.1,54.1 225,54.1 			"/>
			<path id="XMLID_70_" class="st2" d="M227.7,59.7L227,62l-1,0l2.6-7.9l1.1,0l2.5,7.9l-1,0l-0.7-2.3L227.7,59.7 M230.1,58.8l-1-3.5
				h0l-1.1,3.5L230.1,58.8z"/>
			<polygon id="XMLID_69_" class="st2" points="234,61.1 237.5,61.1 237.5,62 233,62 233,54.1 234,54.1 			"/>
			<path id="XMLID_65_" class="st2" d="M241.1,54.1l3,0c1.3,0,2,0.9,2,2c0,0.5-0.2,1.2-0.9,1.7c0.4,0.2,1.2,0.6,1.2,1.9
				c0,1.3-0.8,2.3-2.4,2.3l-3,0L241.1,54.1 M242,57.5l1.7,0c0.9,0,1.5-0.3,1.5-1.3c0-0.7-0.4-1.2-1.4-1.2l-1.7,0L242,57.5 M242,61.1
				l2,0c1,0,1.5-0.6,1.5-1.4c0-1.1-0.9-1.3-1.6-1.3l-1.8,0L242,61.1z"/>
			<path id="XMLID_62_" class="st2" d="M248.6,59.8l-0.7,2.3h-1l2.6-7.9h1.1l2.5,7.9l-1,0l-0.7-2.3L248.6,59.8 M251,58.8l-1-3.5h0
				l-1.1,3.5L251,58.8z"/>
			<polygon id="XMLID_61_" class="st2" points="258.5,54.2 259.4,54.2 259.4,62.1 258.4,62.1 254.9,55.7 254.8,55.7 254.8,62.1 
				253.9,62.1 254,54.2 255.1,54.2 258.5,60.6 258.5,60.6 			"/>
			<polygon id="XMLID_60_" class="st2" points="261.8,62.1 260.9,62.1 260.9,54.2 261.8,54.2 261.8,58 265.2,54.2 266.5,54.2 
				263.6,57.4 266.5,62.1 265.3,62.1 262.9,58.1 261.8,59.3 			"/>
			<path id="XMLID_57_" class="st2" d="M273,62.3c-2.6,0-3.4-2.5-3.4-4.2c0-1.7,0.8-4.2,3.4-4.2c2.6,0,3.4,2.5,3.4,4.2
				C276.4,59.9,275.6,62.3,273,62.3 M273,55c-1.5,0-2.4,1.4-2.4,3.2c0,1.9,0.9,3.2,2.4,3.2c1.5,0,2.4-1.4,2.4-3.2
				C275.4,56.3,274.5,55,273,55z"/>
			<polygon id="XMLID_56_" class="st2" points="278.5,62.2 277.6,62.1 277.6,54.2 282.4,54.2 282.4,55.2 278.6,55.2 278.6,57.6 
				281.9,57.6 281.9,58.6 278.5,58.5 			"/>
			<path id="XMLID_55_" class="st2" d="M290.9,56.6c-0.3-1.4-1.3-1.6-1.9-1.6c-1.2,0-2.3,1.1-2.3,3.1c0,1.9,0.6,3.3,2.3,3.3
				c0.6,0,1.7-0.3,2-2.2h0.9c-0.4,3-2.5,3.1-3,3.1c-1.6,0-3.1-1.2-3.1-4.2c0-2.4,1.2-4.1,3.2-4.1c1.8,0,2.7,1.3,2.8,2.6L290.9,56.6z
				"/>
			<polygon id="XMLID_54_" class="st2" points="297.6,54.3 298.6,54.3 298.5,62.2 297.6,62.2 297.6,58.5 294,58.5 294,62.2 
				293.1,62.2 293.1,54.3 294,54.3 294,57.5 297.6,57.6 			"/>
			<polygon id="XMLID_53_" class="st2" points="301.1,62.2 300.2,62.2 300.2,54.3 301.1,54.3 			"/>
			<polygon id="XMLID_52_" class="st2" points="307.3,54.3 308.2,54.3 308.2,62.2 307.1,62.2 303.6,55.8 303.6,55.8 303.6,62.2 
				302.7,62.2 302.7,54.3 303.8,54.3 307.3,60.7 307.3,60.7 			"/>
			<path id="XMLID_49_" class="st2" d="M310.7,59.9l-0.7,2.3h-1l2.6-7.9h1.1l2.5,7.9l-1,0l-0.7-2.3L310.7,59.9 M313.2,59l-1-3.5l0,0
				L311,59H313.2z"/>
		</g>
		<g id="XMLID_42_">
			<polygon id="XMLID_47_" class="st3" points="13.6,15.9 31.1,15.9 31.1,21 18.7,21 18.7,25.9 31.1,25.9 31.1,39.9 18.7,39.9 
				18.7,45.8 31.1,45.8 31.1,50.4 13.6,50.4 13.6,34.7 26.3,34.7 26.3,30.5 13.6,30.5 			"/>
			<polygon id="XMLID_46_" class="st3" points="50.8,15.9 33.3,15.9 33.3,21 45.7,21 45.7,25.9 33.3,25.9 33.3,39.9 45.7,39.9 
				45.7,45.8 33.3,45.8 33.3,50.4 50.8,50.4 50.8,34.7 38.1,34.7 38.1,30.5 50.8,30.5 			"/>
			<path id="XMLID_43_" class="st3" d="M0,32.2C0,14.4,14.4,0,32.2,0C50,0,64.4,14.4,64.4,32.2C64.4,50,50,64.4,32.2,64.4
				C14.4,64.4,0,50,0,32.2 M32.2,60.3c15.5,0,28.1-12.6,28.1-28.1c0-15.5-12.6-28.1-28.1-28.1C16.7,4.1,4.1,16.7,4.1,32.2
				C4.1,47.7,16.7,60.3,32.2,60.3z"/>
		</g>
		<g id="XMLID_16_">
			<polygon id="XMLID_41_" class="st2" points="183.9,12.6 194.3,12.6 194.3,8 168.2,8 168.2,12.6 178.2,12.6 178.2,30.9 
				167.1,30.9 167.1,35.1 195.2,35.1 195.2,30.7 183.9,30.7 			"/>
			<path id="XMLID_37_" class="st2" d="M106.4,5.3h-4.7V11H90v17.5H94l0.1-1.1h7.5v10.4h4.7V27.4h7.2v1.1h4.5V11h-11.7V5.3z
				 M101.7,23h-7.3v-7.6h7.3V23z M113.6,15.2v7.6h-7.2v-7.6H113.6z"/>
			<path id="XMLID_34_" class="st2" d="M147.3,22.2h1.6V19H144v-2.9h5.4v-3.3h-14.8l0,3.5h5.6v2.9h-4.9v3.1h4.8v4.2h-5.8v3.3h15
				v-3.3h-1.3l1.6-1.9L147.3,22.2z M143.9,26.4v-4.2l2.3,0l-1.5,2l2.3,2.2H143.9z"/>
			<path id="XMLID_31_" class="st2" d="M128.8,37.1h3.9v-0.8h18.6v1h4.3V7h-26.9V37.1z M132.7,10.5h18.7V32h-18.7V10.5z"/>
			<path id="XMLID_25_" class="st2" d="M223,6h-5v3h-11.8v3.8h5.7l2.4,3.7h-6.5v21h4.1V20h4.7l-4.4,4.7l1.5,1.9l0.4-0.3v8.2h4v-0.7
				h5v0.8c0,0,1-0.5,2.8,0c1.9,0.5,2,1.9,1.8,3.4c2.9,0.2,5.6-0.5,5.4-3.5v-18h-6.1l2-3.7h5.8V9H223V6z M222.7,30.8h-5v-3.4l5,0.1
				V30.8z M229,20v13.3h-2.8V26l0.7,0.4l1.9-1.8l-4-4.7H229z M224.5,24h-7.8l2.2-2l-1.4-2h6.5l-1.5,1.6L224.5,24z M223.8,12.8
				l-1.5,3.7h-3.5l-2.2-3.7H223.8z"/>
			<path id="XMLID_24_" class="st2" d="M254.1,19.8h3.2v-3.7H249c0.9-1.1,1.6-2.1,2-2.8h6.3V9.7h-4.8c0.7-0.8,1.1-1.5,1.3-2
				C252.9,7.5,250,6,250,6c-1.1,2.4-4.1,7.4-5.7,8.5c1.1,1.5,1.7,3.7,1.5,4.5c1-0.6,0.6-0.4,1.2-1c0.6-0.6,0,1.5,0,1.5h3.2v2.3h-4.1
				v3.8h4.1l0,7.3l-2.8,1.8l1.5,2.6l8-5.2l-0.6-3.1l-2.2,1.3v-4.8h3.6V22h-3.6V19.8z"/>
			<path id="XMLID_20_" class="st2" d="M270.8,28.6l4-3.4l-2.5-2.5l-3.2,2.8c-0.4-1.1-0.7-2.2-0.7-3.1h5.1v-15h-14.2v26.2l-1.4,0.8
				l0.9,3.2c0,0,5.7-3.6,7.8-4.8c0,0-0.2-0.3-0.7-3.3c0,0-0.5,0.5-2.8,1.7v-8.7c0,0,1.5,0.1,1.5,0c-0.1,4.5,4.3,12.5,8,14.8
				c0,0,1.2-1.2,2.9-3.7C274.2,32.9,272.3,30.9,270.8,28.6z M263.1,10.4h6.6v2.8h-6.6V10.4z M263.1,19.1v-2.8h6.6v2.8H263.1z"/>
			<rect id="XMLID_19_" x="300.2" y="7.9" class="st2" width="14.3" height="3.8"/>
			<path id="XMLID_18_" class="st2" d="M298.6,16.9c0.5-0.5,0.9-1,1-1.1l-3.7-2.8c0,0-4.2,5.8-9.2,9.7c0.6,1.9,1.3,3.4,1.3,4.3
				c0.4-0.3,1.4-1.1,2.6-2.2v0.6h0v12.5h4.1V20.9c0,0,0,0,0,0v-0.1l0,0v0.1c1.3-1.2,2.5-2.4,3.4-3.3v3.3h8.5v0.9h0v10
				c0,1.3-0.2,1.6-1.7,1.6c-1.5,0-2.2-0.2-1.3,0.7c0.9,0.9,1.2,2.9,1,3.7c3.8,0.4,6.7-1,6.7-4.5c0-3.2,0-12,0-12.3h-0.1v0h0.1
				c0,0,0,0,0,0h4.6v-4H298.6z"/>
			<path id="XMLID_17_" class="st2" d="M296.4,9.5l-3.1-3.3l-7.9,7.4c1.1,0.6,2.2,3.3,2.2,3.7C289.5,15.9,296.4,9.5,296.4,9.5z"/>
		</g>
	</g>
</g>
</svg>
