<?xml version="1.0" encoding="utf-8"?>
<!-- Generator: Adobe Illustrator 19.0.0, SVG Export Plug-In . SVG Version: 6.00 Build 0)  -->
<svg version="1.1" id="图层_1" xmlns="http://www.w3.org/2000/svg" xmlns:xlink="http://www.w3.org/1999/xlink" x="0px" y="0px"
	 viewBox="0 0 252.5 59.3" style="enable-background:new 0 0 252.5 59.3;" xml:space="preserve">
<style type="text/css">
	.st0{fill-rule:evenodd;clip-rule:evenodd;fill:#D71718;}
	.st1{fill-rule:evenodd;clip-rule:evenodd;fill:#231815;}
</style>
<g>
	<path class="st0" d="M27.2,41.6l8-20.3l8.4,20.3H27.2L27.2,41.6z M10.4,41.6l8-20.3l8.4,20.3H10.4L10.4,41.6z M52.1,37h6.3
		l-0.3,1.2h-5.4L52.1,37L52.1,37z M50.9,34.1h8l-0.2,1.2h-7.3L50.9,34.1L50.9,34.1z M49.7,31.3h9.6l-0.1,1.2h-8.9L49.7,31.3
		L49.7,31.3z M48.5,28.4h10.8v1.2H49L48.5,28.4L48.5,28.4z M47.3,25.6H59l0.1,1.2H47.8L47.3,25.6L47.3,25.6z M46.1,22.7h12.4
		l0.3,1.2H46.6L46.1,22.7L46.1,22.7z M29.6,0h1.2l1.3,0.1l1.2,0.1l1.2,0.2l1.2,0.2l1.2,0.3l1.2,0.3l1.2,0.3l0.5,0.2L40.3,2l1.1,0.5
		l1.1,0.5l1,0.5l1,0.5l1,0.6l1,0.7l1,0.7l0.9,0.7l0.9,0.8l0.9,0.8L51,9.1l0.8,0.8l0.8,0.9l0.3,0.5l0.3,0.5l0.7,1l0.6,1l0.6,1l0.6,1
		l0.5,1.1l0.5,1l0.4,1.1l0.4,1.2l0.4,1.1H45.4L37.5,2.7l-8.2,20.6L20.8,2.9L5.7,42l6.9,8.6h35l6.4-9.3l-0.6-1.4h4.2l-0.4,1.1l-0.5,1
		l-0.5,1l-0.5,1l-0.6,1l-0.5,1l-0.7,0.9l-0.6,0.9l-0.7,0.9l-0.8,0.9L51,50.2L50.2,51l-0.8,0.8l-0.8,0.7l-0.9,0.7l-0.9,0.7l-0.9,0.6
		l-1,0.6l-1,0.5l-1,0.5l-1,0.5L41,57l-1.1,0.4l-1,0.4l-1.1,0.3l-1.2,0.3l-1.1,0.3l-1.2,0.2L33.8,59l-0.6,0.1L32,59.2l-1.2,0.1h-1.2
		h-1.5l-1.5-0.1l-1.5-0.2l-1.5-0.3l-1.4-0.3L20.8,58l-1.4-0.5L18.1,57l-1.3-0.6l-1.3-0.6l-0.6-0.4L14.3,55l-1.2-0.7l-1.2-0.8
		l-1.2-0.9l-0.5-0.5l-0.5-0.5l-0.5-0.5l-0.5-0.5l-1-1l-1-1.1L6.3,48l-0.4-0.6L5,46.2l-0.3-0.5L4.3,45L4,44.4l-0.3-0.7l-0.7-1.2
		l-0.6-1.4l-0.5-1.3l-0.5-1.4L1,37.1l-0.2-0.7l-0.1-0.7l-0.1-0.7l-0.1-0.7l-0.2-1.4l-0.1-1.6L0,30.4v-0.7l0.1-1.5l0.1-1.5l0.2-1.5
		l0.3-1.5L1,22.2l0.4-1.4l0.5-1.4l0.5-1.4l0.6-1.3l0.7-1.3L4,14.9l0.3-0.6L5,13.1l0.9-1.2l0.8-1.2l0.5-0.5l0.5-0.5l0.5-0.5l0.5-0.5
		l1-1l1-1l0.6-0.4l0.5-0.4L13.1,5l0.6-0.3l0.6-0.4L14.9,4l0.6-0.3l1.3-0.7l1.3-0.6l1.4-0.5l1.4-0.4L22.2,1L23,0.7l0.7-0.1l0.8-0.1
		l0.7-0.1l1.5-0.2l1.5-0.1L28.9,0H29.6L29.6,0z"/>
	<path class="st1" d="M93.1,31.8v0.5v0.5l0.1,0.9l0.1,1l0.1,0.3l0.1,0.3l0.1,0.1l0.1,0.1l0.1,0.1h0.1H94l0.3-0.1l0.3-0.1l0.7-0.1
		h0.8h0.7l1.3,0.1l0.5,0.1l0.3,0.1l0.3-0.1h0.2l0.1-0.1l0.3-0.2l0.1-0.1l0.1-0.1l0.1-0.2v-0.2l-0.1-0.2l-0.1-0.3v-0.4v-0.5v-0.5
		l0.1-1.1v-0.2l-0.1-0.1l-0.1-0.3l-0.2-0.2l-0.1-0.1l-0.1-0.1h-0.1h-0.1h-2.3L94,30.8h-0.3l-0.3,0.1l-0.1,0.2l-0.1,0.2l-0.1,0.3
		L93.1,31.8L93.1,31.8z M93.2,21.8l-0.1,0.1L92.9,22l-0.3,0.4l-0.5,0.9l-0.4,0.9l-0.1,0.4v0.2l0.1,0.1v0.1l0.1,0.1l0.2,0.1l0.1,0.1
		l0.1,0.1h0.2l0.1,0.1h0.2l3.6-0.1h0.2h0.2l0.2-0.1l0.1-0.1l0.2-0.1l0.1-0.2l0.1-0.1v-0.2l0.1-0.1l-0.1-0.1l-0.1-0.1l-0.1-0.2
		L97,23.9l-0.3-0.2l-0.3-0.1l-0.3-0.1l-0.4-0.1l-0.2-0.1l-0.2-0.1l-0.1-0.1L95.1,23l-0.3-0.3l-0.2-0.3l-0.1-0.3L94.4,22l-0.1-0.2
		l-0.2-0.3L94,21.4l-0.1-0.1h-0.1h-0.1l-0.1,0.1l-0.2,0.1l-0.1,0.1L93.2,21.8L93.2,21.8z M96.3,15v1.6L96.2,17l-0.1,0.2l-0.1,0.2
		l-0.2,0.4l-0.2,0.3l-0.4,0.5l-0.2,0.2L94.8,19l-0.1,0.3l-0.1,0.2v0.2v0.3l0.1,0.1l0.1,0.1l0.1,0.2l0.1,0.1l0.1,0.1l0.3,0.2l0.2,0.1
		L96,21h0.2l0.3-0.1l0.3-0.1l0.3-0.1l0.2-0.1l0.5-0.4l0.3-0.4l0.3-0.4l0.3-0.3l0.1-0.3v-0.3l0.1-0.4l0.1-0.4l0.1-0.4l0.3-0.6
		l0.1-0.3l0.3-0.4l0.2-0.3l0.3-0.7l0.2-0.5l0.1-0.2l-0.1-0.2l-0.1-0.2l-0.1-0.2l-0.1-0.1l-0.1-0.1l-0.1-0.1h-0.1h-0.1h-0.1l-0.1,0.1
		l-0.1,0.1l-0.1,0.1l-0.1,0.1h-0.1l-0.2,0.1l-0.3,0.1h-0.3l-0.7-0.1h-0.3l-0.2-0.1H97l-0.2,0.1l-0.1,0.1l-0.2,0.2l-0.1,0.3l-0.1,0.3
		l-0.1,0.3V15L96.3,15z M85,19.5l0.3,0.1l0.3,0.3l0.7,0.6l0.5,0.5l0.3,0.2l0.1,0.2l0.1,0.1l0.1,0.1l0.1,0.1l0.2,0.1h0.3l0.4-0.1
		l0.1-0.1l0.1-0.3l0.3-0.4l0.3-0.5v-0.1v-0.1V20l0.1-0.2l0.1-0.3l0.1-0.2l0.3-0.3l0.1-0.3l0.3-0.4l0.7-1.1l0.9-1.5l0.1-0.5v-0.2
		v-0.3l-0.1-0.3l-0.1-0.2l-0.1-0.1L91.1,14l-0.1-0.1l-0.2-0.2l-0.1-0.1l-0.2,0.1l-0.2,0.1H90l-0.3-0.1h-0.1l-0.2-0.1l-0.2-0.1
		L89,13.3l-0.2,0.1l-0.1,0.1l-0.1,0.1v0.1l-0.1,0.1l-0.1,0.1l-0.1,0.1l-0.1,0.4L88.1,15L88,15.4l-0.1,0.8l-0.1,0.4l-0.1,0.5
		l-0.2,0.5l-0.1,0.1l-0.1,0.1L87.2,18l-0.3,0.1l-0.2,0.1h-0.2h-0.1l-0.1-0.1h-0.4l-0.3,0.1h-0.1l-0.2,0.1l-0.1,0.1L85,18.6l-0.1,0.1
		l-0.1,0.2v0.2l0.1,0.1l0.1,0.1L85,19.5L85,19.5z M74.2,12.9h0.6l1.5,0.1h0.9l0.9-0.1l0.9-0.1l0.7-0.1l0.3-0.1l0.3-0.2l0.3-0.2
		l0.2-0.3l0.1-0.2l0.1-0.2l0.1-0.2v-0.3l-0.1-0.3l-0.1-0.3l-0.2-0.8L80.1,8l-0.4-2l-0.1-0.8V4.9V4.7l-0.1-0.3V4.2l0.1-0.3l0.1-0.3
		l0.1-0.1l0.1-0.1l0.2-0.1h0.2l0.2,0.1l0.3,0.1l0.3,0.2l0.4,0.2L82,4.2l0.7,0.2l0.7,0.1l0.4,0.1h0.4h0.4H85V12l0.1,0.2l0.1,0.2
		l0.2,0.3l0.3,0.1l0.1,0.1l0.3,0.1h0.5l0.3-0.1l0.3-0.1l0.2-0.1l0.4-0.3l0.2-0.2l0.2-0.2l0.1-0.2l0.1-0.1v-0.1l-0.1-0.5l-0.3-0.9
		L88,9.6L87.8,9l-0.2-0.4l-0.2-0.3l-0.1-0.3l-0.1-0.7V7.1l0.1-0.2l0.1-0.1h0.1h0.1h0.1l4,0.5l2.9,0.3l1.1,0.2l0.5,0.1h0.5h0.5h0.7
		l0.9-0.1l0.5-0.1l0.5-0.1l0.5-0.1l0.5-0.1l0.5-0.2l0.6-0.2l0.7-0.1l1.5-0.1h1.7h0.7l0.3,0.1h0.2l0.2,0.1l0.1,0.1l0.2,0.2l0.1,0.1
		l0.1,0.1l0.1,0.1v0.2V8l-0.1,0.3l-0.1,0.3l-0.1,0.3L107.2,9l-0.1,0.4L107,9.7V10l-0.1,0.3l0.1,0.3l-0.1,0.3l-0.2,0.7l-0.4,1.2
		l-0.3,0.7l-0.3,0.8l-0.3,1.2l-0.1,0.9l-0.1,0.4l-0.1,0.3l-0.3,1.3l-0.4,1.1l-0.2,0.5l-0.1,0.3l-0.2,0.9l-0.3,0.3l-0.7,0.7l-0.3,0.4
		l-0.3,0.4L102,23l-0.1,0.3h-0.3l-0.5,0.1l-0.3,0.1l-0.3,0.1l-0.1,0.1l-0.1,0.1v0.1V24l-0.1,0.2v0.2l0.1,0.2l0.1,0.3l0.3,0.2
		l0.4,0.2l0.3,0.1l0.3,0.1h0.3l0.7-0.1h0.4l0.5-0.1l0.2-0.1l0.2-0.1l0.2-0.1l0.1-0.1l0.3-0.1h0.3h0.3h0.1l0.1,0.1l0.1,0.1l0.1,0.1
		v0.2l0.1,0.2l-0.1,0.2l-0.1,0.3l-0.1,0.1l-0.1,0.5l-0.1,0.3l-0.1,0.3l-0.1,0.4V28l-0.1,1.1v2.5V33l0.1,1.3l0.1,1.1l0.1,0.4l0.1,0.3
		v0.3l0.1,0.6l0.1,0.7l0.1,0.3l0.1,0.3l0.1,0.2v0.3v0.3v0.3l-0.1,0.3l-0.1,0.3l0.1,0.3v0.5l-0.1,0.3l-0.1,0.1l-0.1,0.1l-0.1,0.2
		h-0.1h-0.1l-0.5,0.3l-0.5-0.2l-0.4-0.2l-0.2-0.1l-0.1-0.1l-2.8-0.1l-0.3,0.1l-0.3,0.1l-0.5,0.1l-0.5,0.1h-0.6h-0.3l-0.3-0.1
		l-0.3-0.1L97.2,41l-6.3,0.1l-0.7,0.1l-0.5,0.1l-0.2,0.1l-0.1,0.1l-0.1,0.1l-0.1-0.1h-0.1l-0.1-0.1L89,41.4l-0.1-0.1l-0.1-0.2
		l-0.1-0.3l-0.1-0.2l-0.1-0.1l-0.2-0.1l-0.1-1.6l-0.1-3.6l-0.1-2v-1.9v-1.5l0.1-0.6v-0.5v-0.2v-0.3L88,28l-0.1-0.2l-0.1-0.2
		l-0.3-0.5l-0.2-0.3l-0.3-0.2l-0.3-0.3l-0.3-0.2L86,26.2l-0.1-0.1h-0.2l-0.2,0.1l-0.3,0.1l-0.1,0.1L85,26.6l-0.1,0.2L84.8,27
		l-0.1,0.7l-0.1,1.8v1v0.9l0.1,0.5l0.1,0.4v0.3l0.1,0.2l0.2,0.8l0.1,0.7l0.1,0.4v0.4v1.4l-0.1,1v0.4l-0.1,0.3v0.3l0.1,0.3l0.1,0.1
		l0.1,0.1l-0.1,0.8l-0.1,0.6l-0.1,0.2l-0.1,0.1L85,40.7v0.1l-0.1,0.1L84.8,41L84.7,41l-0.1,0.1h-0.1L84.2,41L83.8,41h-0.9L81.8,41
		l-0.5,0.1h-0.2L81,41.2l-0.3,0.1h-0.3h-0.4l-0.5-0.1l-0.2-0.1h-0.2L78.9,41l-0.2-0.1l-0.1-0.1l-0.1-0.1L77,39.4l0.1-0.3l0.1-0.1
		l0.1-0.1l0.1-0.1l0.1-0.1l0.4-0.3l0.5-0.5l0.6-0.7l0.1-0.1l0.3-0.1l0.4-0.1l0.2-0.1l0.2,0.1h0.1l0.1-0.1l0.1-0.1l0.1-0.1l0.1-0.2
		l0.1-0.3l-0.1-2l-0.1-1.6v-0.7l-0.1-0.5l-0.1-0.3l-0.1-0.3l-0.1-0.3L80,30.3l-0.1-0.1L79.8,30l-0.1-0.1l-0.1-0.1l-0.2-0.1h-0.1
		L79,29.8l-0.6,0.7l-0.1,0.1l-0.2,0.2L77.9,31l-0.3,0.2l-0.2,0.1l-0.3,0.1l-0.1-0.1H77l-0.3,0.2L76,32.1l-0.3,0.3l-0.3,0.3l-0.2,0.1
		l-0.1,0.2l-0.1,0.1v0.1l-0.1-0.3l-0.2-0.8l-0.2-0.5l-0.2-0.5l-0.2-0.5l-0.3-0.4l-0.2-0.3l-0.5-0.9l-0.3-0.5l-0.2-0.6l-0.2-0.6
		l-0.1-0.3L72.3,27l-0.1-0.2v-0.3l-0.1-0.3l-0.1-0.3l0.1-0.3l0.1-0.1v-0.1l0.1-0.1h0.1h0.3h0.5l0.6-0.1l0.3-0.1l0.2-0.2l0.2-0.1
		l0.5-0.1l1.1-0.1h0.7l0.8,0.1l0.4-0.1l0.4-0.2l0.5-0.3l0.6-0.4l0.5-0.5l0.3-0.3l0.2-0.3l0.2-0.3l0.1-0.3l0.1-0.5l-0.1-0.5v-0.3
		l-0.1-0.3l-0.1-0.3L80.5,20l-0.1-0.3l-0.1-0.2l-0.2-0.2l-0.2-0.2l-0.3-0.1L79.3,19l-0.1-0.1h-0.2h-0.2L78.5,19l-0.2,0.1l-0.1,0.1
		l-0.1,0.1L78,19.5h-1.1h-0.3l-0.2-0.1l-0.3-0.1l-0.3-0.1L75.6,19l-0.1-0.1l-0.1-0.1l-0.1-0.1l-0.1-0.2v-0.7v-0.3l-0.1-0.3l-0.1-0.3
		l-0.1-0.3L75,16.2l-0.4-0.8l-0.2-0.5l-0.2-0.5l-0.1-0.5l-0.1-0.5v-0.3v-0.2v-0.1l0.1-0.1L74.2,12.9L74.2,12.9L74.2,12.9z
		 M135.2,32.4l-0.1,1.5v0.3l0.1,0.3l0.1,0.1l0.1,0.1l0.1,0.1h0.1h0.1l0.2-0.1h0.2l0.1,0.1l0.1,0.1l0.2,0.1l0.1,0.1l0.1,0.1l0.2,0.1
		l0.2,0.1h0.2l0.3-0.1h0.1l0.1-0.1l0.1-0.1l0.1-0.1l0.3-0.3l0.4-0.3l0.1-0.1l0.1-0.1l0.1-0.3v-0.2v-0.1l-0.1-1.8v-0.1l-0.1-0.1
		l-0.1-0.1l-0.1-0.1l-0.1-0.1h-0.1l-0.3-0.1h-0.5h-0.2l-0.1,0.1l-0.1,0.1l-0.2,0.1l-0.2,0.1h-0.2h-0.3h-0.3l-0.3-0.1h-0.2h-0.1
		l-0.2,0.1l-0.1,0.1l-0.1,0.1l-0.1,0.1v0.3v0.1V32.4L135.2,32.4z M141.6,29.1v0.2l-0.1,0.7l-0.1,0.7l0.1,0.4l0.1,0.3l0.1,0.3v0.4
		v0.7v0.6l-0.1,0.3v1.6v1.5v0.2v0.1l0.1,0.1l0.1,0.1l0.1,0.1l0.1,0.1l0.1,0.1l0.1,0.1h0.1h0.1l0.4-0.1l0.2-0.1l0.1-0.1l0.1-0.1
		l0.1-0.1l0.1-0.2l0.1-0.2v-0.2v-0.1l-0.1-0.2l-0.1-0.2l-0.1-0.4v-0.9l0.1-0.6l0.1-0.3l0.1-0.2v-0.3l0.1-0.9v-1.3v-0.7v-0.7l0.1-0.7
		l-0.1-0.2l-0.1-0.2l-0.1-0.3l-0.1-0.1l-0.1-0.1l-0.1-0.1l-0.1-0.1h-0.1l-0.1,0.1l-0.1-0.1h-0.2l-0.2,0.1l-0.1,0.1l-0.1,0.1
		l-0.1,0.1l-0.1,0.2v0.2L141.6,29.1L141.6,29.1z M130.3,23.8h-0.2l-0.2,0.1l-0.1,0.1l-0.1,0.1v0.3v0.1l0.1,0.4v0.1v0.1l-0.1,0.1
		l-0.1,0.1l-0.1,0.1l-0.1,0.1l-0.1,0.1l-0.1,0.2l-0.1,0.3v0.3l0.1,0.3l0.1,0.2l0.1,0.1l0.1,0.1l0.2,0.1h0.3l0.3,0.1l0.2-0.1h0.2
		l0.2-0.1l1.6-0.9l0.3-1.4v-0.1v-0.2l-0.1-0.3l-0.1-0.3l-0.3-0.3l-0.3-0.3l-0.1-0.1l-0.1-0.1h-0.3l-0.1,0.1l-0.1,0.1l-0.1,0.2
		l-0.1,0.1l-0.1,0.1l-0.2,0.1L130.3,23.8L130.3,23.8L130.3,23.8z M135.8,24.9l0.1,0.5l0.1,0.4l0.1,0.5l0.1,0.2l0.1,0.2l-0.1,0.1v0.2
		l-0.2,0.3l-0.3,0.3l-0.1,0.2l-0.1,0.2l0.1,0.1v0.1l0.1,0.1l0.1,0.1h0.1h0.2h0.1l0.3-0.1h0.5h0.5l0.2,0.1h0.1l0.1,0.1h0.1l0.3-0.1
		l0.3-0.1l0.1-0.1l0.1-0.1l0.1-0.2v-0.1l-0.1-0.2l-0.1-0.2l-0.1-0.2l-0.1-0.2l-0.1-0.3l-0.1-0.3l-0.1-0.9v-0.9v-0.4l-0.1-0.2
		l-0.1-0.2l-0.1-0.1l-0.2-0.1l-0.1-0.1l-0.2-0.1l-0.3-0.1h-0.4l-0.3,0.1l-0.3,0.1h-0.1l-0.1,0.1l-0.1,0.1l-0.1,0.1l-0.1,0.1
		l-0.1,0.1v0.3v0.3l0.1,0.3L135.8,24.9L135.8,24.9z M140.2,24.1l-0.1,0.4l0.1,0.3l0.1,0.2l0.1,0.2l0.1,0.1l0.1,0.1h0.1h0.1l0.2-0.1
		l0.1,0.1l0.1,0.1l0.1,0.1l0.1,0.2l0.1,0.2l0.1,0.1l0.2,0.1h0.2h0.3l0.1-0.1l0.3-0.5l0.1-0.1h0.1l0.1-0.1l0.1-0.1l0.1-0.2l0.1-0.2
		l0.1-0.4l0.1-0.3V24l-0.1-0.2l-0.1-0.2l-0.1-0.1l-0.1-0.1l-0.1-0.1h-0.1l-0.4,0.1h-0.3l-0.3-0.1l-0.5-0.1h-0.3h-0.2l-0.1,0.1h-0.3
		h-0.3l-0.1,0.1l-0.1,0.1l-0.1,0.1v0.1l-0.1,0.1V24V24.1L140.2,24.1z M134.9,17.6l0.2,0.3l0.3,0.3l0.1,0.3l0.1,0.1l0.1,0.2l0.2,0.1
		l0.3,0.1h0.3h0.4l0.5-0.1l0.3-0.1l0.3-0.1l0.1-0.2l0.1-0.1l0.1-0.1v-0.2l-0.1-0.1v-0.3v-0.2l0.1-0.2l0.2-0.5l0.1-0.3l0.1-0.3v-0.3
		l-0.1-0.2l-0.1-0.1l-0.1-0.1h-0.1l-0.1-0.1H138l-0.3,0.1h-0.2l-0.3-0.1l-0.5-0.1l-0.1-0.1h-0.1l-0.3,0.1l-0.3,0.1l-0.3,0.2
		l-0.4,0.5l-0.2,0.2l-0.2,0.2l-0.1,0.1v0.1V17v0.2l0.1,0.2l0.1,0.1L134.9,17.6L134.9,17.6z M144.2,18.5L144.2,18.5L144.2,18.5
		L144.2,18.5z M132.4,10.6h0.4h0.5l0.5-0.1l0.4-0.1l0.2-0.1l0.1-0.1l0.1-0.1l0.1-0.1l-0.1-0.1l-0.1-0.2L133.8,9l-0.5-0.5l-0.2-0.3
		L132.9,8l-0.2-0.1l-0.3-0.3l-0.1-0.2l-0.1-0.2V7.1V6.9l0.2-0.3V6.6V6.5l-0.1-0.1l-0.1-0.2l-0.1-0.1L132.2,6L132,5.8V5.6l-0.1-0.2
		l-0.1-0.2L131.7,5V4.8l0.1-0.3V4.5l0.1-0.1l0.1-0.1l0.1-0.1l0.1-0.1h0.2l0.2-0.1h0.3h2.2h0.1h0.3l0.3-0.1l0.2-0.1l0.1-0.1l0.3-0.1
		l0.4-0.1h0.5h0.5l0.5,0.1l0.3,0.1l0.2,0.1l0.2,0.1l0.2,0.1l0.1,0.1l0.4,0.2l0.5,0.1h0.2h0.2h0.1l0.1,0.1l0.1,0.1v0.1V5l-0.1,0.2
		l-0.1,0.1l-0.2,0.1l-0.1,0.3l-0.3,0.5l-0.2,0.3l-0.2,0.3L139.2,7L139,7.1l-0.1,0.1l-0.3,0.3l-0.1,0.3l-0.1,0.3l-0.1,0.3l-0.1,0.3
		L138,9v0.2l0.1,0.2l0.1,0.2l0.3,0.1l0.2,0.1h0.3l0.6-0.1l0.3,0.1l0.9,0.1l0.6,0.1l0.6-0.1h0.3l0.3-0.1l0.3-0.1l0.3-0.1l2-0.1
		l2.3-0.1h0.4l0.5-0.1l0.2-0.1l0.2-0.1l0.2-0.1L149,9l0.1-0.1l0.2-0.1l0.5-0.1h0.3h0.3l0.6,0.1l0.6,0.2l0.3,0.1l0.3,0.1l0.2,0.2
		l0.1,0.1l0.1,0.1l0.1,0.3l0.1,0.3v0.4v0.9v0.5l-0.1,0.5l-0.1,0.4l-0.1,0.2l-0.1,0.1l-0.1,0.1l-0.1,0.2l-0.1,0.2l-0.1,0.2l-0.1,0.1
		v0.1v0.3V15v0.3l-0.1,0.2l-0.1,0.2l-0.2,0.1L151,16h-0.3l-0.3-0.1l-0.4-0.1l-0.3-0.1l-0.3-0.1l-0.3-0.1l-0.3-0.1l-0.3,0.1h-0.2
		l-0.1,0.1l-0.1,0.1l-0.1,0.1l-0.1,0.1l-0.3,0.1l-0.3,0.1H147h-0.4l-0.4-0.1l-0.3-0.1l-0.1-0.1l-0.1-0.1h-0.1l-0.1-0.1l-0.3-0.1
		h-0.4h-0.4l-0.7,0.1h-0.3l-0.1,0.2l-0.1,0.2l-0.2,0.3l-0.1,0.3l-0.1,0.4v0.5V18l0.1,0.2l0.1,0.1l0.1,0.1l0.1,0.1h0.1l0.1,0.1h0.3
		l0.3-0.1l0.2-0.1l0.2-0.1l0.2-0.1l0.2-0.1l0.3-0.1l0.4-0.1l0.4-0.1l0.4,0.1h0.5l0.5,0.1l0.3,0.1l0.2,0.1l0.2,0.1l0.1,0.2l0.2,0.3
		l0.1,0.3l0.1,0.3l-0.1,0.3v0.2v0.2l0.1,0.5l0.1,0.7l0.1,0.3l0.1,0.3l0.1,0.1v0.1l0.1,0.3l-0.1,0.4l-0.1,0.3l-0.1,0.7l-0.1,0.4v0.1
		l-0.1,0.2l-0.1,0.4v0.7v1.1l0.1,1.6l0.3,2.2l0.1,1.4l0.2,1.5l0.1,0.5v0.5l0.1,1v1l-0.1,0.9l-0.1,1.4l-0.1,0.6l-0.1,0.2l-0.1,0.3
		l-0.1,0.5v0.3l0.1,0.3v0.3v0.2l-0.1,0.1h-0.1l-0.3,0.1h-0.5l-3.2-0.2l-0.3-0.1h-0.6h-0.3H143l-0.3,0.1l-0.2,0.1h-0.3h-0.7l-0.5-0.1
		l-0.3-0.1l-0.3-0.1l-0.5-0.3l-0.3-0.1l-0.2-0.2l-0.7-0.2l-0.5-0.1l-0.3-0.1l0.1-0.1l0.4-0.3l0.3-0.2l0.2-0.3l0.2-0.2l0.1-0.3
		l0.1-0.2v-0.3l-0.1-0.3l-0.1-0.1l-0.1-0.1L139,38l-0.1-0.1l-0.1-0.1h-0.2l-0.3-0.1H138h-3.9l-0.3,0.1h-0.3h-0.3l-0.3-0.1l-0.1-0.1
		l-0.1-0.1l-0.1-0.1l-0.1-0.1l-0.1-0.1v-0.2l-0.1-1.6v-0.1l0.1-0.3l0.1-0.1l-0.1-0.1l-0.1-0.1l-0.1-0.1v-0.1l-0.1-0.3v-0.2v-0.2
		l0.1-0.2l0.1-0.1v-0.8l-0.3-0.5l0.1-1.7l0.1-0.6l-0.1-0.1l-0.1-0.1l-0.2-0.1l-0.2-0.1l-0.3-0.1l-0.4-0.1l-0.5-0.1l-0.2,0.1h-0.1
		h-0.1l-0.1,0.1v0.1l0.1,0.3l0.1,0.1v0.1l-0.1,0.1v0.2v0.5l0.1,0.5l0.1,0.4l0.3,6.3v0.3v0.7v0.3l-0.1,0.3l-0.1,0.3l-0.1,0.1h-0.1
		L130,40l-0.1,0.1l-0.1,0.1v0.1l0.1,0.1h0.1l0.1,0.1h-0.7h-0.1l-0.2,0.1l-0.1,0.1l-0.1,0.3h-0.1l-0.1,0.1l-0.1,0.1h-0.2h-0.2
		l-0.3-0.1l-0.4-0.1l-1.5-0.4h-0.1h-0.1l-0.1-0.1v-0.1l-0.1-0.1l-0.1-0.1l-0.1-0.3v-0.3v-0.8l-0.1-0.7l-0.1-0.6l-0.1-0.5v-0.5
		l-0.1-0.9v-2.8V30v-1l0.1-0.5l-0.5-6.9l-0.1-0.5v-0.6v-0.3v-0.3l0.1-0.2l0.1-0.2l0.1-0.1v-0.2v-0.4l0.1-0.1v-0.1l0.1-0.1l0.1-0.1
		l0.3-0.1l0.4-0.1h0.3h0.7l0.9,0.1l0.5,0.1l0.4,0.1l0.3,0.1l0.3,0.1l0.3-0.1h0.3l0.5-0.1l0.2-0.1l0.1-0.1h0.1l0.1-0.1l0.1-0.1v-0.2
		v-0.1l-0.1-0.2l-0.2-0.4l-0.2-0.3l-0.1-0.2l-0.1-0.2l-0.1-0.3l-0.1-0.1l-0.1-0.1l-0.1-0.1l-0.1-0.1h-0.3l-0.3,0.1l-0.1,0.1
		l-0.4,0.2l-0.3,0.1l-0.4,0.1l-0.4,0.1h-0.5l-1.2,0.1l-0.9,0.1h-0.3h-0.2h-0.3l-0.5,0.1l-0.9,0.2l-0.3,0.1h-0.1l-0.1,0.1h-0.1
		l-0.1-0.1l-0.1-0.1l-0.1-0.1l-0.2-0.4l-0.1-0.2l-0.1-0.1h-0.1l-0.1-0.2l-0.1-0.3v-0.4v-0.3l0.1-0.1l-0.1-0.1l-0.1-0.3l-0.1-0.2
		l-0.1-0.2l-0.1-0.2l-0.2-0.2l-0.1-0.2l-0.1-0.2l-0.1-0.3v-0.2l-0.1-0.2l-0.1-0.5v-0.5l0.1-0.7l0.1-0.6V10V9.6V9.6l0.1-0.1l0.1-0.1
		h0.1l0.1-0.1l0.1,0.1l0.1,0.1l0.2,0.1l0.1,0.1l0.2,0.1l0.3,0.1l0.3,0.2l0.4,0.1l0.3,0.1h0.3l0.3,0.1h0.3L132.4,10.6L132.4,10.6z
		 M177.2,14.3l-0.2,0.4l-0.1,0.3v0.3l0.1,0.3l0.1,0.2l0.1,0.1l0.1,0.1h0.1h0.3h0.3l0.1,0.1l0.1,0.1l0.1,0.1l0.1,0.1l0.1,0.1l0.2,0.1
		h0.3l0.1-0.3l0.5-0.9l0.2-0.3l0.1-0.3v-0.1l-0.1-0.2l-0.1-0.1l-0.1-0.1l-0.1-0.1l-1.1-0.9l-0.2-0.1h-0.1l-0.1-0.1l-0.1,0.1
		l-0.1,0.1l-0.1,0.1l-0.2,0.2l-0.1,0.2l-0.1,0.2L177.2,14.3L177.2,14.3z M174.2,19.7v0.1l-0.1,0.3l-0.1,0.4l-0.1,0.1l-0.1,0.1h-0.1
		l-0.1,0.1l-0.1,0.1v0.1l0.1,0.1l0.1,0.1l0.1,0.1l0.2,0.1h0.1h0.4h0.1l0.2-0.1l0.1-0.1l0.1-0.1l0.1-0.2l0.1-0.2v-0.3v-0.1l-0.1-0.1
		l-0.1-0.1l-0.1-0.1l-0.2-0.2l-0.1-0.1H174.2L174.2,19.7z M178.2,26.9l0.1,0.9v0.1l0.1,0.1l0.1,0.1l0.1,0.1l0.2,0.1l0.3,0.1h0.4
		l0.4-0.1l0.2-0.1L180,28l0.1-0.1l0.1-0.1l-0.1-0.1l0.1-0.3l0.1-0.2l0.1-0.1l0.1-0.1l0.1-0.1V27v-0.2l-0.1-0.2l-0.1-0.2l-0.1-0.2
		l-0.2-0.1L180,26l-0.5,0.1h-0.1l-0.3,0.1l-0.3,0.2l-0.2,0.2l-0.2,0.1L178.2,26.9L178.2,26.9L178.2,26.9z M177.8,31.7l-0.1,0.2v0.1
		l0.1,0.1l0.3,0.4l0.1,0.3l0.2,0.2l0.1,0.1l0.2,0.1l0.3,0.1h0.2h0.1l0.3,0.1h0.2l0.3,0.1h0.3l0.3-0.1l0.3-0.1l0.2-0.1l0.1-0.1v-0.1
		l0.1-0.1v-0.3v-0.1l-1-1.2l-1.3-0.1h-0.3l-0.3,0.1l-0.2,0.1l-0.1,0.1L177.8,31.7L177.8,31.7L177.8,31.7z M178.7,21.4h0.3l0.3,0.1
		h0.1l0.1,0.1l0.2,0.1l0.2,0.1l0.2,0.1h0.2h0.3l0.4,0.1l0.4,0.2l0.2,0.1l0.1,0.1l0.1,0.1l0.1,0.1l0.1,0.3l0.1,0.4v0.5l-0.1,0.9v0.7
		l-0.1,0.5l-0.1,0.3l-0.1,0.3l-0.1,0.4l-0.1,0.2l-0.1,0.2v0.3l-0.1,0.3V28l0.1,0.3l0.1,0.3l0.1,0.1l0.1,0.1l0.1,0.2l0.1,0.1l0.1,0.2
		v0.1v0.2v0.1l-0.2,0.5v0.8l0.1,0.7l0.1,0.6l0.1,0.6v0.3l-0.1,0.3l-0.1,0.3l-0.1,0.2l-0.1,0.1l-0.2,0.3l-0.3,0.2l-0.1,0.1l-0.1,0.1
		l-0.2,0.3l-0.1,0.1v0.1l-0.1,0.1l0.1,0.2V36l0.1,0.1h0.1l0.1,0.1l0.1,0.2l0.1,0.3l0.1,0.2l0.3,0.1l0.3,0.1l0.2,0.1l0.3-0.1h0.2
		l0.2-0.1l0.1-0.1l0.1-0.1l0.1-0.2l0.1-0.1v-0.1v-0.1v-0.1v-0.3v-0.3l0.1-0.3l0.1-0.2l0.1-0.4l0.1-0.1l0.2-1.1l0.1-0.1l0.1-0.3
		l0.1-0.3v-0.2l-0.1-0.1l-0.1-0.3v-0.5l-0.1-1.5l-0.1-2.1l-0.1-3.9l-0.3-2.7l-0.3-4l-0.3-0.3l-0.2-0.1h-0.1h-0.1l-0.1,0.1l-0.1,0.1
		l-0.1,0.1l-0.1,0.1v0.1v0.2l-0.1,0.3l-0.1,0.1l-0.1,0.1l-0.1,0.1l-0.1,0.1l-0.1,0.3l-0.1,0.1v0.2l-0.1,0.2l0.1,0.3v0.3l-0.1,0.1
		l-0.1,0.1h-0.2l-0.3-0.1l-0.3-0.1l-0.3-0.1h-0.3l-0.3,0.1l-0.5,0.1l-0.2,0.1l-0.2,0.3l-0.1,0.2v0.1v0.1v0.1l0.1,0.1l0.1,0.1
		l0.1,0.1l0.1,0.1l0.1,0.1L178.7,21.4L178.7,21.4z M187,15.6l-0.1,0.2l-0.1,0.1h-0.1l-0.1,0.1v0.1l0.1,0.5l0.1,0.3l0.1,0.1l0.1,0.1
		l0.1,0.1h0.1l0.3-0.1l0.6-0.1h0.6l0.3,0.1l0.2,0.1l0.3,0.1l0.3,0.1h0.2l0.3-0.1l0.3-0.1l0.1-0.1l0.5-0.7l0.1-0.1l0.2-0.1l0.1-0.1
		l0.1-0.1v-0.1v-0.1v-0.1l-0.1-0.3l-0.1-0.3l-0.2-0.1l-0.1-0.1l-0.2-0.1h-0.1h-0.1l-0.1,0.1l-0.1,0.1l-0.2,0.1l-0.5-0.1h-0.4
		l-0.2,0.1l-0.1,0.1l-0.1,0.2l-0.1,0.1l-0.2,0.1h-0.1h-0.1h-0.4l-0.4,0.1L187,15.6L187,15.6z M187.5,21.2l-0.5,0.5l-0.2,0.3
		l-0.1,0.2v0.1v0.1v0.1l0.1,0.1l0.1,0.1l0.1,0.3l0.1,0.3l0.1,0.1l0.1,0.2l0.1,0.1l0.1,0.1l0.3,0.1h0.3h0.3l0.6-0.1l0.2-0.1l0.1-0.1
		l0.1-0.1l0.1-0.1l0.2-0.1h0.3l0.3-0.1l0.4-0.1l0.3-0.1l0.1-0.1l0.1-0.1l0.1-0.1l0.1-0.1v-0.3l0.1-0.3l-0.1-0.4l-0.1-0.1l-0.1-0.2
		l-0.1-0.1l-0.1-0.1l-0.4-0.3l-0.2-0.1l-0.2-0.1h-0.2l-0.2,0.1l-0.2,0.1l-0.2,0.2l-0.1,0.1l-0.1,0.1l-0.3,0.1l-0.3,0.1h-0.3
		l-0.3-0.1h-0.2L187.5,21.2L187.5,21.2z M188.9,26.9l-0.1,0.1l-0.2,0.3l-0.1,0.1l-0.1,0.2v0.2v0.1l0.1,0.1l0.1,0.3l0.2,0.3l0.2,0.2
		l0.1,0.1l0.1,0.1l0.3,0.3l0.2,0.4l0.1,0.1l0.1,0.1h0.1l0.1,0.1l0.2-0.1l0.2-0.1l0.3-0.2l0.7-0.4l0.7-0.4l0.7-0.3l1.2-0.9v-0.1
		l0.1-0.1v-0.1l-0.1-0.1L194,27l-0.2-0.1l-0.2-0.1l-1.5-0.3l-0.4,0.1l-0.8,0.2l-1.1,0.2l-0.3,0.1h-0.3l-0.2-0.1L188.9,26.9
		L188.9,26.9z M186.7,29.8v0.9l-0.1,1.1l-0.1,0.2v0.5v0.7v0.4l0.1,0.3v0.1l0.1,0.1l0.1,0.1l0.1,0.1h0.2h0.1l0.2-0.1l0.1-0.1l0.1-0.1
		l0.1-0.1l0.1-0.1L188,34l0.1-0.1h0.1l0.3-0.1v-0.3l0.1-0.1l0.2-0.3l0.2-0.3l0.1-0.1l0.1-0.1l0.1-0.3v-0.2l-0.1-0.3l-0.1-0.2
		l-0.1-0.2l-0.1-0.1l-0.1-0.1l-0.1-0.1l-0.1-0.1l-0.1-0.1l-0.3-0.3l-0.2-0.4V30v-0.2v-0.1l-0.1-0.1l-0.1-0.1l-0.2-0.1l-0.3-0.1h-0.3
		l-0.2,0.1l-0.1,0.1l-0.1,0.1l-0.1,0.1V29.8L186.7,29.8z M175.1,4.8V4.6l0.1-0.1l0.1-0.2l0.1-0.1l0.1-0.1h0.1h0.1l0.1,0.1l0.1,0.1
		l0.1,0.1l0.7,0.7l0.3,0.4l0.2,0.3l0.1,0.3l0.1,0.3l0.2,0.3l0.3,0.2l0.3,0.2L178,7l0.1,0.1l0.2,0.3l0.1,0.3l0.1,0.1v0.1v0.1l0.1,0.1
		l0.3,0.2l0.6,0.4l0.1,0.1l0.1,0.1l0.1,0.2v0.2v0.1l0.1,0.2l0.1,0.2l0.1,0.3l0.1,0.3v0.2v0.1l-0.1,0.1l-0.1,0.1l-0.1,0.1l-0.1,0.1
		l-0.1,0.1v0.1v0.1l0.1,0.1l0.1,0.2L180,12l0.3,0.1l0.6,0.3h0.3l0.2,0.1l0.2-0.1l0.2-0.1L182,12l0.3-0.3l0.2-0.3l0.1-0.1v-0.1h-0.1
		l-0.1-0.3l-0.1-0.4l-0.1-0.4l0.1-0.2l0.1-0.1l0.1-0.2V9.4V9.2V9l-0.1-0.3l-0.1-0.1V8.4V8.2V8l0.1-0.2l0.1-0.1l0.1-0.1h0.1h0.1
		l0.2,0.1l1.5,1l0.8,0.7l0.3,0.3l0.1,0.2l0.1,0.1l0.1,0.1h0.3l1.2-0.2l0.8-0.1l0.9-0.1h0.5l0.5,0.1l0.5,0.1l0.5,0.1l0.2,0.1h0.4h0.2
		L192,10h0.1l0.1-0.1l0.1-0.1l0.1-0.1l0.1-0.2l0.2-0.1l0.3-0.1h0.1l0.1,0.1l0.2,0.1h0.1V9.4l0.2-0.2l0.1-0.1l0.1-0.1l0.2-0.1h0.1
		h0.1h0.3l0.3-0.1l0.5-0.3l0.2-0.1l0.1,0.1l0.2,0.2l0.1,0.2v0.3v0.7L196,10v0.3l0.1,0.2l0.1,0.2v0.1l0.1,0.1v0.4v0.5l-0.1,0.5
		l-0.1,1v0.5l-0.1,0.1l-0.1,0.2l-0.1,0.2l-0.1,0.1v0.1l-0.1,0.6l-0.1,1.1l-0.1,1.2l-0.1,0.5l-0.1,0.2l-0.1,0.1l-0.1,0.2l-0.1,0.2
		v0.5v0.7v0.7l0.1,1.4l0.1,1V23l-0.1,0.4l-0.1,0.6l-0.1,0.3l-0.1,0.3l-0.1,0.3l-0.1,0.4l-0.1,0.3V26v0.1v0.1l0.1,0.1v0.1l0.1,0.1
		l0.1,0.1h0.1h0.1l0.3-0.1l0.3-0.1l0.3-0.1l0.1-0.1l0.2-0.2l0.1-0.3l0.3-0.5l0.2-0.4l0.1-0.1l0.1-0.1h0.1l0.1,0.1l0.2,0.3h0.1
		l0.2,0.1l0.2,0.1l0.2,0.1l0.1,0.2l0.1,0.1v0.1v0.1v0.2l-0.3,0.9l0.3,0.5l0.1,0.1v0.1l-0.1,0.1l-0.1,0.1l-0.1,0.1l-0.1,0.2v0.1v0.2
		v0.2l0.1,0.3l0.1,0.2l0.1,0.1l0.1,0.1l0.1,0.1l0.1,0.2l0.1,0.1l-0.1,0.1l-0.1,0.1l-0.3,0.1h-0.1L198,30l-0.1,0.1l-0.2,0.1l-0.1,0.1
		l-0.1,0.2l-0.1,0.2l-0.3,0.1l-0.3,0.1l-0.3,0.1h-0.4h-0.5h-0.3l-0.3-0.1l-0.6-0.1l-0.5-0.2l-0.3-0.1h-0.3h-0.1l-0.1,0.1l-0.1,0.1
		l-0.1,0.3l-0.2,0.3l-0.1,0.2v0.2v0.1v0.1l0.1,0.1l0.1,0.1l0.3,0.3l0.3,0.3l0.3,0.1l0.2,0.1l0.4,0.1l0.4,0.1h0.4l0.5,0.1l0.3,0.1
		l0.2,0.1l0.6,0.3l0.7,0.3l0.2,0.1l0.3,0.1l0.2,0.1h0.3h0.5l0.4-0.1l0.4-0.1l0.3-0.1l0.3-0.1l-0.1,0.5l-0.1,1.1l-0.1,0.6l-0.2,0.7
		l-0.2,0.7l-0.3,0.6l-0.6,0.9l-0.4,0.5l-0.3,0.3l-0.2,0.1L197,40l-0.5,0.5l-0.2,0.3l-0.1,0.1l-0.1,0.2h-0.1H196l-0.3-0.1v-0.1
		l-0.1-0.1l-0.1-0.2l-0.1-0.2l-0.1-0.1l-0.1-0.1h-0.1l-0.3-0.1h-0.1l-0.3-0.1l-0.3-0.3l-0.4-0.4l-0.2-0.1l-0.4-0.3l-0.3-0.3
		l-0.3-0.3l-0.4-0.5l-0.4-0.6l-0.1-0.3l-0.1-0.3l-0.1-0.3l-0.1-0.2l-0.1-0.1l-0.1-0.1l-0.1-0.1l-0.2-0.1h-0.1h-0.2l-0.1,0.1L190,36
		l-0.1,0.1l-0.1,0.1v0.1v0.1l-0.1,0.2l-0.2,0.2l-0.4,0.3l-0.3,0.2l-0.2,0.1l-0.3,0.3l-0.1,0.1l-0.1,0.1l-0.1,0.2l-0.1,0.1v0.1v0.1
		v0.1l-0.2,0.3l-0.2,0.2l-0.3,0.3l-0.4,0.3l-0.3,0.2l-0.3,0.1l-0.6,0.3l-0.9,0.3l-1.1,0.6h-1.1l-0.3,0.2l-0.3,0.1l-0.3,0.1l-0.3,0.1
		h-0.3l-0.1-0.1l-0.1-0.1l-0.1-0.1l-0.1-0.1v-0.1V41l-0.1-0.1l-0.1-0.2l-0.1-0.1l-0.1-0.1l-0.1-0.1l-0.1-0.1v-0.1v-0.1v-0.3l0.1-0.7
		l-0.1-0.3l-0.1-0.2l-0.1-0.2l-0.2-0.3l-0.2-0.1l-0.3-0.1l-0.2-0.1l-0.1-0.1h-0.2l-0.1,0.1h-0.1l-0.1,0.1l-0.2,0.1l-0.2,0.2
		l-0.3,0.3l-0.1,0.2l-0.1,0.1l-0.3,0.2l-0.1,0.1l-0.2,0.1l-0.3,0.1l-0.3-0.1h-0.1l-0.1,0.1l-0.1,0.1l-0.1,0.1l-0.2,0.3l-0.1,0.1
		l-0.5,0.3l-0.4,0.1h-0.2h-0.1h-0.1l-0.1,0.1l-0.2,0.2L174,41L174,41l-0.1,0.1l-0.1,0.1h-0.1l-0.2-0.1l-0.1-0.1l-0.1-0.1l-0.3-0.3
		l-1.1-1.2l-0.4-0.6l-0.1-0.2l-0.3-0.3l-0.1-0.2l-0.2-0.2l-0.2-0.1l-0.1-0.1l-0.1-0.1h-0.2l-0.1-0.1l-0.1-0.1v-0.1l0.1-0.2l0.1-0.1
		l-0.9-2.2v-0.1v-0.1l0.1-0.1h0.1l0.1-0.1h0.2l0.2,0.1l0.3,0.1l0.3,0.1h0.8h0.4l0.4-0.1l0.3-0.1l0.3-0.2l0.3-0.2l0.3-0.1l0.3-0.1
		l0.1-0.1h0.3l0.1,0.1l0.2-0.1l0.4-0.3l0.2-0.3l0.1-0.3l0.1-0.2l0.1-0.2l0.1-0.2v-0.3v-0.2l-0.1-0.2l-0.1-0.2l-0.1-0.1l-0.1-0.1
		l-0.1-0.1l-0.2-0.1l-0.2-0.1l-0.2,0.1h-0.2l-0.1,0.1l-0.2,0.1l-0.1,0.1l-0.1,0.1l-0.1,0.2l-0.1,0.3l-0.1,0.1l-0.1,0.1l-0.2,0.2
		l-0.3,0.2l-0.3,0.2l-0.3,0.1l-0.3,0.1h-0.1h-0.1h-0.1l-0.1-0.2l-0.1-0.1v-0.3v-0.4V32l-0.1-0.3l-0.1-0.5l-0.1-0.4l-0.1-0.2
		l-0.1-0.3l-0.2-0.6l-0.1-0.3v-0.3v-0.3v-0.1l0.1-0.1h0.1l0.1-0.1l0.3-0.1h0.3l0.3,0.1l0.5,0.1l0.2,0.1h0.5l0.4,0.1h0.5l0.5-0.1
		l0.4-0.1l0.1-0.1l0.1-0.1l0.1-0.1V28l0.1-0.6v-0.1v-0.1L175,27l-0.1-0.2l-0.1-0.1l-0.3-0.1h-0.3l-1.7,0.4l-0.1,0.1l-0.1-0.1h-0.1
		l-0.1-0.1l-0.2-0.1l-0.1-0.2l-0.1-0.1v-0.1l-0.1-0.3l-0.1-0.2l-0.2-0.2l-0.1-0.2l-0.1-0.1h-0.1h-0.1h-0.1l-0.1,0.1l-0.1,0.1V26
		l-0.1,0.3l-0.1,0.3v0.3l-0.1,0.3l-0.2,0.3l-0.1,0.2l-0.1,0.1l-0.1,0.1l-0.1,0.1l-0.1,0.3l-0.1,0.1l-0.1,0.2l-0.2,0.1l-0.1,0.1h-0.1
		l-0.1,0.1l-0.1,0.2l-0.1,0.2v0.2l0.1,0.5v0.3v0.1h-0.1l-0.1,0.1h-0.1l-0.2-0.1l-0.1-0.1l-0.3-0.2l-0.3-0.1l-0.2-0.1l-0.2-0.1
		l-0.2-0.2l-0.1-0.2l-0.1-0.2l-0.1-0.2v-0.1l-0.8-0.3h-0.3l-0.2-0.1l-0.3-0.1l-0.3-0.1l-0.1-0.1l-0.1-0.1l-0.1-0.1v-0.1v-0.3v-0.3
		V27v-0.1l-0.1-0.1l-0.1-0.1h-0.1l-0.1-0.1l-0.1-0.1v-0.1l0.1-0.1l0.1-0.1l0.3-0.2l0.1-0.1l0.2-0.1l0.5-0.2l0.7-0.2h0.1l0.3-0.1
		l0.5-0.1l0.3-0.1l0.3-0.1l0.3-0.2l0.3-0.3l0.3-0.3l0.3-0.3l0.3-0.5l0.3-0.5l0.3-0.6l0.3-0.7l2.5-5.3l0.7-3.2l0.6-2.5l0.3-1.1
		l0.2-0.7l0.1-0.3l0.2-0.6l0.1-0.8L175,7l0.1-0.5l0.1-1.3V4.8L175.1,4.8z M227.1,9.8l0.8,0.3l1.3-0.1l1.8,0.1h0.3l0.2-0.1l0.5-0.2
		l0.1-0.1l0.2-0.1h0.3l0.3,0.1l1,0.1l1.5,0.2l0.4,0.1h0.5h0.4h0.3l0.7-0.1l0.5-0.1l0.5-0.2l0.3-0.1l0.3-0.1l1.5-0.8V8.7l0.1-0.1
		l0.1-0.1l0.2-0.1l0.3-0.1l0.4-0.1l0.5-0.1l0.3-0.1h0.2l0.2,0.1l0.1,0.1l0.1,0.1l0.1,0.1l0.1,0.1l0.1,0.1v0.3L243.2,9v0.3v1.6
		l-0.3,2l-0.1,1.4l-0.1,0.3l-0.3,1.1l-0.1,0.3l-0.1,0.1l-0.1,0.1l-0.1,0.1l-0.1,0.1h-0.3l-0.7-0.1l-0.9-0.2l-0.5-0.1h-0.5l-0.5,0.1
		H238l-0.9,0.1l-0.7,0.1h-0.5H235l-2.7,0.2l-4,0.2l-0.3,0.1l-0.2,0.1l-0.1,0.1v-0.3v-0.7l-0.1-0.8l-0.1-0.3l-0.1-0.3l-0.1-0.3
		l-0.1-0.3l-0.1-0.6l-0.1-1.1l-0.1-0.5l-0.1-0.5l-0.2-0.7l-0.1-0.2l-0.1-0.2V9.9l0.1-0.1h0.1H227.1L227.1,9.8z M223.3,5.8l0.3-0.1
		l0.3-0.1l0.1-0.1l0.1-0.1h0.1l0.1,0.1l0.2,0.4l0.1,0.2l0.1,0.1l0.3,0.1h0.1h0.2h0.1h0.1l0.1,0.1v0.1v0.3V7l0.1,0.1l0.3,0.5l0.1,0.1
		l0.1,0.1l0.1,0.1V8v0.2l-0.1,0.2l-0.1,0.2l-0.3,0.3l-0.2,0.4l-0.1,0.3v0.3v0.3l0.1,0.3l0.1,0.3l0.1,0.3l0.1,0.5V12l-0.1,0.1
		l0.1,0.5l0.1,0.3v0.2l0.1,0.1v0.1l0.1,0.2v0.5l-0.1,0.5l-0.1,0.2l-0.1,0.1l-0.1,0.1l-0.1,0.1v0.3v0.3l0.1,0.4v0.2l-0.1,0.1v0.1
		h-0.1h-0.1l-0.1-0.1h-0.1l-0.3-0.1l-0.2,0.1h-0.3l-0.2,0.1l-0.2,0.1l-0.2,0.1l-0.1,0.1l-0.1,0.1l-0.1,0.1l-0.1,0.1l-0.1,0.1v0.3
		v0.4l0.1,0.3l0.1,0.2l0.1,0.2l0.1,0.2l0.3,0.1l0.2,0.1h0.2h0.4l0.3,0.1l0.1,0.1l0.1,0.1l0.1,0.1v0.1v0.1l0.2,0.4l0.1,0.2l0.1,0.1
		l0.1,0.1l0.1,0.1l0.2,0.2l0.1,0.1l0.1,0.1l0.1,0.1l0.2,0.1h0.1l0.1-0.1l0.1-0.1l0.1-0.1l0.1-0.2l0.1-0.1v-0.1v-0.1l-0.1-0.2
		l-0.1-0.5v-0.1v-0.2h0.1v-0.1l0.1-0.1l0.1-0.1l0.1-0.1h0.1l0.6-0.1l1.1-0.1l3.2-0.1l4.4-0.1l2.1-0.2l0.5-0.1l1.3-0.1l1.5-0.2
		l0.6-0.1l0.5-0.1l0.7-0.3l0.6-0.4l0.5-0.3l0.1-0.1l0.1-0.1h0.1V17v0.4l-0.1,0.7v0.6l-0.1,0.6l0.1,1.7v0.9l-0.1,0.3v0.1l-0.1,0.1
		l-0.1,0.3v0.1v0.1V23l0.1,0.2l0.3,0.4l0.1,0.3l0.1,0.2v0.1v0.1l-0.1,0.1h-0.1l-0.1-0.1l-0.1-0.1l-0.1-0.1L245,24h-0.1h-0.1h-0.3
		l-0.3,0.1H244l-0.3,0.1l-0.5-0.1h-0.1l-0.1,0.1l-0.1,0.1l-0.1,0.1h-0.1h-0.1l-0.7-0.1l-1.1-0.3h-0.1h-0.3l-0.5,0.1l-0.6,0.2H239
		h-0.3l-0.3,0.1l-0.2,0.1l-0.2,0.1l-0.1,0.2l-0.1,0.1v0.1l0.2,1.1l0.1,0.5l-0.1,0.7l-0.1,0.5l-0.1,0.5l-0.1,0.2v0.2l0.1,0.1V29
		l0.1,0.2l0.1,0.3v0.1l0.1,0.3l0.1,0.9l0.2,2.7l0.2,3.9v3.4V41v0.1l-0.1,0.1l-0.1,0.2l-0.2,0.1l-0.2,0.1l-0.4-0.1l-0.5-0.1h-0.7
		h-1.5h-1.3h-0.5l-1.9-0.3l-1.4-0.1l-0.1-0.2l-0.1-0.2l-0.1-0.3l-0.1-0.1l-0.1-0.1l-0.1-0.1h-0.1h-0.2l-0.1-0.1l-0.1-0.1l-0.2-0.3
		l-0.2-0.4l-0.1-0.2v-0.3l0.1-0.2l0.2-0.1l0.1-0.1l0.1-0.1l0.1-0.1v-0.2v-0.1l0.1-0.1h0.1h0.1l0.3,0.1l0.5,0.2l0.5,0.1l0.3,0.1
		l0.2-0.1l0.3-0.1l0.3-0.1l0.5-0.5l0.4-0.3l0.3-0.3l0.1-0.1l0.2-0.9V35l0.1-0.8l0.1-0.4l0.1-0.4l0.1-0.3v-0.4v-0.4l-0.1-0.4
		l-0.1-0.5l-0.1-0.3v-0.8l0.1-0.7l0.1-0.5l0.1-0.2v-0.3L233,28l-0.1-0.9l-0.1-1.7v-0.1v-0.2l-0.1-0.1l-0.1-0.1l-0.1-0.1l-0.1-0.1
		l-0.2-0.1l-0.4-0.1l-0.6,0.1l-1.9,0.2l-0.5,0.1l-2.4-0.3l-0.1-0.1l-0.1-0.1v-0.1v-0.1l0.1-0.3l0.1-0.2l0.1-0.3v-0.1l0.1-0.1v-0.1
		l-0.1-0.1l-0.1-0.1l-0.1-0.1h-0.3l-0.5,0.1h-0.4l-0.1,0.1l-0.1,0.1l-0.1,0.1v0.1v0.1l-0.1,0.1l-0.1,0.1l-0.1,0.1h-0.3l-0.4,0.5
		l-0.4,0.3l-0.1,0.1l-0.1,0.1h-0.1l-0.1,0.1V25l0.1,0.3l0.1,0.2l0.1,0.2l0.1,0.1l-0.1,0.2l-0.1,0.2v0.1l0.1,0.1v0.1l0.1,0.1l0.1,0.1
		l0.2,0.1l0.1,0.1l0.1,0.1v0.3l-0.1,0.8v0.3l0.1,0.3l0.1,0.3l-0.1,0.3l-0.1,0.4l-0.1,0.5v0.5v0.5l0.1,0.5l0.1,0.4l0.1,0.1v0.1v0.3
		v0.5l-0.1,0.4l-0.1,1.1l0.1,1.5l-0.1,1.7v0.3l-0.1,0.3l-0.1,0.3l-0.1,0.3l-0.1,0.3l-0.1,0.3l-0.1,0.2l-0.3,0.3l-0.3,0.3l-0.3,0.2
		l-0.1,0.3l-0.1,0.2l-0.1,0.1l-0.1,0.1l-0.1,0.1l-0.3,0.1l-0.3,0.1h-0.3h-0.4l-0.5-0.1l-0.3-0.1l-0.3-0.1L219,41l-0.6-0.3l-0.4-0.3
		l-0.1-0.1h-0.1l-0.3-0.1h-0.1h-0.1h-0.1l-0.1-0.1l-0.3-0.1l-0.7-0.3l-0.1-0.1l-0.1-0.1v-0.1v-0.1l0.1-0.1l0.1-0.1l0.3-0.1l0.4-0.1
		l0.3-0.1l0.1-0.1l0.1-0.1l0.1-0.1v-0.1l0.1-0.2l0.2-0.2L218,38l0.3-0.1l0.1-0.1v-0.1l0.1-0.1v-0.5v-0.6l0.1-0.3v-0.1l0.1-0.1
		l0.1-0.3l0.1-0.2v-0.2v-0.2l-0.1-0.2l-0.1-0.1l0.1-0.9l-0.1-1.4l-0.1-1.1v-0.5l0.1-0.4l0.1-0.3l0.1-0.3v-0.3v-0.3l-0.1-0.3
		l-0.1-0.3l-0.1-0.3l-0.1-0.1l-0.1-0.1l-0.1-0.1h-0.2l-0.2,0.1l-0.1,0.1l-0.1,0.1l-0.1,0.1l-0.1,0.1l-0.7,0.7l-0.2,0.3L216,30
		l-0.3,0.3l-0.3,0.3l-0.3,0.2l-0.2,0.1l-0.2,0.1h-0.2l-0.2-0.1l-0.3-0.1l-0.2-0.1h-0.2h-0.1l-0.1,0.1v0.1l-1.7-1.1v-0.1l-0.1-0.3
		l-0.1-0.1l-0.1-0.1l-0.1-0.1l-0.2-0.1l-0.1-0.1l-0.1-0.1v-0.2v-0.2l-0.1-0.1l-0.1-0.1h-0.1v-0.1V28l0.1-0.1l0.1-0.1l0.3-0.1
		l0.6-0.3l0.4-0.1l0.4-0.2l0.3-0.2l0.1-0.1l0.2-0.1l0.3-0.1l0.4-0.1l0.5-0.2l0.1-0.1l0.2-0.1l0.1-0.1l0.1-0.2l0.1-0.1l0.1-0.1
		l0.1-0.1l0.1-0.1l0.3-0.1h0.1l0.4-0.4l0.3-0.2l0.2-0.1h0.1l0.1-0.1l0.1-0.1L217,24l0.1-0.3l0.1-0.1l0.1-0.1l0.3-0.3l0.2-0.1
		l0.1-0.1l0.3-0.4v-0.1l0.1-0.4l0.1-0.2l0.1-0.2l0.1-0.2l0.1-0.1l0.1-0.1l0.2-0.1L219,21l0.1-0.1v-0.1l-0.1-0.2l-0.3-0.3l-0.3-0.3
		l-0.2-0.3l-0.1-0.2H218h-0.3h-0.2l-0.2,0.1l-0.1,0.1l-0.1,0.1l-0.3,0.3l-0.3,0.3l-0.3,0.2l-0.7,0.5l-0.1,0.1l-0.4,0.1l-0.3,0.1
		h-0.2h-0.2l-0.1-0.1l-0.1-0.1l-0.1-0.1l-0.2-0.1l-0.1-0.1h-0.5l-0.1-0.2l-0.1-0.2l-0.2-0.3l-0.1-0.1l-0.1-0.1v-0.2l-0.1-0.1
		l-0.1-0.1h-0.1l-0.1-0.1l-0.1-0.1v-0.1l-0.1-0.1l-0.1-0.2v-0.1l0.1-2.1l0.7-0.5l0.8-0.3l0.7-0.6l0.2-0.1l0.2-0.1l0.1-0.1h0.1
		l0.3,0.1h0.1l0.2-0.1l0.2-0.1l0.2-0.1l0.3-0.3l0.1-0.1l1.3-1.3l0.9-1.1l0.4-0.5l0.2-0.3l0.4-0.3l0.1-0.1l0.1-0.5l0.1-0.1v-0.1
		l0.2-0.1l0.1-0.1l0.1-0.1l0.1-0.1l0.1-0.3V9.4V9.2l0.1-0.3l0.1-0.3l0.2-0.1l0.5-0.3l0.1-0.1l0.1-0.1l0.1-0.3l0.1-0.3l0.1-0.3
		l0.2-0.3l0.3-0.3l0.4-0.3L223.3,5.8L223.3,5.8z"/>
	<path class="st1" d="M77.7,57.2h-0.4l-0.4-0.1L76.5,57L76,56.9l-0.4-0.1l-0.3-0.2l-0.3-0.2l-0.3-0.3l-0.3-0.3L74,55.5l-0.2-0.3
		l-0.2-0.4l-0.1-0.4l-0.1-0.4l-0.1-0.4V53v-0.5l0.1-0.5l0.1-0.4l0.1-0.4l0.2-0.4l0.2-0.3l0.3-0.3l0.3-0.3l0.3-0.3l0.3-0.2l0.4-0.2
		l0.4-0.2l0.4-0.1l0.5-0.1l0.5-0.1H78h0.7l0.3,0.1l0.3,0.1l0.6,0.2l0.5,0.2l0.3-0.4h0.5l0.1,3h-0.5l-0.1-0.5l-0.2-0.5l-0.3-0.4
		L80,50.2L79.8,50l-0.1-0.2l-0.2-0.1l-0.2-0.1l-0.2-0.1l-0.3-0.1l-0.2-0.1L78,49.2h-0.3l-0.3,0.1l-0.3,0.1l-0.3,0.1l-0.3,0.1
		l-0.3,0.2L76,49.9l-0.2,0.2l-0.2,0.3l-0.1,0.3L75.3,51l-0.1,0.3l-0.1,0.4L75,52.1l-0.1,0.4v0.4v0.4l0.1,0.3l0.1,0.3l0.1,0.3
		l0.1,0.3l0.1,0.3l0.2,0.3l0.2,0.3l0.2,0.2l0.3,0.2l0.3,0.2l0.3,0.1l0.3,0.1l0.3,0.1l0.3,0.1h0.3l0.5-0.1l0.5-0.1l0.4-0.2l0.4-0.2
		l0.3-0.3l0.3-0.3l0.3-0.3l0.2-0.3l0.5,0.2l-0.3,0.6L80.9,56l-0.4,0.3L80,56.7l-0.5,0.2L79.3,57L79,57.1h-0.3l-0.3,0.1H77.7
		L77.7,57.2z M92.4,57h-4.1v-0.4l0.5-0.1h0.3l0.2-0.1l0.1-0.1l0.1-0.1l0.1-0.1v-0.2V53h-4.5v2.8v0.2l0.1,0.1l0.1,0.1l0.1,0.1
		l0.4,0.1l0.5,0.1V57h-4.1v-0.4l0.5-0.1h0.3l0.2-0.1l0.1-0.1l0.1-0.1l0.1-0.1v-0.2v-5.9v-0.2l-0.1-0.1l-0.1-0.1l-0.1-0.1l-0.5-0.1
		l-0.5-0.1v-0.4h4.1v0.4l-0.5,0.1l-0.4,0.1l-0.1,0.1l-0.1,0.1l-0.1,0.1v0.1V50v2.5h4.5v-2.4v-0.2l-0.1-0.1l-0.1-0.1l-0.1-0.1
		l-0.5-0.1l-0.5-0.1v-0.4h4.1v0.4l-0.5,0.1l-0.4,0.1l-0.1,0.1l-0.1,0.1l-0.1,0.1v0.1V50v5.8v0.2l0.1,0.1l0.1,0.1l0.1,0.1l0.4,0.1
		l0.5,0.1V57L92.4,57z M97.9,57h-4.4v-0.4l0.6-0.1h0.3l0.1-0.1l0.2-0.1l0.1-0.1l0.1-0.1l0.1-0.2V50L95,49.9v-0.1l-0.1-0.1l-0.1-0.1
		l-0.3-0.1l-0.5-0.1l-0.6-0.1v-0.4h4.4v0.4l-0.5,0.1l-0.5,0.1l-0.2,0.1l-0.1,0.1l-0.1,0.1V50v5.8v0.2l0.1,0.1l0.1,0.1l0.2,0.1
		l0.5,0.1l0.6,0.1V57L97.9,57z M109.1,49.3l-0.6,0.1l-0.3,0.1l-0.2,0.1l-0.1,0.1l-0.1,0.1l-0.1,0.3l-0.1,0.5v0.5v6h-0.6l-5.9-6.7
		v4.2v0.6l0.1,0.5l0.1,0.3l0.1,0.2l0.3,0.1l0.4,0.1l0.6,0.1V57h-4v-0.4l0.3-0.1l0.3-0.1l0.3-0.1l0.2-0.1l0.1-0.1l0.1-0.1l0.1-0.1
		l0.1-0.2l0.1-0.4v-0.7v-4v-0.3l-0.1-0.3l-0.1-0.2l-0.2-0.2l-0.3-0.1l-0.3-0.2l-0.4-0.1l-0.3-0.1v-0.4h2.8l5.5,6.3v-3.9v-0.6
		l-0.1-0.5l-0.1-0.3l-0.1-0.1l-0.1-0.1l-0.3-0.1l-0.3-0.1l-0.7-0.1v-0.4h4V49.3L109.1,49.3z M118.9,57h-4.1v-0.4l0.5-0.1l0.3-0.1
		l0.3-0.1l0.1-0.1l0.1-0.1l-0.1-0.1V56l-0.8-1.8h-3.4l-0.1,0.3l-0.1,0.3l-0.2,0.6l-0.1,0.4l-0.1,0.2l0.1,0.1l0.1,0.1l0.3,0.2
		l0.4,0.1l0.5,0.1V57h-3.7v-0.4l0.5-0.1l0.2-0.1l0.2-0.1l0.3-0.2l0.1-0.1l0.2-0.2l0.1-0.3l0.8-1.6l0.8-1.9l1.6-3.4h0.5l3.3,7
		l0.1,0.2l0.1,0.1l0.1,0.1l0.2,0.1l0.2,0.1l0.2,0.1l0.5,0.1V57L118.9,57z M114.9,53.7l-1.4-3.2l-1.4,3.2H114.9L114.9,53.7z
		 M134.1,57h-4.3v-0.4l0.6-0.1h0.3l0.2-0.1l0.2-0.1l0.1-0.1l0.1-0.1v-0.2v-5.9h-0.1l-3.4,7h-0.3l-3.2-7.1h-0.1v4.8v0.7l0.1,0.4
		l0.1,0.3l0.1,0.1l0.1,0.1l0.3,0.1l0.3,0.1l0.6,0.1V57H122v-0.4l0.6-0.1l0.3-0.1l0.2-0.1l0.1-0.1l0.1-0.1l0.1-0.1l0.1-0.1l0.1-0.5
		v-0.7v-4.1v-0.3l-0.1-0.3l-0.1-0.2l-0.2-0.1l-0.2-0.1l-0.3-0.1l-0.3-0.1l-0.3-0.1v-0.4h3.3l2.8,6.1l2.4-5.1l0.2-0.6l0.1-0.4h3.2
		v0.4l-0.5,0.1l-0.5,0.1l-0.2,0.1l-0.1,0.1l-0.1,0.1l-0.1,0.2v5.8l0.1,0.2l0.1,0.1l0.1,0.1l0.2,0.1l0.5,0.1l0.5,0.1V57L134.1,57z
		 M143.4,54.6l-0.1,2.4h-8.1v-0.4l0.6-0.1h0.3l0.1-0.1l0.2-0.1l0.1-0.1l0.1-0.2v-0.1v-5.9v-0.2l-0.1-0.1l-0.1-0.1l-0.1-0.1l-0.2-0.1
		l-0.5-0.1l-0.5-0.1v-0.4h7.6v2h-0.5l-0.1-0.2l-0.1-0.3l-0.4-0.5l-0.2-0.2l-0.2-0.1l-0.2-0.1h-0.2l-0.6-0.1h-0.6H138v3.2h1.1h0.5
		l0.3-0.1l0.2-0.1l0.2-0.1l0.1-0.2l0.1-0.3l0.1-0.3l0.1-0.2h0.5v3.2h-0.5l-0.1-0.3l-0.1-0.3l-0.1-0.2l-0.1-0.2l-0.3-0.2l-0.2-0.1
		l-0.3-0.1h-0.4H138v2.4l0.1,0.3v0.3l0.1,0.1v0.1l0.1,0.1l0.2,0.1h0.3l0.9,0.1h0.5l0.6-0.1h0.3l0.3-0.1l0.3-0.1l0.1-0.1l0.3-0.3
		l0.3-0.5l0.3-0.5l0.1-0.3H143.4L143.4,54.6z M153.8,57h-2.6l-1.6-2l-0.8-0.8l-0.8-0.9h-1v2.6v0.1l0.1,0.2l0.1,0.1l0.1,0.1l0.2,0.1
		l0.1,0.1h0.3l0.6,0.1V57h-4.1v-0.4l0.5-0.1l0.4-0.1l0.2-0.1l0.1-0.1l0.1-0.1l0.1-0.2V50v-0.2l-0.1-0.1l-0.1-0.1l-0.1-0.1l-0.2-0.1
		l-0.4-0.1l-0.5-0.1v-0.4h4.5l0.6,0.1L150,49l0.5,0.1l0.2,0.1l0.3,0.1l0.1,0.1l0.2,0.1l0.1,0.1l0.1,0.2l0.1,0.1l0.1,0.3l0.1,0.2v0.3
		V51v0.2l-0.1,0.2l-0.1,0.2l-0.1,0.1l-0.1,0.2l-0.3,0.3l-0.3,0.2l-0.4,0.2l-0.4,0.1l-0.5,0.1l1.2,1.4l1.2,1.3l0.3,0.3l0.3,0.2
		l0.5,0.2l0.5,0.1l0.4,0.1V57L153.8,57z M150.2,50.9v-0.3l-0.1-0.3l-0.1-0.1l-0.1-0.1l-0.2-0.3l-0.3-0.1l-0.3-0.1l-0.4-0.1l-0.4-0.1
		h-1.2v3.5h0.9l0.5-0.1l0.4-0.1l0.2-0.1l0.1-0.1l0.3-0.2l0.1-0.1l0.1-0.1l0.2-0.3l0.1-0.4v-0.1V50.9L150.2,50.9z M158.4,57.2H158
		l-0.4-0.1l-0.4-0.1l-0.4-0.1l-0.4-0.1l-0.3-0.2l-0.3-0.2l-0.3-0.3l-0.3-0.3l-0.3-0.3l-0.2-0.3l-0.2-0.4l-0.2-0.4l-0.1-0.4l-0.1-0.4
		V53v-0.5l0.1-0.5l0.1-0.4l0.2-0.4l0.2-0.4l0.2-0.3l0.3-0.3l0.3-0.3l0.3-0.3l0.3-0.2l0.4-0.2l0.4-0.2l0.4-0.1l0.4-0.1l0.5-0.1h0.5
		h0.7l0.3,0.1l0.3,0.1l0.5,0.2l0.6,0.2l0.3-0.4h0.5l0.1,3h-0.6l-0.1-0.5l-0.2-0.5l-0.2-0.4l-0.1-0.2l-0.1-0.2l-0.2-0.2l-0.1-0.1
		l-0.2-0.1l-0.3-0.1l-0.2-0.1l-0.3-0.1l-0.5-0.1h-0.3l-0.3,0.1l-0.3,0.1l-0.3,0.1l-0.3,0.1l-0.3,0.2l-0.2,0.2l-0.2,0.2l-0.2,0.3
		l-0.1,0.3L156,51l-0.1,0.3l-0.1,0.4l-0.1,0.3v0.4l-0.1,0.4l0.1,0.4v0.3l0.1,0.3l0.1,0.3l0.1,0.3l0.1,0.3l0.2,0.3l0.2,0.3l0.2,0.2
		l0.3,0.2l0.3,0.2l0.3,0.1l0.3,0.1l0.3,0.1l0.3,0.1h0.3l0.5-0.1l0.5-0.1l0.5-0.2l0.3-0.2l0.3-0.3l0.3-0.3l0.2-0.3l0.2-0.3l0.6,0.2
		l-0.3,0.6l-0.3,0.5l-0.4,0.3l-0.5,0.3l-0.6,0.2l-0.3,0.1l-0.3,0.1h-0.3l-0.3,0.1H158.4L158.4,57.2z M173.1,57H169v-0.4l0.5-0.1h0.3
		l0.1-0.1l0.2-0.1l0.1-0.1l0.1-0.1v-0.2V53h-4.6v2.8l0.1,0.2v0.1l0.1,0.1l0.2,0.1l0.4,0.1l0.5,0.1V57H163v-0.4l0.5-0.1h0.3l0.1-0.1
		l0.2-0.1l0.1-0.1l0.1-0.1v-0.2v-5.9v-0.2l-0.1-0.1l-0.1-0.1l-0.2-0.1l-0.4-0.1l-0.5-0.1v-0.4h4.1v0.4l-0.5,0.1l-0.4,0.1l-0.2,0.1
		l-0.1,0.1v0.1v0.1l-0.1,0.2v2.5h4.6v-2.4v-0.2l-0.1-0.1l-0.1-0.1l-0.2-0.1l-0.4-0.1l-0.5-0.1v-0.4h4.1v0.4l-0.5,0.1l-0.4,0.1
		l-0.2,0.1l-0.1,0.1v0.1v0.1l-0.1,0.2v5.8l0.1,0.2v0.1l0.1,0.1l0.2,0.1l0.4,0.1l0.5,0.1V57L173.1,57z M183.4,57h-4.1v-0.4l0.5-0.1
		l0.4-0.1l0.3-0.1l0.1-0.1v-0.1v-0.1l-0.1-0.1l-0.8-1.8h-3.4l-0.2,0.3l-0.1,0.3l-0.2,0.6l-0.1,0.4v0.2v0.1l0.1,0.1l0.3,0.2l0.5,0.1
		l0.5,0.1V57h-3.6v-0.4l0.5-0.1l0.2-0.1l0.2-0.1l0.3-0.2l0.1-0.1l0.1-0.2l0.1-0.3l0.8-1.6l0.8-1.9l1.6-3.4h0.5l3.2,7l0.1,0.2
		l0.1,0.1l0.1,0.1l0.2,0.1l0.2,0.1l0.2,0.1l0.4,0.1V57L183.4,57z M179.5,53.7l-1.4-3.2l-1.5,3.2H179.5L179.5,53.7z M193.7,49.3
		l-0.6,0.1l-0.3,0.1l-0.2,0.1l-0.1,0.1l-0.1,0.1l-0.1,0.3l-0.1,0.5v0.5v6h-0.6l-5.9-6.7v4.2l0.1,0.6l0.1,0.5l0.1,0.3l0.2,0.2
		l0.2,0.1l0.4,0.1l0.7,0.1V57h-4.1v-0.4l0.3-0.1l0.3-0.1l0.4-0.1l0.1-0.1l0.1-0.1l0.1-0.1l0.1-0.1l0.1-0.2l0.1-0.4l0.1-0.7v-4
		l-0.1-0.3l-0.1-0.3l-0.1-0.2l-0.1-0.2l-0.3-0.1l-0.3-0.2l-0.4-0.1l-0.3-0.1v-0.4h2.8l5.5,6.3v-3.9v-0.6l-0.1-0.5l-0.1-0.3l-0.1-0.1
		l-0.1-0.1l-0.3-0.1l-0.3-0.1l-0.7-0.1v-0.4h4V49.3L193.7,49.3z M202.3,51h-0.5l-0.1-0.2l-0.1-0.3l-0.2-0.3l-0.2-0.2l-0.2-0.3
		l-0.2-0.2l-0.3-0.1l-0.1-0.1h-0.1l-0.6-0.1h-0.5h-0.4v6.5V56l0.1,0.2l0.1,0.1l0.1,0.1l0.2,0.1l0.5,0.1h0.3l0.3,0.1V57h-4.6v-0.4
		l0.5-0.1h0.3l0.2-0.1l0.2-0.1l0.1-0.1l0.1-0.2v-0.2v-6.5h-0.3h-0.5l-0.6,0.1l-0.2,0.1l-0.3,0.1l-0.2,0.2l-0.2,0.3l-0.2,0.2
		l-0.2,0.3l-0.2,0.4h-0.5v-2.2h8.5V51L202.3,51z M209,53.3l0.2,0.3l0.2,0.3l0.1,0.3v0.4l-0.1,0.5l-0.1,0.2l-0.1,0.2l-0.1,0.3
		l-0.1,0.1l-0.2,0.2l-0.3,0.2l-0.2,0.1l-0.3,0.1l-0.5,0.3l-0.6,0.1l-0.7,0.1l-0.7-0.1L205,57l-0.6-0.2l-0.5-0.2l-0.3,0.4H203
		l-0.1-2.8h0.5l0.2,0.5l0.2,0.5l0.3,0.4l0.3,0.3l0.1,0.1l0.2,0.1l0.5,0.3l0.2,0.1l0.3,0.1l0.3,0.1h0.3l0.4-0.1l0.4-0.1l0.3-0.1
		l0.2-0.2l0.2-0.2l0.1-0.2l0.1-0.3l0.1-0.3l-0.1-0.2l-0.1-0.3l-0.1-0.2l-0.1-0.2l-0.2-0.2l-0.2-0.2l-0.6-0.2l-1-0.3l-1-0.3l-0.4-0.2
		l-0.3-0.1l-0.3-0.2l-0.3-0.3l-0.1-0.3l-0.2-0.3l-0.1-0.3v-0.4v-0.2l0.1-0.3l0.1-0.2l0.1-0.2l0.1-0.1l0.1-0.2l0.2-0.2l0.2-0.1
		l0.2-0.1l0.2-0.1l0.2-0.1l0.3-0.1l0.5-0.1h0.6h0.6l0.3,0.1l0.3,0.1l0.5,0.2l0.4,0.2l0.3-0.4h0.6v2.8h-0.6l-0.3-0.9l-0.2-0.4
		l-0.1-0.2l-0.1-0.1l-0.3-0.3l-0.1-0.1l-0.2-0.1l-0.3-0.1l-0.2-0.1l-0.3-0.1H206h-0.3l-0.3,0.1l-0.3,0.1l-0.3,0.1l-0.2,0.2l-0.1,0.2
		l-0.1,0.2v0.2v0.3l0.1,0.2l0.1,0.3l0.1,0.1l0.1,0.2l0.2,0.1l0.2,0.1l0.3,0.1l0.5,0.2l0.5,0.2l0.9,0.3l0.4,0.1l0.4,0.2l0.3,0.2
		L209,53.3L209,53.3z M220.9,53.3l0.4,0.3l0.1,0.1l0.1,0.2l0.1,0.2l0.1,0.2v0.3l0.1,0.2l-0.1,0.3l-0.1,0.3l-0.1,0.3l-0.1,0.2
		l-0.1,0.2l-0.2,0.1l-0.2,0.2l-0.2,0.1l-0.2,0.1l-0.3,0.1l-0.6,0.2l-0.6,0.1l-0.6,0.1h-4.6v-0.4l0.5-0.1l0.5-0.1l0.1-0.1l0.1-0.1
		l0.1-0.2v-0.1v-5.9v-0.2l-0.1-0.1v-0.1l-0.1-0.1l-0.2-0.1l-0.5-0.1l-0.4-0.1v-0.4h4.5l0.5,0.1l0.5,0.1l0.5,0.1l0.4,0.2l0.2,0.1
		l0.2,0.1l0.1,0.2l0.1,0.1l0.1,0.2l0.1,0.1v0.3l0.1,0.2l-0.1,0.4l-0.1,0.3l-0.2,0.3l-0.1,0.1l-0.2,0.1l-0.3,0.2l-0.3,0.1l-0.4,0.1
		l-0.5,0.1v0.1h0.4l0.5,0.1l0.5,0.1L220.9,53.3L220.9,53.3z M219.2,52l0.2-0.3l0.1-0.3l0.1-0.3l0.1-0.3l-0.1-0.3l-0.1-0.3l-0.1-0.2
		l-0.2-0.2l-0.2-0.2l-0.3-0.1l-0.4-0.1h-0.4h-0.5h-0.6v3.2h0.9l0.5-0.1l0.5-0.1l0.1-0.1l0.2-0.1L219.2,52L219.2,52z M220.2,54.6
		l-0.1-0.3l-0.1-0.3l-0.1-0.1l-0.1-0.1l-0.1-0.1l-0.1-0.1l-0.3-0.2l-0.4-0.1l-0.4-0.1l-0.5-0.1l-0.8,0.1h-0.4v2.8V56l0.1,0.1
		l0.1,0.1l0.1,0.1l0.2,0.1h0.2l0.3,0.1h0.3h0.5l0.4-0.1l0.2-0.1l0.2-0.1l0.3-0.2l0.2-0.3l0.2-0.3l0.1-0.2V55L220.2,54.6L220.2,54.6z
		 M232.2,57h-4.1v-0.4l0.5-0.1l0.4-0.1l0.2-0.1l0.1-0.1l0.1-0.1v-0.1l-0.1-0.1l-0.8-1.8H225l-0.1,0.3l-0.1,0.3l-0.2,0.6l-0.1,0.4
		l-0.1,0.2l0.1,0.1l0.1,0.1l0.3,0.2l0.4,0.1l0.6,0.1V57H222v-0.4l0.5-0.1l0.3-0.1l0.1-0.1l0.3-0.2l0.2-0.1l0.1-0.2l0.1-0.3l0.8-1.6
		l0.9-1.9l1.6-3.4h0.5l3.2,7l0.1,0.2l0.1,0.1l0.2,0.1l0.2,0.1l0.1,0.1l0.3,0.1l0.4,0.1V57L232.2,57z M228.2,53.7l-1.5-3.2l-1.4,3.2
		H228.2L228.2,53.7z M242.4,49.3l-0.6,0.1l-0.3,0.1l-0.2,0.1l-0.1,0.1l-0.1,0.1l-0.1,0.3l-0.1,0.5l-0.1,0.5v6h-0.6l-5.9-6.7v4.2v0.6
		l0.1,0.5l0.1,0.3l0.2,0.2l0.3,0.1l0.4,0.1l0.6,0.1V57h-4v-0.4l0.2-0.1l0.4-0.1l0.3-0.1l0.2-0.1l0.1-0.1l0.1-0.1l0.1-0.1l0.1-0.2
		l0.1-0.4v-0.7v-4v-0.3l-0.1-0.3l-0.1-0.2l-0.2-0.2l-0.3-0.1l-0.4-0.2l-0.3-0.1l-0.3-0.1v-0.4h2.8l5.5,6.3v-3.9l-0.1-0.6l-0.1-0.5
		l-0.1-0.3l-0.1-0.1l-0.1-0.1l-0.3-0.1l-0.4-0.1l-0.6-0.1v-0.4h3.9V49.3L242.4,49.3z M252.5,57h-2.8l-0.4-0.5L249,56l-1-1l-1-1l-1-1
		h-0.2v2.8l0.1,0.2v0.1l0.1,0.1l0.2,0.1l0.4,0.1l0.5,0.1V57H243v-0.4l0.5-0.1h0.3l0.1-0.1l0.2-0.1l0.1-0.1l0.1-0.1v-0.2v-5.9v-0.2
		l-0.1-0.1l-0.1-0.1l-0.1-0.1l-0.2-0.1l-0.4-0.1l-0.5-0.1v-0.4h4.1v0.4l-0.5,0.1l-0.4,0.1l-0.2,0.1l-0.1,0.1v0.1l-0.1,0.2v2.8h0.1
		l0.6-0.5l0.6-0.5l0.3-0.2l0.3-0.3l0.5-0.4l0.5-0.5l0.3-0.3l0.2-0.3l0.1-0.1v-0.1v-0.1l-0.1-0.1l-0.3-0.1h-0.3l-0.3-0.1v-0.4h3.7
		v0.4h-0.1l-0.1,0.1h-0.2h-0.2l-0.5,0.2l-0.2,0.1l-0.2,0.1l-1.4,1.4l-0.8,0.7l-0.8,0.6l1,1l0.8,0.8l1.5,1.5l0.3,0.3l0.3,0.2l0.5,0.3
		l0.4,0.1l0.5,0.1V57L252.5,57z"/>
</g>
</svg>
