<?xml version="1.0" standalone="no"?><!DOCTYPE svg PUBLIC "-//W3C//DTD SVG 1.1//EN" "http://www.w3.org/Graphics/SVG/1.1/DTD/svg11.dtd"><svg t="1526958928782" class="icon" style="" viewBox="0 0 1024 1024" version="1.1" xmlns="http://www.w3.org/2000/svg" p-id="2357" xmlns:xlink="http://www.w3.org/1999/xlink" width="200" height="200"><defs><style type="text/css"></style></defs><path d="M875.7 235.7H713.4L663 152.9c-5.6-16.6-28-27.6-44.8-27.6H405.5c-16.8 0-39.2 11-44.8 27.6l-50.4 82.8H148c-44.8 0-84 38.6-84 82.8v496.9c0 44.2 39.2 82.8 84 82.8h727.7c44.8 0 84-38.6 84-82.8V318.5c0-44.2-39.2-82.8-84-82.8zM511.8 787.8c-139.9 0-251.9-110.4-251.9-248.5s112-248.5 251.9-248.5 251.9 110.4 251.9 248.5-111.9 248.5-251.9 248.5z" fill="#009EE5" p-id="2358"></path><path d="M344.1 539a167.8 165.5 0 1 0 335.6 0 167.8 165.5 0 1 0-335.6 0Z" fill="#009EE5" p-id="2359"></path></svg>