<?xml version="1.0" encoding="utf-8"?>
<!-- Generator: Adobe Illustrator 22.0.1, SVG Export Plug-In . SVG Version: 6.00 Build 0)  -->
<svg version="1.1" id="图层_1" xmlns="http://www.w3.org/2000/svg" xmlns:xlink="http://www.w3.org/1999/xlink" x="0px" y="0px"
	 viewBox="0 0 36 35" style="enable-background:new 0 0 36 35;" xml:space="preserve">
<style type="text/css">
	.st0{fill:#DBDBDB;}
	.st1{fill:#C9C9C9;}
	.st2{fill:#B7B7B7;}
	.st3{fill:#A5A5A5;}
	.st4{fill:#939393;}
	.st5{fill:#828282;}
	.st6{opacity:0.9;fill:#FFFFFF;enable-background:new    ;}
	.st7{fill:#FFFFFF;}
	.st8{fill:#6F6F6F;}
</style>
<g id="loading" transform="translate(38.000000, 21.000000)">
	<path id="矩形_2" class="st0" d="M-20-21L-20-21c0.8,0,1.5,0.7,1.5,1.5v5.9c0,0.8-0.7,1.5-1.5,1.5l0,0c-0.8,0-1.5-0.7-1.5-1.5
		v-5.9C-21.5-20.3-20.8-21-20-21z"/>
	<path id="矩形_2_拷贝" class="st1" d="M-28.8-18.7c0.7-0.4,1.6-0.2,2,0.5l3,5.1c0.4,0.7,0.2,1.6-0.6,2c-0.7,0.4-1.6,0.2-2-0.5
		l-3-5.1c-0.2-0.3-0.3-0.7-0.2-1.1S-29.1-18.5-28.8-18.7z"/>
	<path id="矩形_2_拷贝_2" class="st2" d="M-35.2-12.4c0.4-0.7,1.4-0.9,2.1-0.5l5.3,3c0.5,0.2,0.8,0.7,0.8,1.3
		c0,0.5-0.3,1.1-0.8,1.3c-0.5,0.3-1.1,0.2-1.5-0.1l-5.3-3c-0.3-0.2-0.6-0.5-0.7-0.9C-35.4-11.7-35.4-12.1-35.2-12.4z"/>
	<path id="矩形_2_拷贝_2-2" class="st3" d="M-37.5-3.8c0-0.4,0.2-0.8,0.4-1c0.3-0.3,0.7-0.4,1.1-0.4l6.1,0
		c0.8,0,1.5,0.7,1.5,1.5c0,0.4-0.2,0.8-0.4,1c-0.3,0.3-0.7,0.4-1.1,0.4l-6.1,0C-36.8-2.3-37.5-3-37.5-3.8z"/>
	<path id="矩形_2_拷贝_3" class="st4" d="M-35.1,4.9L-35.1,4.9c-0.2-0.3-0.3-0.7-0.1-1.1c0.1-0.4,0.4-0.7,0.7-0.9l5.2-2.9
		c0.3-0.2,0.8-0.2,1.1-0.1s0.7,0.3,0.9,0.7v0c0.2,0.3,0.3,0.7,0.1,1.1c-0.1,0.4-0.4,0.7-0.7,0.9l-5.2,2.9c-0.3,0.2-0.8,0.2-1.1,0.1
		S-34.9,5.2-35.1,4.9z"/>
	<path id="矩形_2_拷贝_3-2" class="st5" d="M-28.7,11.2c-0.7-0.4-1-1.3-0.6-2l3-5.1c0.4-0.7,1.3-0.9,2.1-0.5
		c0.7,0.4,1,1.3,0.5,2l-3,5.1c-0.2,0.3-0.5,0.6-0.9,0.7C-28,11.5-28.4,11.4-28.7,11.2z"/>
	<path id="矩形_2_拷贝_4" class="st6" d="M-11.2-18.8c-0.7-0.4-1.6-0.2-2,0.5l-3,5.1c-0.2,0.3-0.3,0.7-0.1,1.1s0.4,0.7,0.7,0.9
		c0.7,0.4,1.6,0.2,2-0.5l3-5.1c0.2-0.3,0.3-0.7,0.1-1.1C-10.6-18.3-10.9-18.6-11.2-18.8z"/>
	<path id="矩形_2_拷贝_4-2" class="st7" d="M-4.8-12.6c-0.4-0.7-1.4-0.9-2.1-0.5l-5.3,3c-0.3,0.2-0.6,0.5-0.7,0.9
		s-0.1,0.8,0.1,1.1c0.4,0.7,1.4,0.9,2.1,0.5l5.3-3c0.3-0.2,0.6-0.5,0.7-0.9C-4.6-11.9-4.6-12.3-4.8-12.6z"/>
	<path id="矩形_2_拷贝_4-3" class="st8" d="M-2.5-4c0-0.4-0.2-0.8-0.4-1C-3.2-5.4-3.6-5.5-4-5.5l-6.1,0c-0.8,0-1.5,0.7-1.5,1.5
		c0,0.4,0.2,0.8,0.4,1c0.3,0.3,0.7,0.4,1.1,0.4l6.1,0C-3.2-2.6-2.5-3.2-2.5-4z"/>
	<path id="矩形_2_拷贝_4-4" class="st8" d="M-4.9,4.6L-4.9,4.6c0.2-0.3,0.3-0.7,0.1-1.1c-0.1-0.4-0.4-0.7-0.7-0.9l-5.2-2.9
		c-0.7-0.4-1.6-0.2-2,0.5v0c-0.2,0.3-0.3,0.7-0.1,1.1c0.1,0.4,0.4,0.7,0.7,0.9l5.2,2.9C-6.2,5.5-5.3,5.3-4.9,4.6z"/>
	<path id="矩形_2_拷贝_4-5" class="st8" d="M-11.3,10.8c0.3-0.2,0.6-0.5,0.7-0.9c0.1-0.4,0.1-0.8-0.1-1.1l-3-5.1
		c-0.4-0.7-1.3-0.9-2-0.5c-0.7,0.4-1,1.3-0.6,2l3,5.1C-12.9,11-12,11.2-11.3,10.8z"/>
	<path id="矩形_2_拷贝_3-3" class="st5" d="M-20,13.5c-0.8,0-1.5-0.7-1.5-1.5l0-6c0-0.5,0.3-1.1,0.7-1.3s1.1-0.3,1.5,0
		c0.5,0.3,0.8,0.8,0.7,1.3l0,6c0,0.4-0.2,0.8-0.4,1.1C-19.2,13.4-19.6,13.5-20,13.5z"/>
</g>
</svg>
