<?xml version="1.0" encoding="utf-8"?>
<!-- Generator: Adobe Illustrator 22.0.1, SVG Export Plug-In . SVG Version: 6.00 Build 0)  -->
<svg version="1.1" id="图层_1" xmlns="http://www.w3.org/2000/svg" xmlns:xlink="http://www.w3.org/1999/xlink" x="0px" y="0px"
	 viewBox="0 0 18.2 16.9" style="enable-background:new 0 0 18.2 16.9;" xml:space="preserve">
<style type="text/css">
	.st0{fill:#C6C6C6;}
	.st1{fill:#C6C6C6;stroke:#C6C6C6;stroke-width:0.2;}
</style>
<title>icon_bank@2x</title>
<desc>Created with Sketch.</desc>
<g id="页面">
	<g id="_x36_-0-1-5我的资料-实名绑卡验证" transform="translate(-19.000000, -268.000000)">
		<g id="开户银行" transform="translate(-1.000000, 250.000000)">
			<g id="icon_bank" transform="translate(21.000000, 18.500000)">
				<path id="Fill-1" class="st0" d="M8.1,1.4C7.4,1.4,6.8,2,6.8,2.8C6.8,3.5,7.4,4,8,4.1c0.7,0,1.4-0.6,1.4-1.3
					C9.4,2,8.8,1.4,8.1,1.4 M8.1,2.2c0.3,0,0.6,0.3,0.6,0.6c0,0.3-0.2,0.5-0.5,0.5c-0.3,0-0.6-0.2-0.6-0.6C7.5,2.4,7.8,2.2,8.1,2.2"
					/>
				<g id="Group-5" transform="translate(0.000000, 0.009239)">
					<path id="Fill-3" class="st1" d="M-0.2,4.7L-0.2,4.7c0-0.1,0-0.1,0.1-0.2L8,0.4c0,0,0.1,0,0.2,0l8.1,4.1c0.1,0,0.1,0.1,0.1,0.2
						c0,0.1-0.1,0.2-0.2,0.2H0C-0.1,4.8-0.2,4.8-0.2,4.7 M13.3,13.1V5.8c0-0.1,0.1-0.2,0.2-0.2h1.1c0.1,0,0.2,0.1,0.2,0.2v7.3
						c0,0.1-0.1,0.2-0.2,0.2h-1.1C13.4,13.3,13.3,13.2,13.3,13.1 M9.6,13.1V5.8c0-0.1,0.1-0.2,0.2-0.2h2.6c0.1,0,0.2,0.1,0.2,0.2
						v7.3c0,0.1-0.1,0.2-0.2,0.2H9.8C9.7,13.3,9.6,13.2,9.6,13.1 M7.3,13.1V5.8c0-0.1,0.1-0.2,0.2-0.2h1.1c0.1,0,0.2,0.1,0.2,0.2
						v7.3c0,0.1-0.1,0.2-0.2,0.2H7.5C7.4,13.3,7.3,13.2,7.3,13.1 M3.6,13.1V5.8c0-0.1,0.1-0.2,0.2-0.2h2.6c0.1,0,0.2,0.1,0.2,0.2
						v7.3c0,0.1-0.1,0.2-0.2,0.2H3.8C3.7,13.3,3.6,13.2,3.6,13.1 M1.3,13.1V5.8c0-0.1,0.1-0.2,0.2-0.2h1.1c0.1,0,0.2,0.1,0.2,0.2
						v7.3c0,0.1-0.1,0.2-0.2,0.2H1.5C1.4,13.3,1.3,13.2,1.3,13.1 M16.3,14.2v1.2c0,0.1-0.1,0.2-0.2,0.2H0c-0.1,0-0.2-0.1-0.2-0.2
						v-1.2c0-0.1,0.1-0.2,0.2-0.2h16.1C16.3,14,16.3,14.1,16.3,14.2 M1.3,16.3h15.1c0.3,0,0.6-0.3,0.6-0.6v-1.9
						c0-0.3-0.3-0.6-0.6-0.6h-0.7c-0.1,0-0.2-0.1-0.2-0.2V5.8c0-0.1,0.1-0.2,0.2-0.2h0.7c0.3,0,0.6-0.3,0.6-0.6V4.6
						c0-0.3-0.2-0.6-0.5-0.8L8.5-0.3c-0.3-0.1-0.6-0.1-0.9,0l-8.1,4.1C-0.7,4-0.9,4.3-0.9,4.6V5c0,0.3,0.3,0.6,0.6,0.6h0.7
						c0.1,0,0.2,0.1,0.2,0.2v7.3c0,0.1-0.1,0.2-0.2,0.2h-0.7c-0.3,0-0.6,0.3-0.6,0.6v1.9c0,0.3,0.2,0.6,0.5,0.6H1.3z"/>
				</g>
			</g>
		</g>
	</g>
</g>
</svg>
