<?xml version="1.0" encoding="utf-8"?>
<!-- Generator: Adobe Illustrator 22.0.1, SVG Export Plug-In . SVG Version: 6.00 Build 0)  -->
<svg version="1.1" id="图层_1" xmlns="http://www.w3.org/2000/svg" xmlns:xlink="http://www.w3.org/1999/xlink" x="0px" y="0px"
	 viewBox="0 0 18 14" style="enable-background:new 0 0 18 14;" xml:space="preserve">
<style type="text/css">
	.st0{filter:url(#Adobe_OpacityMaskFilter);}
	.st1{fill:#FFFFFF;}
	.st2{mask:url(#mask-2_1_);fill:#C6C6C6;}
</style>
<title>Page 1@2x</title>
<desc>Created with Sketch.</desc>
<g id="页面">
	<g id="_x36_-2-1-0安全设置-提款密码修改-身份验证" transform="translate(-45.000000, -301.000000)">
		<g id="Group-2-Copy" transform="translate(45.000000, 297.000000)">
			<g id="Page-1" transform="translate(0.000000, 4.000000)">
				<g id="Clip-2">
				</g>
				<defs>
					<filter id="Adobe_OpacityMaskFilter" filterUnits="userSpaceOnUse" x="0" y="0" width="18" height="14">
						<feColorMatrix  type="matrix" values="1 0 0 0 0  0 1 0 0 0  0 0 1 0 0  0 0 0 1 0"/>
					</filter>
				</defs>
				<mask maskUnits="userSpaceOnUse" x="0" y="0" width="18" height="14" id="mask-2_1_">
					<g class="st0">
						<polygon id="path-1_1_" class="st1" points="18,0 0,0 0,14 18,14 						"/>
					</g>
				</mask>
				<path id="Fill-1" class="st2" d="M10.7,7.5h1.1c0.3,0,0.6,0.2,0.6,0.5s-0.3,0.5-0.6,0.5h-1.1c-0.3,0-0.6-0.2-0.6-0.5
					C10.1,7.8,10.4,7.5,10.7,7.5L10.7,7.5z M2.8,9.7h4.5c0.3,0,0.6,0.2,0.6,0.5c0,0.3-0.3,0.5-0.6,0.5H2.8c-0.3,0-0.6-0.2-0.6-0.5
					C2.2,9.9,2.5,9.7,2.8,9.7L2.8,9.7z M2.8,7.5h5.6C8.7,7.5,9,7.8,9,8.1S8.7,8.6,8.4,8.6H2.8c-0.3,0-0.6-0.2-0.6-0.5
					S2.5,7.5,2.8,7.5L2.8,7.5z M15.8,1.1H2.2c-0.6,0-1.1,0.5-1.1,1.1v1.1h15.7V2.2C16.9,1.6,16.4,1.1,15.8,1.1L15.8,1.1z M2.2,12.9
					h13.5c0.6,0,1.1-0.5,1.1-1.1V4.3H1.1v7.5C1.1,12.4,1.6,12.9,2.2,12.9L2.2,12.9z M15.8,14H2.2C1,14,0,13,0,11.8V2.2
					C0,1,1,0,2.2,0h13.5C17,0,18,1,18,2.2v9.7C18,13,17,14,15.8,14L15.8,14z"/>
			</g>
		</g>
	</g>
</g>
</svg>
