<?xml version="1.0" encoding="utf-8"?>
<!-- Generator: Adobe Illustrator 22.0.1, SVG Export Plug-In . SVG Version: 6.00 Build 0)  -->
<svg version="1.1" id="图层_1" xmlns="http://www.w3.org/2000/svg" xmlns:xlink="http://www.w3.org/1999/xlink" x="0px" y="0px"
	 viewBox="0 0 15.5 16.5" style="enable-background:new 0 0 15.5 16.5;" xml:space="preserve">
<style type="text/css">
	.st0{fill:#C6C6C6;}
</style>
<title>Fill 1@2x</title>
<desc>Created with Sketch.</desc>
<g id="页面">
	<g id="_x36_-2-1-0安全设置-提款密码修改-身份验证" transform="translate(-46.000000, -170.000000)">
		<g id="Group-2" transform="translate(45.000000, 167.000000)">
			<g id="Page-1" transform="translate(1.000000, 3.000000)">
				<g id="Fill-1">
					<path class="st0" d="M15,15.4h-4.8c-0.3,0-0.5,0.2-0.5,0.5c0,0.3,0.2,0.5,0.5,0.5H15c0.3,0,0.5-0.2,0.5-0.5
						C15.5,15.6,15.3,15.4,15,15.4L15,15.4z M9.6,12.7c0,0.3,0.2,0.5,0.5,0.5H15c0.3,0,0.5-0.2,0.5-0.5c0-0.3-0.2-0.5-0.5-0.5h-4.8
						C9.8,12.2,9.6,12.4,9.6,12.7L9.6,12.7z M4.8,4.2C4.9,2.4,6.3,1,8.1,1c1.7,0,3.2,1.5,3.1,3.3c0,1.7-1.4,3.1-3.1,3.2H8
						C6.3,7.5,4.8,6,4.8,4.2L4.8,4.2z M12.4,10.2c0.2,0.2,0.5,0.2,0.7,0c0.2-0.2,0.2-0.5,0-0.7c-0.8-0.8-1.7-1.4-2.8-1.7
						c1.9-1.3,2.4-3.9,1.2-5.9C10.3,0,7.6-0.6,5.7,0.7C3.7,2,3.3,4.6,4.5,6.6c0.3,0.5,0.7,0.9,1.2,1.2c-1.5,0.4-2.8,1.2-3.9,2.4
						C1,11.3,0.4,12.6,0.2,14C0,14.6,0,15.3,0,16c0,0.3,0.2,0.5,0.5,0.5h0c0.3,0,0.5-0.3,0.5-0.5c0,0-0.2-2.9,1.6-5
						c1.2-1.4,3-2.2,5.4-2.4C10,8.6,11.4,9.1,12.4,10.2z"/>
				</g>
			</g>
		</g>
	</g>
</g>
</svg>
