<?xml version="1.0" encoding="utf-8"?>
<!-- Generator: Adobe Illustrator 22.0.1, SVG Export Plug-In . SVG Version: 6.00 Build 0)  -->
<svg version="1.1" id="图层_1" xmlns="http://www.w3.org/2000/svg" xmlns:xlink="http://www.w3.org/1999/xlink" x="0px" y="0px"
	 viewBox="0 0 18 14" style="enable-background:new 0 0 18 14;" xml:space="preserve">
<style type="text/css">
	.st0{fill:#C6C6C6;}
</style>
<title>Page 1@2x</title>
<desc>Created with Sketch.</desc>
<g id="页面">
	<g>
		<path class="st0" d="M14.6,5.5h-3.3C11.1,5.5,11,5.8,11,6c0,0.3,0.1,0.5,0.3,0.5h3.3c0.2,0,0.3-0.2,0.3-0.5S14.8,5.5,14.6,5.5z"/>
		<path class="st0" d="M15.7,0H2.2C1.8,0,1.4,0.1,1.1,0.3h0v0C0.4,0.7,0,1.4,0,2.2v9.6C0,13,1,14,2.2,14h13.6c1.2,0,2.2-1,2.2-2.1
			V2.2C18,1,17,0,15.7,0z M16.8,11.8c0,0.7-0.5,1.1-1.1,1.1H2.2c-0.6,0-1.1-0.5-1.1-1.1V2.2c0-0.6,0.5-1.1,1.1-1.1h13.6
			c0.6,0,1.1,0.5,1,1.1V11.8z"/>
		<path class="st0" d="M14.6,3.5h-3.3C11.1,3.5,11,3.8,11,4c0,0.3,0.1,0.5,0.3,0.5h3.3c0.2,0,0.3-0.2,0.3-0.5S14.8,3.5,14.6,3.5z"/>
		<path class="st0" d="M8,7.4C8.6,7,9,6.3,9,5.5C9,4.1,7.9,3,6.5,3S4,4.1,4,5.5C4,6.3,4.4,7,5,7.4C3.8,8,3,9.2,3,10.5
			C3,10.8,3.2,11,3.5,11S4,10.8,4,10.5c0-1.4,1.2-2.7,2.6-2.7c1.4,0,2.6,1.3,2.6,2.7c0,0.3,0.2,0.5,0.4,0.5c0.3,0,0.5-0.2,0.5-0.5
			C10,9.2,9.2,8,8,7.4z M6.5,7.2c-1,0-1.7-0.8-1.7-1.7s0.8-1.7,1.7-1.7s1.7,0.7,1.7,1.7C8.2,6.4,7.4,7.2,6.5,7.2z"/>
	</g>
</g>
</svg>
