<?xml version="1.0" encoding="utf-8"?>
<!-- Generator: Adobe Illustrator 22.0.1, SVG Export Plug-In . SVG Version: 6.00 Build 0)  -->
<svg version="1.1" id="图层_1" xmlns="http://www.w3.org/2000/svg" xmlns:xlink="http://www.w3.org/1999/xlink" x="0px" y="0px"
	 viewBox="0 0 37.1 33.7" style="enable-background:new 0 0 37.1 33.7;" xml:space="preserve">
<style type="text/css">
	.st0{filter:url(#Adobe_OpacityMaskFilter);}
	.st1{fill:#FFFFFF;}
	.st2{mask:url(#mask-2_2_);fill:#009EE5;}
	.st3{fill:#009EE5;}
</style>
<title>Page 1@2x</title>
<desc>Created with Sketch.</desc>
<g id="页面">
	<g id="_x36_-0-0-0我的-未登录" transform="translate(-168.000000, -206.000000)">
		<g id="Group-8_1_" transform="translate(0.000000, 184.500000)">
			<g id="Page-1" transform="translate(168.500000, 22.036362)">
				<g id="Group-3">
					<g id="Clip-2">
					</g>
					<defs>
						<filter id="Adobe_OpacityMaskFilter" filterUnits="userSpaceOnUse" x="-0.5" y="-0.5" width="0" height="0">
							<feColorMatrix  type="matrix" values="1 0 0 0 0  0 1 0 0 0  0 0 1 0 0  0 0 0 1 0"/>
						</filter>
					</defs>
					<mask maskUnits="userSpaceOnUse" x="-0.5" y="-0.5" width="0" height="0" id="mask-2_2_">
						<g class="st0">
							<polygon id="path-1_2_" class="st1" points="-0.5,28.1 -0.5,-0.5 33.2,-0.5 33.2,28.1 							"/>
						</g>
					</mask>
					<path id="Path-2" class="st2" d="M-0.5-0.5"/>
				</g>
				<g id="Group-8" transform="translate(3.373246, 3.373246)">
					<path class="st3" d="M0.6,19.7L-2,14.4c-0.5-1-0.2-2.4,0.7-3l1.9-1.2c0.2-1.7,1.7-3.1,3.5-3.1h1.7l15.2-9
						c0.9-0.6,2.2-0.2,2.7,0.8c2.4,4.7,3.9,7.4,4.3,8.2h0.5c0.5,0,0.9,0.1,1.3,0.3c0-0.1-0.1-0.3-0.1-0.4l-4.6-8.9
						c-0.9-2-3.3-2.6-4.9-1.6L-2,9.8c-1.8,1-2.4,3.6-1.5,5.3L0.1,22c0.2,0.4,0.2,1,0.5,0.9V19.7z"/>
					<path id="Fill-4_1_" class="st3" d="M3.3,6.4h26.1c2.1,0,3.8,1.7,3.8,3.7v15.9c0,2-1.7,3.7-3.8,3.7H3.3c-2.1,0-3.8-1.7-3.8-3.7
						V10.1C-0.5,8.1,1.2,6.4,3.3,6.4L3.3,6.4z M3.3,8.1c-1.1,0-2.1,0.9-2.1,2v15.9c0,1.1,0.9,2,2.1,2h26.1c1.1,0,2.1-0.9,2.1-2V10.1
						c0-1.1-0.9-2-2.1-2H3.3z"/>
					<path id="Fill-6" class="st3" d="M12.3,7.7l12.4-6.5c0.4-0.2,0.6-0.7,0.4-1.1c-0.2-0.6-0.8-0.7-1.1-0.6L11.4,6.2
						C11,6.4,10.8,7,11,7.4C11.4,7.7,11.8,7.9,12.3,7.7 M21.7,20.7h5.8c0.6,0,0.9-0.4,0.9-0.9c0-0.6-0.4-0.9-0.9-0.9h-5.8
						c-0.6,0-0.9,0.4-0.9,0.9C20.8,20.3,21.3,20.7,21.7,20.7 M19.3,20.7h0.4c0.6,0,0.9-0.4,0.9-0.9c0-0.6-0.4-0.9-0.9-0.9h-0.4
						c-0.6,0-0.9,0.4-0.9,0.9C18.3,20.3,18.9,20.7,19.3,20.7 M6.5,25h20.7c0.6,0,0.9-0.4,0.9-0.9c0-0.6-0.4-0.9-0.9-0.9H6.5
						c-0.6,0-0.9,0.4-0.9,0.9C5.6,24.6,5.9,25,6.5,25"/>
				</g>
			</g>
		</g>
	</g>
</g>
</svg>
