<?xml version="1.0" encoding="utf-8"?>
<!-- Generator: Adobe Illustrator 22.0.1, SVG Export Plug-In . SVG Version: 6.00 Build 0)  -->
<svg version="1.1" id="图层_1" xmlns="http://www.w3.org/2000/svg" xmlns:xlink="http://www.w3.org/1999/xlink" x="0px" y="0px"
	 viewBox="0 0 96.5 99" style="enable-background:new 0 0 96.5 99;" xml:space="preserve">
<style type="text/css">
	.st0{opacity:0.15;}
	.st1{opacity:0.3;fill:#009EE5;}
	.st2{fill:#D8E9FD;}
	.st3{fill:#2A76D0;}
	.st4{opacity:0.15;fill:#2A76D0;}
</style>
<title>home_icon_dingxindai@2x</title>
<desc>Created with Sketch.</desc>
<g class="st0">
	<polygon class="st1" points="73.9,42.8 73.9,83.6 56.8,83.6 56.8,97 79.8,97 84.4,91.2 84.9,54.7 	"/>
	<path class="st1" d="M49.2,2.6c-0.1,0.2,0,14.5,0,14.5l37,37l6.5,0.4l1.4-8.3L51,2.6H49.2z"/>
	<polygon class="st2" points="19.7,15.7 19.7,28.9 26.1,22.4 26.1,15.7 	"/>
	<path class="st3" d="M58.6,99c-2.2,0-4.1-1.8-4.1-4.1V76.5c0-1.2-0.9-2.1-2.1-2.1h-8.2c-1.2,0-2.1,0.9-2.1,2.1v18.4
		c0,2.2-1.8,4.1-4.1,4.1H17.6c-4.5,0-8.2-3.7-8.2-8.2V57.6l-0.8,0.2c-0.4,0.1-0.9,0.2-1.4,0.2c-1.7,0-3.2-0.7-4.4-1.8
		c-1.1-1.1-6.2-7,0.1-13.5l8.4-8.2v-18c0-2.2,1.8-4.1,4.1-4.1h8.2c2.2,0,4.1,1.8,4.1,4.1v2.1L45,1.7C46.2,0.6,47.7,0,49.3,0
		c1.6,0,3.2,0.6,4.3,1.8l40.1,41c2.8,3.1,2.8,3.8,2.8,5.5c0,4.6-1.5,6.7-2.8,8C92.5,57.4,91,58,89.3,58c-0.4,0-0.9-0.1-1.3-0.2
		l-0.8-0.2v33.1c0,4.5-3.7,8.2-8.1,8.2H58.6z M54.5,70.4c2.2,0,4.1,1.8,4.1,4.1v18.4c0,1.2,0.9,2.1,2.1,2.1h18.4
		c2.3,0,4.1-1.9,4.1-4.1V54.4L50.4,20.6c-0.5-0.5-0.8-0.7-1.2-0.7c-0.3,0-0.6,0.2-1.1,0.6L13.5,54.4v36.5c0,2.3,1.9,4.1,4.1,4.1
		h18.4c1.2,0,2.1-0.9,2.1-2.1V74.4c0-2.2,1.8-4.1,4.1-4.1H54.5z M49.3,4c-0.5,0-1.1,0.2-1.5,0.6C47.4,5,6.5,44.8,4.8,46.6
		c-1.3,1.5-1.6,3.2-0.8,4.7c0.7,1.4,2.1,2.4,3.4,2.4c0.5,0,1-0.1,1.4-0.4l0.1,0c0,0,0.8-0.8,1.9-1.9c28.3-27.8,34.6-34,34.9-34.3
		c1.9-1.6,2.8-2.3,3.8-2.3c0.8,0,1.3,0.4,2.8,1.8l0.5,0.4c0.3,0.2,3.6,3.8,7.9,8.3c7.5,7.9,18.8,19.8,26.3,27.4l0,0l0,0
		c0.4,0.3,0.9,0.4,1.4,0.4c1.4,0,2.8-1.1,3.4-2.7c0.3-0.9,0.8-3.3-1.9-5.7L50.8,4.6C50.2,4.1,49.6,4,49.3,4z M17.6,17.5
		c-1.2,0-2.1,0.9-2.1,2.1v12.1l8.3-8.1v-4c0-1.2-0.9-2.1-2.1-2.1H17.6z"/>
</g>
<path class="st4" d="M56.8,42l-0.3-0.3c-0.3-0.3-0.7-0.3-1,0l-6.4,7.5l-6.4-7.5c-0.3-0.3-0.7-0.3-1,0L41.4,42
	c-0.3,0.3-0.3,0.9,0,1.2l6,7h-5c-0.4,0-0.7,0.3-0.7,0.8v0.1c0,0.4,0.3,0.8,0.7,0.8h5.4v3.3h-5.4c-0.4,0-0.7,0.3-0.7,0.8v0.1
	c0,0.4,0.3,0.8,0.7,0.8h5.4v3.8c0,0.8,0.6,1.4,1.2,1.4c0.7,0,1.2-0.6,1.2-1.4v-3.8h5.4c0.4,0,0.7-0.3,0.7-0.8v-0.1
	c0-0.4-0.3-0.8-0.7-0.8h-5.4v-3.3h5.4c0.4,0,0.7-0.3,0.7-0.8V51c0-0.4-0.3-0.8-0.7-0.8h-4.7l6-7C57.1,42.8,57.1,42.3,56.8,42z"/>
</svg>
